Aleo-Light Italic.ufo
<glyph name="exclam" format="1">
  <advance width="216"/>
  <unicode hex="0021"/>
  <note>
    exclam
  </note>
  <outline>
    <contour>
      <point x="180" y="708" type="line"/>
      <point x="133" y="708" type="line"/>
      <point x="98" y="422" type="line" smooth="yes"/>
      <point x="93" y="380"/>
      <point x="85" y="286"/>
      <point x="83" y="244" type="curve"/>
      <point x="116" y="244" type="line"/>
      <point x="125" y="286"/>
      <point x="139" y="380"/>
      <point x="144" y="422" type="curve" smooth="yes"/>
    </contour>
    <contour>
      <point x="92" y="-8"/>
      <point x="116" y="14"/>
      <point x="118" y="39" type="curve" smooth="yes"/>
      <point x="121" y="63"/>
      <point x="104" y="85"/>
      <point x="78" y="85" type="curve" smooth="yes"/>
      <point x="52" y="85"/>
      <point x="28" y="63"/>
      <point x="26" y="39" type="curve" smooth="yes"/>
      <point x="24" y="14"/>
      <point x="41" y="-8"/>
      <point x="67" y="-8" type="curve" smooth="yes"/>
    </contour>
  </outline>
</glyph>
<glyph name="percent" format="1">
  <advance width="730"/>
  <unicode hex="0025"/>
  <note>
    percent
  </note>
  <outline>
    <contour>
      <point x="362" y="637"/>
      <point x="316" y="716"/>
      <point x="221" y="716" type="curve" smooth="yes"/>
      <point x="128" y="716"/>
      <point x="66" y="645"/>
      <point x="51" y="538" type="curve" smooth="yes"/>
      <point x="39" y="443"/>
      <point x="78" y="361"/>
      <point x="178" y="361" type="curve" smooth="yes"/>
      <point x="270" y="361"/>
      <point x="333" y="432"/>
      <point x="348" y="538" type="curve" smooth="yes"/>
    </contour>
    <contour>
      <point x="300" y="453"/>
      <point x="257" y="393"/>
      <point x="182" y="393" type="curve" smooth="yes"/>
      <point x="104" y="393"/>
      <point x="80" y="456"/>
      <point x="89" y="538" type="curve" smooth="yes"/>
      <point x="98" y="613"/>
      <point x="138" y="683"/>
      <point x="217" y="683" type="curve" smooth="yes"/>
      <point x="291" y="683"/>
      <point x="320" y="627"/>
      <point x="310" y="538" type="curve" smooth="yes"/>
    </contour>
    <contour>
      <point x="44" y="0" type="line"/>
      <point x="78" y="0" type="line" smooth="yes"/>
      <point x="85" y="0"/>
      <point x="91" y="3"/>
      <point x="96" y="9" type="curve" smooth="yes"/>
      <point x="690" y="708" type="line"/>
      <point x="656" y="708" type="line" smooth="yes"/>
      <point x="649" y="708"/>
      <point x="640" y="703"/>
      <point x="637" y="698" type="curve"/>
    </contour>
    <contour>
      <point x="699" y="269"/>
      <point x="654" y="346"/>
      <point x="558" y="346" type="curve" smooth="yes"/>
      <point x="463" y="346"/>
      <point x="402" y="273"/>
      <point x="388" y="168" type="curve" smooth="yes"/>
      <point x="375" y="73"/>
      <point x="416" y="-8"/>
      <point x="515" y="-8" type="curve" smooth="yes"/>
      <point x="608" y="-8"/>
      <point x="670" y="62"/>
      <point x="685" y="168" type="curve" smooth="yes"/>
    </contour>
    <contour>
      <point x="637" y="85"/>
      <point x="594" y="24"/>
      <point x="519" y="24" type="curve" smooth="yes"/>
      <point x="442" y="24"/>
      <point x="416" y="87"/>
      <point x="426" y="168" type="curve" smooth="yes"/>
      <point x="434" y="244"/>
      <point x="474" y="314"/>
      <point x="555" y="314" type="curve" smooth="yes"/>
      <point x="628" y="314"/>
      <point x="657" y="257"/>
      <point x="647" y="168" type="curve" smooth="yes"/>
    </contour>
  </outline>
</glyph>
<glyph name="quotesingle" format="1">
  <advance width="178"/>
  <unicode hex="0027"/>
  <note>
    quotesingle
  </note>
  <outline>
    <contour>
      <point x="130" y="708" type="line"/>
      <point x="89" y="708" type="line"/>
      <point x="71" y="562" type="line"/>
      <point x="66" y="485" type="line"/>
      <point x="66" y="478"/>
      <point x="67" y="467"/>
      <point x="80" y="467" type="curve" smooth="yes"/>
      <point x="90" y="467"/>
      <point x="97" y="476"/>
      <point x="99" y="485" type="curve" smooth="yes"/>
      <point x="112" y="562" type="line"/>
    </contour>
  </outline>
</glyph>
<glyph name="parenleft" format="1">
  <advance width="282"/>
  <unicode hex="0028"/>
  <note>
    parenleft
  </note>
  <outline>
    <contour>
      <point x="141" y="570"/>
      <point x="260" y="729" type="curve" smooth="yes"/>
      <point x="263" y="732"/>
      <point x="269" y="745"/>
      <point x="259" y="750" type="curve"/>
      <point x="240" y="763" type="line"/>
      <point x="106" y="588"/>
      <point x="41" y="423"/>
      <point x="41" y="202" type="curve" smooth="yes"/>
      <point x="41" y="87"/>
      <point x="73" y="-28"/>
      <point x="130" y="-133" type="curve"/>
      <point x="152" y="-120" type="line"/>
      <point x="160" y="-115"/>
      <point x="163" y="-107"/>
      <point x="159" y="-98" type="curve" smooth="yes"/>
      <point x="111" y="-3"/>
      <point x="86" y="97"/>
      <point x="83" y="203" type="curve" smooth="yes"/>
      <point x="78" y="388"/>
    </contour>
  </outline>
</glyph>
<glyph name="plus" format="1">
  <advance width="551"/>
  <unicode hex="002B"/>
  <note>
    plus
  </note>
  <outline>
    <contour>
      <point x="326" y="579" type="line"/>
      <point x="287" y="579" type="line"/>
      <point x="259" y="354" type="line"/>
      <point x="44" y="354" type="line"/>
      <point x="40" y="317" type="line"/>
      <point x="255" y="317" type="line"/>
      <point x="227" y="90" type="line"/>
      <point x="266" y="90" type="line"/>
      <point x="294" y="317" type="line"/>
      <point x="510" y="317" type="line"/>
      <point x="514" y="354" type="line"/>
      <point x="298" y="354" type="line"/>
    </contour>
  </outline>
</glyph>
<glyph name="comma" format="1">
  <advance width="226"/>
  <unicode hex="002C"/>
  <note>
    comma
  </note>
  <outline>
    <contour>
      <point x="66" y="17"/>
      <point x="82" y="-2"/>
      <point x="107" y="-2" type="curve" smooth="yes"/>
      <point x="113" y="-2"/>
      <point x="119" y="-1"/>
      <point x="122" y="0" type="curve"/>
      <point x="113" y="-35"/>
      <point x="82" y="-83"/>
      <point x="59" y="-101" type="curve"/>
      <point x="52" y="-108"/>
      <point x="50" y="-112"/>
      <point x="56" y="-119" type="curve"/>
      <point x="63" y="-126" type="line"/>
      <point x="110" y="-88"/>
      <point x="150" y="-26"/>
      <point x="158" y="31" type="curve" smooth="yes"/>
      <point x="162" y="62"/>
      <point x="149" y="85"/>
      <point x="119" y="85" type="curve" smooth="yes"/>
      <point x="95" y="85"/>
      <point x="72" y="65"/>
      <point x="70" y="42" type="curve"/>
    </contour>
  </outline>
</glyph>
<glyph name="period" format="1">
  <advance width="220"/>
  <unicode hex="002E"/>
  <note>
    period
  </note>
  <outline>
    <contour>
      <point x="124" y="-8"/>
      <point x="148" y="14"/>
      <point x="150" y="39" type="curve" smooth="yes"/>
      <point x="153" y="63"/>
      <point x="136" y="85"/>
      <point x="110" y="85" type="curve" smooth="yes"/>
      <point x="84" y="85"/>
      <point x="60" y="63"/>
      <point x="58" y="39" type="curve" smooth="yes"/>
      <point x="56" y="14"/>
      <point x="73" y="-8"/>
      <point x="99" y="-8" type="curve" smooth="yes"/>
    </contour>
  </outline>
</glyph>
<glyph name="zero" format="1">
  <advance width="606"/>
  <unicode hex="0030"/>
  <note>
    zero
  </note>
  <outline>
    <contour>
      <point x="582" y="552"/>
      <point x="519" y="716"/>
      <point x="347" y="716" type="curve" smooth="yes"/>
      <point x="171" y="716"/>
      <point x="74" y="550"/>
      <point x="49" y="354" type="curve" smooth="yes"/>
      <point x="25" y="163"/>
      <point x="79" y="-8"/>
      <point x="258" y="-8" type="curve" smooth="yes"/>
      <point x="429" y="-8"/>
      <point x="530" y="151"/>
      <point x="556" y="354" type="curve" smooth="yes"/>
    </contour>
    <contour>
      <point x="485" y="179"/>
      <point x="407" y="33"/>
      <point x="263" y="33" type="curve" smooth="yes"/>
      <point x="114" y="33"/>
      <point x="77" y="190"/>
      <point x="98" y="354" type="curve" smooth="yes"/>
      <point x="119" y="515"/>
      <point x="191" y="676"/>
      <point x="342" y="676" type="curve" smooth="yes"/>
      <point x="486" y="676"/>
      <point x="528" y="532"/>
      <point x="506" y="354" type="curve" smooth="yes"/>
    </contour>
  </outline>
</glyph>
<glyph name="one" format="1">
  <advance width="414"/>
  <unicode hex="0031"/>
  <note>
    one
  </note>
  <outline>
    <contour>
      <point x="387" y="0" type="line"/>
      <point x="389" y="16" type="line" smooth="yes"/>
      <point x="390" y="25"/>
      <point x="385" y="30"/>
      <point x="374" y="31" type="curve"/>
      <point x="237" y="38" type="line"/>
      <point x="319" y="710" type="line"/>
      <point x="282" y="710" type="line"/>
      <point x="56" y="530" type="line"/>
      <point x="68" y="510" type="line"/>
      <point x="73" y="503"/>
      <point x="84" y="502"/>
      <point x="92" y="508" type="curve" smooth="yes"/>
      <point x="265" y="647" type="line"/>
      <point x="260" y="611" type="line"/>
      <point x="189" y="38" type="line"/>
      <point x="189" y="38"/>
      <point x="45" y="31"/>
      <point x="42" y="31" type="curve"/>
      <point x="31" y="30"/>
      <point x="25" y="25"/>
      <point x="24" y="16" type="curve" smooth="yes"/>
      <point x="22" y="0" type="line"/>
    </contour>
  </outline>
</glyph>
<glyph name="two" format="1">
  <advance width="563"/>
  <unicode hex="0032"/>
  <note>
    two
  </note>
  <outline>
    <contour>
      <point x="471" y="134" type="line" smooth="yes"/>
      <point x="457" y="134"/>
      <point x="449" y="126"/>
      <point x="446" y="110" type="curve"/>
      <point x="433" y="45" type="line"/>
      <point x="161" y="45" type="line" smooth="yes"/>
      <point x="145" y="45"/>
      <point x="111" y="42"/>
      <point x="92" y="37" type="curve"/>
      <point x="341" y="263" type="line" smooth="yes"/>
      <point x="443" y="356"/>
      <point x="514" y="423"/>
      <point x="526" y="525" type="curve" smooth="yes"/>
      <point x="541" y="644"/>
      <point x="467" y="715"/>
      <point x="346" y="715" type="curve" smooth="yes"/>
      <point x="225" y="715"/>
      <point x="135" y="642"/>
      <point x="104" y="524" type="curve"/>
      <point x="127" y="520" type="line"/>
      <point x="139" y="518"/>
      <point x="149" y="522"/>
      <point x="155" y="537" type="curve"/>
      <point x="181" y="623"/>
      <point x="254" y="675"/>
      <point x="339" y="675" type="curve" smooth="yes"/>
      <point x="430" y="675"/>
      <point x="488" y="621"/>
      <point x="477" y="523" type="curve" smooth="yes"/>
      <point x="466" y="433"/>
      <point x="404" y="369"/>
      <point x="308" y="282" type="curve" smooth="yes"/>
      <point x="36" y="38" type="line"/>
      <point x="32" y="34"/>
      <point x="26" y="26"/>
      <point x="24" y="17" type="curve"/>
      <point x="22" y="0" type="line"/>
      <point x="478" y="0" type="line"/>
      <point x="495" y="134" type="line"/>
    </contour>
  </outline>
</glyph>
<glyph name="three" format="1">
  <advance width="548"/>
  <unicode hex="0033"/>
  <note>
    three
  </note>
  <outline>
    <contour>
      <point x="213" y="716"/>
      <point x="120" y="646"/>
      <point x="88" y="524" type="curve"/>
      <point x="112" y="520" type="line"/>
      <point x="125" y="518"/>
      <point x="134" y="525"/>
      <point x="138" y="538" type="curve" smooth="yes"/>
      <point x="166" y="621"/>
      <point x="237" y="675"/>
      <point x="323" y="675" type="curve" smooth="yes"/>
      <point x="416" y="675"/>
      <point x="470" y="619"/>
      <point x="459" y="529" type="curve" smooth="yes"/>
      <point x="445" y="431"/>
      <point x="361" y="383"/>
      <point x="253" y="380" type="curve"/>
      <point x="249" y="346" type="line"/>
      <point x="366" y="346"/>
      <point x="450" y="306"/>
      <point x="435" y="193" type="curve" smooth="yes"/>
      <point x="425" y="105"/>
      <point x="335" y="32"/>
      <point x="235" y="32" type="curve" smooth="yes"/>
      <point x="140" y="32"/>
      <point x="90" y="77"/>
      <point x="70" y="171" type="curve" smooth="yes"/>
      <point x="67" y="184"/>
      <point x="51" y="185"/>
      <point x="41" y="181" type="curve"/>
      <point x="22" y="173" type="line"/>
      <point x="38" y="52"/>
      <point x="99" y="-8"/>
      <point x="230" y="-8" type="curve" smooth="yes"/>
      <point x="356" y="-8"/>
      <point x="467" y="75"/>
      <point x="483" y="194" type="curve" smooth="yes"/>
      <point x="495" y="287"/>
      <point x="447" y="349"/>
      <point x="346" y="369" type="curve"/>
      <point x="429" y="389"/>
      <point x="496" y="449"/>
      <point x="507" y="537" type="curve" smooth="yes"/>
      <point x="521" y="642"/>
      <point x="447" y="716"/>
      <point x="330" y="716" type="curve" smooth="yes"/>
    </contour>
  </outline>
</glyph>
<glyph name="six" format="1">
  <advance width="527"/>
  <unicode hex="0036"/>
  <note>
    six
  </note>
  <outline>
    <contour>
      <point x="241" y="423"/>
      <point x="185" y="400"/>
      <point x="138" y="358" type="curve"/>
      <point x="148" y="373"/>
      <point x="164" y="391"/>
      <point x="199" y="432" type="curve" smooth="yes"/>
      <point x="444" y="708" type="line"/>
      <point x="402" y="708" type="line" smooth="yes"/>
      <point x="391" y="708"/>
      <point x="382" y="704"/>
      <point x="375" y="696" type="curve" smooth="yes"/>
      <point x="150" y="436" type="line" smooth="yes"/>
      <point x="94" y="371"/>
      <point x="41" y="291"/>
      <point x="34" y="225" type="curve" smooth="yes"/>
      <point x="18" y="82"/>
      <point x="90" y="-8"/>
      <point x="227" y="-8" type="curve" smooth="yes"/>
      <point x="364" y="-8"/>
      <point x="473" y="83"/>
      <point x="488" y="213" type="curve" smooth="yes"/>
      <point x="504" y="337"/>
      <point x="430" y="423"/>
      <point x="304" y="423" type="curve" smooth="yes"/>
    </contour>
    <contour>
      <point x="93" y="314"/>
      <point x="184" y="386"/>
      <point x="287" y="386" type="curve" smooth="yes"/>
      <point x="393" y="386"/>
      <point x="452" y="316"/>
      <point x="440" y="210" type="curve" smooth="yes"/>
      <point x="428" y="107"/>
      <point x="345" y="32"/>
      <point x="232" y="32" type="curve" smooth="yes"/>
      <point x="123" y="32"/>
      <point x="67" y="107"/>
      <point x="79" y="214" type="curve" smooth="yes"/>
    </contour>
  </outline>
</glyph>
<glyph name="seven" format="1">
  <advance width="557"/>
  <unicode hex="0037"/>
  <note>
    seven
  </note>
  <outline>
    <contour>
      <point x="61" y="707" type="line"/>
      <point x="44" y="573" type="line"/>
      <point x="68" y="573" type="line" smooth="yes"/>
      <point x="82" y="573"/>
      <point x="90" y="581"/>
      <point x="93" y="597" type="curve"/>
      <point x="104" y="664" type="line"/>
      <point x="476" y="664" type="line"/>
      <point x="458" y="640" type="line"/>
      <point x="53" y="0" type="line"/>
      <point x="85" y="0" type="line" smooth="yes"/>
      <point x="96" y="0"/>
      <point x="107" y="4"/>
      <point x="116" y="18" type="curve" smooth="yes"/>
      <point x="519" y="661" type="line" smooth="yes"/>
      <point x="524" y="669"/>
      <point x="527" y="679"/>
      <point x="528" y="686" type="curve" smooth="yes"/>
      <point x="531" y="708" type="line"/>
    </contour>
  </outline>
</glyph>
<glyph name="eight" format="1">
  <advance width="551"/>
  <unicode hex="0038"/>
  <note>
    eight
  </note>
  <outline>
    <contour>
      <point x="363" y="-8"/>
      <point x="473" y="59"/>
      <point x="490" y="187" type="curve" smooth="yes"/>
      <point x="501" y="283"/>
      <point x="453" y="349"/>
      <point x="358" y="370" type="curve"/>
      <point x="440" y="393"/>
      <point x="499" y="453"/>
      <point x="507" y="535" type="curve" smooth="yes"/>
      <point x="520" y="647"/>
      <point x="439" y="716"/>
      <point x="325" y="716" type="curve" smooth="yes"/>
      <point x="208" y="716"/>
      <point x="112" y="644"/>
      <point x="98" y="535" type="curve" smooth="yes"/>
      <point x="91" y="455"/>
      <point x="125" y="395"/>
      <point x="207" y="370" type="curve"/>
      <point x="109" y="349"/>
      <point x="41" y="284"/>
      <point x="30" y="187" type="curve" smooth="yes"/>
      <point x="14" y="64"/>
      <point x="107" y="-8"/>
      <point x="236" y="-8" type="curve" smooth="yes"/>
    </contour>
    <contour>
      <point x="135" y="30"/>
      <point x="66" y="91"/>
      <point x="79" y="188" type="curve" smooth="yes"/>
      <point x="92" y="291"/>
      <point x="174" y="348"/>
      <point x="280" y="348" type="curve" smooth="yes"/>
      <point x="388" y="348"/>
      <point x="455" y="290"/>
      <point x="441" y="188" type="curve" smooth="yes"/>
      <point x="429" y="88"/>
      <point x="345" y="30"/>
      <point x="241" y="30" type="curve" smooth="yes"/>
    </contour>
    <contour>
      <point x="189" y="387"/>
      <point x="136" y="440"/>
      <point x="145" y="534" type="curve" smooth="yes"/>
      <point x="155" y="620"/>
      <point x="225" y="678"/>
      <point x="321" y="678" type="curve" smooth="yes"/>
      <point x="410" y="678"/>
      <point x="470" y="630"/>
      <point x="460" y="534" type="curve" smooth="yes"/>
      <point x="451" y="448"/>
      <point x="382" y="387"/>
      <point x="285" y="387" type="curve" smooth="yes"/>
    </contour>
  </outline>
</glyph>
<glyph name="nine" format="1">
  <advance width="517"/>
  <unicode hex="0039"/>
  <note>
    nine
  </note>
  <outline>
    <contour>
      <point x="284" y="301"/>
      <point x="341" y="324"/>
      <point x="387" y="368" type="curve"/>
      <point x="382" y="360"/>
      <point x="340" y="307"/>
      <point x="327" y="292" type="curve" smooth="yes"/>
      <point x="82" y="0" type="line"/>
      <point x="125" y="0" type="line" smooth="yes"/>
      <point x="136" y="0"/>
      <point x="145" y="4"/>
      <point x="151" y="12" type="curve" smooth="yes"/>
      <point x="370" y="284" type="line" smooth="yes"/>
      <point x="430" y="359"/>
      <point x="474" y="421"/>
      <point x="482" y="494" type="curve" smooth="yes"/>
      <point x="498" y="622"/>
      <point x="423" y="716"/>
      <point x="296" y="716" type="curve" smooth="yes"/>
      <point x="171" y="716"/>
      <point x="61" y="626"/>
      <point x="44" y="503" type="curve" smooth="yes"/>
      <point x="28" y="389"/>
      <point x="98" y="301"/>
      <point x="220" y="301" type="curve" smooth="yes"/>
    </contour>
    <contour>
      <point x="428" y="412"/>
      <point x="340" y="338"/>
      <point x="238" y="338" type="curve" smooth="yes"/>
      <point x="139" y="338"/>
      <point x="80" y="401"/>
      <point x="92" y="506" type="curve" smooth="yes"/>
      <point x="104" y="602"/>
      <point x="184" y="676"/>
      <point x="290" y="676" type="curve" smooth="yes"/>
      <point x="387" y="676"/>
      <point x="449" y="606"/>
      <point x="437" y="502" type="curve" smooth="yes"/>
    </contour>
  </outline>
</glyph>
<glyph name="less" format="1">
  <advance width="482"/>
  <unicode hex="003C"/>
  <note>
    less
  </note>
  <outline>
    <contour>
      <point x="45" y="346" type="line"/>
      <point x="42" y="326" type="line"/>
      <point x="393" y="132" type="line"/>
      <point x="397" y="165" type="line"/>
      <point x="397" y="174"/>
      <point x="394" y="177"/>
      <point x="386" y="182" type="curve"/>
      <point x="127" y="323" type="line" smooth="yes"/>
      <point x="118" y="328"/>
      <point x="106" y="332"/>
      <point x="92" y="335" type="curve"/>
      <point x="105" y="338"/>
      <point x="118" y="342"/>
      <point x="130" y="348" type="curve" smooth="yes"/>
      <point x="424" y="488" type="line"/>
      <point x="429" y="491"/>
      <point x="437" y="496"/>
      <point x="439" y="506" type="curve"/>
      <point x="443" y="538" type="line"/>
    </contour>
  </outline>
</glyph>
<glyph name="equal" format="1">
  <advance width="552"/>
  <unicode hex="003D"/>
  <note>
    equal
  </note>
  <outline>
    <contour>
      <point x="65" y="278" type="line"/>
      <point x="60" y="241" type="line"/>
      <point x="474" y="241" type="line"/>
      <point x="478" y="278" type="line"/>
    </contour>
    <contour>
      <point x="84" y="434" type="line"/>
      <point x="79" y="398" type="line"/>
      <point x="493" y="398" type="line"/>
      <point x="497" y="434" type="line"/>
    </contour>
  </outline>
</glyph>
<glyph name="greater" format="1">
  <advance width="472"/>
  <unicode hex="003E"/>
  <note>
    greater
  </note>
  <outline>
    <contour>
      <point x="432" y="324" type="line"/>
      <point x="435" y="344" type="line"/>
      <point x="84" y="538" type="line"/>
      <point x="80" y="505" type="line"/>
      <point x="80" y="496"/>
      <point x="83" y="493"/>
      <point x="91" y="488" type="curve"/>
      <point x="350" y="347" type="line" smooth="yes"/>
      <point x="359" y="342"/>
      <point x="371" y="338"/>
      <point x="385" y="335" type="curve"/>
      <point x="372" y="332"/>
      <point x="359" y="328"/>
      <point x="347" y="322" type="curve" smooth="yes"/>
      <point x="53" y="182" type="line"/>
      <point x="48" y="179"/>
      <point x="40" y="174"/>
      <point x="38" y="164" type="curve"/>
      <point x="34" y="132" type="line"/>
    </contour>
  </outline>
</glyph>
<glyph name="at" format="1">
  <advance width="806"/>
  <unicode hex="0040"/>
  <note>
    at
  </note>
  <outline>
    <contour>
      <point x="664" y="94"/>
      <point x="750" y="215"/>
      <point x="764" y="339" type="curve" smooth="yes"/>
      <point x="789" y="535"/>
      <point x="660" y="666"/>
      <point x="463" y="666" type="curve" smooth="yes"/>
      <point x="252" y="666"/>
      <point x="69" y="495"/>
      <point x="41" y="274" type="curve" smooth="yes"/>
      <point x="11" y="40"/>
      <point x="149" y="-119"/>
      <point x="385" y="-119" type="curve" smooth="yes"/>
      <point x="481" y="-119"/>
      <point x="583" y="-95"/>
      <point x="667" y="-42" type="curve"/>
      <point x="661" y="-24" type="line"/>
      <point x="659" y="-18"/>
      <point x="651" y="-15"/>
      <point x="643" y="-19" type="curve"/>
      <point x="574" y="-61"/>
      <point x="480" y="-86"/>
      <point x="389" y="-86" type="curve" smooth="yes"/>
      <point x="178" y="-86"/>
      <point x="50" y="55"/>
      <point x="77" y="274" type="curve" smooth="yes"/>
      <point x="100" y="471"/>
      <point x="264" y="632"/>
      <point x="459" y="632" type="curve" smooth="yes"/>
      <point x="640" y="632"/>
      <point x="751" y="525"/>
      <point x="728" y="339" type="curve" smooth="yes"/>
      <point x="714" y="234"/>
      <point x="655" y="126"/>
      <point x="558" y="126" type="curve" smooth="yes"/>
      <point x="489" y="126"/>
      <point x="485" y="181"/>
      <point x="521" y="270" type="curve" smooth="yes"/>
      <point x="588" y="444" type="line"/>
      <point x="565" y="455"/>
      <point x="527" y="462"/>
      <point x="498" y="462" type="curve" smooth="yes"/>
      <point x="363" y="462"/>
      <point x="239" y="351"/>
      <point x="225" y="222" type="curve" smooth="yes"/>
      <point x="217" y="147"/>
      <point x="248" y="96"/>
      <point x="319" y="96" type="curve" smooth="yes"/>
      <point x="381" y="96"/>
      <point x="431" y="130"/>
      <point x="469" y="184" type="curve"/>
      <point x="463" y="125"/>
      <point x="489" y="94"/>
      <point x="548" y="94" type="curve" smooth="yes"/>
    </contour>
    <contour>
      <point x="279" y="129"/>
      <point x="256" y="173"/>
      <point x="264" y="223" type="curve" smooth="yes"/>
      <point x="277" y="328"/>
      <point x="376" y="430"/>
      <point x="488" y="430" type="curve" smooth="yes"/>
      <point x="512" y="430"/>
      <point x="517" y="428"/>
      <point x="542" y="422" type="curve"/>
      <point x="483" y="268" type="line" smooth="yes"/>
      <point x="456" y="193"/>
      <point x="405" y="129"/>
      <point x="332" y="129" type="curve" smooth="yes"/>
    </contour>
  </outline>
</glyph>
<glyph name="A" format="1">
  <advance width="754"/>
  <unicode hex="0041"/>
  <note>
    A
  </note>
  <outline>
    <contour>
      <point x="104" y="0" type="line"/>
      <point x="128" y="46" type="line"/>
      <point x="225" y="232" type="line"/>
      <point x="563" y="232" type="line"/>
      <point x="615" y="46" type="line"/>
      <point x="628" y="0" type="line"/>
      <point x="681" y="0" type="line"/>
      <point x="667" y="46" type="line"/>
      <point x="478" y="708" type="line"/>
      <point x="427" y="708" type="line"/>
      <point x="75" y="46" type="line"/>
      <point x="49" y="0" type="line"/>
    </contour>
    <contour>
      <point x="427" y="614" type="line" smooth="yes"/>
      <point x="432" y="624"/>
      <point x="442" y="644"/>
      <point x="446" y="656" type="curve"/>
      <point x="448" y="644"/>
      <point x="453" y="625"/>
      <point x="455" y="615" type="curve"/>
      <point x="552" y="270" type="line"/>
      <point x="246" y="270" type="line"/>
    </contour>
    <component base="serifBottom" xOffset="-58"/>
    <component base="serifBottom" xOffset="494"/>
    <contour>
      <point x="715" y="10" type="move" name="ogonek"/>
    </contour>
    <contour>
      <point x="377" y="0" type="move" name="bottom"/>
    </contour>
    <contour>
      <point x="446" y="708" type="move" name="top"/>
    </contour>
  </outline>
</glyph>
<glyph name="B" format="1">
  <advance width="639"/>
  <unicode hex="0042"/>
  <note>
    B
  </note>
  <outline>
    <contour>
      <point x="548" y="346"/>
      <point x="440" y="362" type="curve"/>
      <point x="524" y="383"/>
      <point x="596" y="445"/>
      <point x="605" y="527" type="curve" smooth="yes"/>
      <point x="618" y="657"/>
      <point x="533" y="708"/>
      <point x="392" y="708" type="curve" smooth="yes"/>
      <point x="104" y="708" type="line"/>
      <point x="101" y="689" type="line"/>
      <point x="100" y="678"/>
      <point x="106" y="672"/>
      <point x="119" y="671" type="curve"/>
      <point x="183" y="669" type="line"/>
      <point x="106" y="40" type="line"/>
      <point x="41" y="38" type="line"/>
      <point x="28" y="37"/>
      <point x="20" y="31"/>
      <point x="19" y="20" type="curve" smooth="yes"/>
      <point x="17" y="0" type="line"/>
      <point x="331" y="0" type="line" smooth="yes"/>
      <point x="470" y="0"/>
      <point x="575" y="60"/>
      <point x="593" y="193" type="curve" smooth="yes"/>
      <point x="605" y="289"/>
    </contour>
    <contour>
      <point x="234" y="668" type="line"/>
      <point x="387" y="668" type="line" smooth="yes"/>
      <point x="496" y="668"/>
      <point x="567" y="629"/>
      <point x="554" y="522" type="curve" smooth="yes"/>
      <point x="544" y="430"/>
      <point x="455" y="376"/>
      <point x="352" y="376" type="curve" smooth="yes"/>
      <point x="198" y="376" type="line"/>
    </contour>
    <contour>
      <point x="453" y="41"/>
      <point x="335" y="41" type="curve" smooth="yes"/>
      <point x="157" y="41" type="line"/>
      <point x="194" y="339" type="line"/>
      <point x="372" y="339" type="line" smooth="yes"/>
      <point x="476" y="339"/>
      <point x="556" y="293"/>
      <point x="542" y="194" type="curve" smooth="yes"/>
      <point x="529" y="90"/>
    </contour>
    <contour>
      <point x="320" y="708" type="move" name="top"/>
    </contour>
    <contour>
      <point x="320" y="0" type="move" name="bottom"/>
    </contour>
  </outline>
</glyph>
<glyph name="C" format="1">
  <advance width="655"/>
  <unicode hex="0043"/>
  <note>
    C
  </note>
  <outline>
    <contour>
      <point x="574" y="115" type="line"/>
      <point x="569" y="121"/>
      <point x="560" y="118"/>
      <point x="555" y="114" type="curve"/>
      <point x="489" y="60"/>
      <point x="427" y="36"/>
      <point x="334" y="36" type="curve" smooth="yes"/>
      <point x="160" y="36"/>
      <point x="68" y="167"/>
      <point x="90" y="354" type="curve" smooth="yes"/>
      <point x="112" y="538"/>
      <point x="241" y="671"/>
      <point x="423" y="671" type="curve" smooth="yes"/>
      <point x="487" y="671"/>
      <point x="544" y="661"/>
      <point x="593" y="638" type="curve"/>
      <point x="585" y="529" type="line"/>
      <point x="584" y="513"/>
      <point x="590" y="505"/>
      <point x="604" y="505" type="curve" smooth="yes"/>
      <point x="628" y="505" type="line"/>
      <point x="648" y="665" type="line"/>
      <point x="568" y="699"/>
      <point x="494" y="715"/>
      <point x="428" y="715" type="curve" smooth="yes"/>
      <point x="218" y="715"/>
      <point x="65" y="566"/>
      <point x="37" y="354" type="curve" smooth="yes"/>
      <point x="11" y="152"/>
      <point x="118" y="-8"/>
      <point x="325" y="-8" type="curve" smooth="yes"/>
      <point x="427" y="-8"/>
      <point x="518" y="25"/>
      <point x="591" y="94" type="curve"/>
    </contour>
    <contour>
      <point x="427" y="708" type="move" name="top"/>
    </contour>
    <contour>
      <point x="328" y="0" type="move" name="bottom"/>
    </contour>
  </outline>
</glyph>
<glyph name="D" format="1">
  <advance width="763"/>
  <unicode hex="0044"/>
  <note>
    D
  </note>
  <outline>
    <contour>
      <point x="646" y="707"/>
      <point x="433" y="707" type="curve" smooth="yes"/>
      <point x="103" y="707" type="line"/>
      <point x="101" y="688" type="line" smooth="yes"/>
      <point x="100" y="677"/>
      <point x="106" y="671"/>
      <point x="119" y="670" type="curve"/>
      <point x="183" y="668" type="line"/>
      <point x="106" y="40" type="line"/>
      <point x="41" y="38" type="line"/>
      <point x="28" y="37"/>
      <point x="20" y="31"/>
      <point x="19" y="20" type="curve"/>
      <point x="16" y="0" type="line"/>
      <point x="346" y="0" type="line" smooth="yes"/>
      <point x="552" y="0"/>
      <point x="699" y="137"/>
      <point x="727" y="354" type="curve" smooth="yes"/>
      <point x="754" y="560"/>
    </contour>
    <contour>
      <point x="532" y="41"/>
      <point x="351" y="41" type="curve" smooth="yes"/>
      <point x="157" y="41" type="line"/>
      <point x="234" y="666" type="line"/>
      <point x="428" y="666" type="line" smooth="yes"/>
      <point x="607" y="666"/>
      <point x="697" y="542"/>
      <point x="674" y="354" type="curve" smooth="yes"/>
      <point x="651" y="165"/>
    </contour>
    <contour>
      <point x="382" y="354" type="move" name="center"/>
    </contour>
    <contour>
      <point x="382" y="0" type="move" name="bottom"/>
    </contour>
    <contour>
      <point x="406" y="708" type="move" name="top"/>
    </contour>
  </outline>
</glyph>
<glyph name="E" format="1">
  <advance width="622"/>
  <unicode hex="0045"/>
  <note>
    E
  </note>
  <outline>
    <contour>
      <point x="103" y="707" type="line"/>
      <point x="101" y="688" type="line" smooth="yes"/>
      <point x="100" y="677"/>
      <point x="106" y="671"/>
      <point x="119" y="670" type="curve"/>
      <point x="183" y="668" type="line"/>
      <point x="106" y="40" type="line"/>
      <point x="41" y="38" type="line"/>
      <point x="28" y="37"/>
      <point x="20" y="31"/>
      <point x="19" y="20" type="curve"/>
      <point x="16" y="0" type="line"/>
      <point x="101" y="0" type="line"/>
      <point x="525" y="0" type="line"/>
      <point x="543" y="147" type="line"/>
      <point x="518" y="147" type="line" smooth="yes"/>
      <point x="504" y="147"/>
      <point x="497" y="138"/>
      <point x="494" y="122" type="curve"/>
      <point x="480" y="43" type="line"/>
      <point x="157" y="43" type="line"/>
      <point x="194" y="338" type="line"/>
      <point x="475" y="338" type="line"/>
      <point x="480" y="379" type="line"/>
      <point x="199" y="379" type="line"/>
      <point x="234" y="665" type="line"/>
      <point x="557" y="665" type="line"/>
      <point x="551" y="585" type="line"/>
      <point x="550" y="569"/>
      <point x="555" y="561"/>
      <point x="569" y="561" type="curve" smooth="yes"/>
      <point x="594" y="561" type="line"/>
      <point x="606" y="665" type="line"/>
      <point x="612" y="707" type="line"/>
    </contour>
    <contour>
      <point x="494" y="10" type="move" name="ogonek"/>
    </contour>
    <contour>
      <point x="382" y="708" type="move" name="top"/>
    </contour>
    <contour>
      <point x="20" y="708" type="move" name="topleft"/>
    </contour>
    <contour>
      <point x="311" y="0" type="move" name="bottom"/>
    </contour>
  </outline>
</glyph>
<glyph name="F" format="1">
  <advance width="629"/>
  <unicode hex="0046"/>
  <note>
    F
  </note>
  <outline>
    <contour>
      <point x="103" y="707" type="line"/>
      <point x="101" y="688" type="line" smooth="yes"/>
      <point x="100" y="677"/>
      <point x="106" y="671"/>
      <point x="119" y="670" type="curve"/>
      <point x="183" y="668" type="line"/>
      <point x="106" y="40" type="line"/>
      <point x="41" y="38" type="line"/>
      <point x="28" y="37"/>
      <point x="20" y="31"/>
      <point x="19" y="20" type="curve"/>
      <point x="16" y="0" type="line"/>
      <point x="236" y="0" type="line"/>
      <point x="239" y="20" type="line"/>
      <point x="240" y="31"/>
      <point x="234" y="37"/>
      <point x="221" y="38" type="curve"/>
      <point x="157" y="40" type="line"/>
      <point x="192" y="325" type="line"/>
      <point x="456" y="325" type="line"/>
      <point x="462" y="368" type="line"/>
      <point x="197" y="368" type="line"/>
      <point x="234" y="665" type="line"/>
      <point x="563" y="665" type="line"/>
      <point x="557" y="585" type="line"/>
      <point x="556" y="569"/>
      <point x="562" y="561"/>
      <point x="576" y="561" type="curve" smooth="yes"/>
      <point x="600" y="561" type="line"/>
      <point x="618" y="707" type="line"/>
    </contour>
    <contour>
      <point x="315" y="708" type="move" name="top"/>
    </contour>
    <contour>
      <point x="315" y="0" type="move" name="bottom"/>
    </contour>
  </outline>
</glyph>
<glyph name="G" format="1">
  <advance width="696"/>
  <unicode hex="0047"/>
  <note>
    G
  </note>
  <outline>
    <contour>
      <point x="449" y="321" type="line"/>
      <point x="446" y="294" type="line"/>
      <point x="445" y="286"/>
      <point x="448" y="282"/>
      <point x="457" y="282" type="curve" smooth="yes"/>
      <point x="593" y="282" type="line"/>
      <point x="570" y="91" type="line"/>
      <point x="490" y="49"/>
      <point x="434" y="34"/>
      <point x="345" y="34" type="curve" smooth="yes"/>
      <point x="163" y="34"/>
      <point x="67" y="162"/>
      <point x="90" y="354" type="curve" smooth="yes"/>
      <point x="113" y="545"/>
      <point x="242" y="671"/>
      <point x="430" y="671" type="curve" smooth="yes"/>
      <point x="514" y="671"/>
      <point x="579" y="660"/>
      <point x="625" y="637" type="curve"/>
      <point x="617" y="529" type="line"/>
      <point x="616" y="513"/>
      <point x="622" y="505"/>
      <point x="636" y="505" type="curve" smooth="yes"/>
      <point x="660" y="505" type="line"/>
      <point x="679" y="665" type="line"/>
      <point x="616" y="695"/>
      <point x="510" y="715"/>
      <point x="437" y="715" type="curve" smooth="yes"/>
      <point x="215" y="715"/>
      <point x="65" y="571"/>
      <point x="37" y="354" type="curve" smooth="yes"/>
      <point x="10" y="144"/>
      <point x="127" y="-8"/>
      <point x="336" y="-8" type="curve" smooth="yes"/>
      <point x="442" y="-8"/>
      <point x="525" y="14"/>
      <point x="614" y="70" type="curve"/>
      <point x="645" y="321" type="line"/>
    </contour>
    <contour>
      <point x="348" y="708" type="move" name="top"/>
    </contour>
    <contour>
      <point x="348" y="0" type="move" name="bottom"/>
    </contour>
  </outline>
</glyph>
<glyph name="H" format="1">
  <advance width="827"/>
  <unicode hex="0048"/>
  <note>
    H
  </note>
  <outline>
    <contour>
      <point x="793" y="671" type="line"/>
      <point x="806" y="672"/>
      <point x="814" y="678"/>
      <point x="815" y="689" type="curve"/>
      <point x="818" y="708" type="line"/>
      <point x="598" y="708" type="line"/>
      <point x="595" y="689" type="line"/>
      <point x="594" y="678"/>
      <point x="600" y="672"/>
      <point x="613" y="671" type="curve"/>
      <point x="677" y="669" type="line"/>
      <point x="642" y="378" type="line"/>
      <point x="199" y="378" type="line"/>
      <point x="234" y="669" type="line"/>
      <point x="299" y="671" type="line"/>
      <point x="312" y="672"/>
      <point x="320" y="678"/>
      <point x="321" y="689" type="curve" smooth="yes"/>
      <point x="323" y="708" type="line"/>
      <point x="103" y="708" type="line"/>
      <point x="101" y="689" type="line" smooth="yes"/>
      <point x="100" y="678"/>
      <point x="106" y="672"/>
      <point x="119" y="671" type="curve"/>
      <point x="183" y="669" type="line"/>
      <point x="106" y="40" type="line"/>
      <point x="41" y="38" type="line"/>
      <point x="28" y="37"/>
      <point x="20" y="31"/>
      <point x="19" y="20" type="curve"/>
      <point x="16" y="0" type="line"/>
      <point x="236" y="0" type="line"/>
      <point x="239" y="20" type="line"/>
      <point x="240" y="31"/>
      <point x="234" y="37"/>
      <point x="221" y="38" type="curve"/>
      <point x="157" y="40" type="line"/>
      <point x="194" y="339" type="line"/>
      <point x="637" y="339" type="line"/>
      <point x="600" y="40" type="line"/>
      <point x="535" y="38" type="line"/>
      <point x="522" y="37"/>
      <point x="514" y="31"/>
      <point x="513" y="20" type="curve" smooth="yes"/>
      <point x="511" y="0" type="line"/>
      <point x="731" y="0" type="line"/>
      <point x="733" y="20" type="line" smooth="yes"/>
      <point x="734" y="31"/>
      <point x="729" y="37"/>
      <point x="716" y="38" type="curve"/>
      <point x="652" y="40" type="line"/>
      <point x="729" y="669" type="line"/>
    </contour>
    <contour>
      <point x="414" y="0" type="move" name="bottom"/>
    </contour>
    <contour>
      <point x="414" y="708" type="move" name="top"/>
    </contour>
    <contour>
      <point x="20" y="708" type="move" name="topleft"/>
    </contour>
    <contour>
      <point x="414" y="354" type="move" name="center"/>
    </contour>
  </outline>
</glyph>
<glyph name="I" format="1">
  <advance width="332"/>
  <unicode hex="0049"/>
  <note>
    I
  </note>
  <outline>
    <contour>
      <point x="299" y="670" type="line"/>
      <point x="312" y="671"/>
      <point x="320" y="677"/>
      <point x="321" y="688" type="curve" smooth="yes"/>
      <point x="323" y="708" type="line"/>
      <point x="103" y="708" type="line"/>
      <point x="101" y="688" type="line" smooth="yes"/>
      <point x="100" y="677"/>
      <point x="106" y="671"/>
      <point x="119" y="670" type="curve"/>
      <point x="183" y="668" type="line"/>
      <point x="106" y="40" type="line"/>
      <point x="41" y="38" type="line"/>
      <point x="28" y="37"/>
      <point x="20" y="31"/>
      <point x="19" y="20" type="curve"/>
      <point x="16" y="0" type="line"/>
      <point x="236" y="0" type="line"/>
      <point x="239" y="20" type="line"/>
      <point x="240" y="31"/>
      <point x="234" y="37"/>
      <point x="221" y="38" type="curve"/>
      <point x="157" y="40" type="line"/>
      <point x="234" y="668" type="line"/>
    </contour>
    <contour>
      <point x="176" y="10" type="move" name="ogonek"/>
    </contour>
    <contour>
      <point x="214" y="708" type="move" name="top"/>
    </contour>
    <contour>
      <point x="20" y="708" type="move" name="topleft"/>
    </contour>
    <contour>
      <point x="129" y="0" type="move" name="bottom"/>
    </contour>
  </outline>
</glyph>
<glyph name="J" format="1">
  <advance width="503"/>
  <unicode hex="004A"/>
  <note>
    J
  </note>
  <outline>
    <contour>
      <point x="267" y="708" type="line"/>
      <point x="264" y="688" type="line"/>
      <point x="263" y="677"/>
      <point x="269" y="671"/>
      <point x="282" y="670" type="curve"/>
      <point x="353" y="668" type="line"/>
      <point x="300" y="235" type="line" smooth="yes"/>
      <point x="285" y="119"/>
      <point x="229" y="35"/>
      <point x="111" y="35" type="curve" smooth="yes"/>
      <point x="95" y="35"/>
      <point x="58" y="42"/>
      <point x="48" y="44" type="curve" smooth="yes"/>
      <point x="36" y="47"/>
      <point x="28" y="45"/>
      <point x="25" y="35" type="curve"/>
      <point x="19" y="7" type="line"/>
      <point x="46" y="-2"/>
      <point x="84" y="-8"/>
      <point x="110" y="-8" type="curve" smooth="yes"/>
      <point x="248" y="-8"/>
      <point x="333" y="87"/>
      <point x="352" y="236" type="curve" smooth="yes"/>
      <point x="405" y="668" type="line"/>
      <point x="469" y="670" type="line"/>
      <point x="482" y="671"/>
      <point x="490" y="677"/>
      <point x="491" y="688" type="curve"/>
      <point x="494" y="708" type="line"/>
    </contour>
    <contour>
      <point x="252" y="708" type="move" name="top"/>
    </contour>
    <contour>
      <point x="252" y="0" type="move" name="bottom"/>
    </contour>
  </outline>
</glyph>
<glyph name="K" format="1">
  <advance width="718"/>
  <unicode hex="004B"/>
  <note>
    K
  </note>
  <outline>
    <contour>
      <point x="293" y="400" type="line"/>
      <point x="277" y="384"/>
      <point x="265" y="381"/>
      <point x="241" y="381" type="curve" smooth="yes"/>
      <point x="199" y="381" type="line"/>
      <point x="234" y="669" type="line"/>
      <point x="239" y="708" type="line"/>
      <point x="188" y="708" type="line"/>
      <point x="183" y="669" type="line"/>
      <point x="106" y="40" type="line"/>
      <point x="101" y="0" type="line"/>
      <point x="152" y="0" type="line"/>
      <point x="157" y="40" type="line"/>
      <point x="194" y="341" type="line"/>
      <point x="239" y="341" type="line" smooth="yes"/>
      <point x="258" y="341"/>
      <point x="274" y="340"/>
      <point x="290" y="320" type="curve"/>
      <point x="531" y="39" type="line"/>
      <point x="564" y="0" type="line"/>
      <point x="623" y="0" type="line"/>
      <point x="590" y="39" type="line"/>
      <point x="338" y="340" type="line"/>
      <point x="331" y="349"/>
      <point x="320" y="361"/>
      <point x="306" y="365" type="curve"/>
      <point x="314" y="368"/>
      <point x="328" y="377"/>
      <point x="342" y="390" type="curve"/>
      <point x="647" y="669" type="line"/>
      <point x="692" y="708" type="line"/>
      <point x="634" y="708" type="line"/>
      <point x="589" y="669" type="line"/>
    </contour>
    <component base="serifBottom" xOffset="-23"/>
    <component base="serifBottom" xOffset="362" yOffset="708" xScale="-1" yScale="-1"/>
    <component base="serifBottom" xOffset="763" yOffset="708" xScale="-1" yScale="-1"/>
    <component base="serifBottom" xOffset="409"/>
    <contour>
      <point x="359" y="708" type="move" name="top"/>
    </contour>
    <contour>
      <point x="359" y="0" type="move" name="bottom"/>
    </contour>
  </outline>
</glyph>
<glyph name="L" format="1">
  <advance width="556"/>
  <unicode hex="004C"/>
  <note>
    L
  </note>
  <outline>
    <contour>
      <point x="488" y="132" type="line" smooth="yes"/>
      <point x="474" y="132"/>
      <point x="466" y="124"/>
      <point x="463" y="108" type="curve"/>
      <point x="450" y="44" type="line"/>
      <point x="157" y="44" type="line"/>
      <point x="234" y="669" type="line"/>
      <point x="298" y="671" type="line"/>
      <point x="311" y="672"/>
      <point x="319" y="678"/>
      <point x="320" y="689" type="curve"/>
      <point x="323" y="708" type="line"/>
      <point x="103" y="708" type="line"/>
      <point x="101" y="689" type="line" smooth="yes"/>
      <point x="100" y="678"/>
      <point x="106" y="672"/>
      <point x="119" y="671" type="curve"/>
      <point x="183" y="669" type="line"/>
      <point x="106" y="40" type="line"/>
      <point x="41" y="38" type="line"/>
      <point x="28" y="37"/>
      <point x="20" y="31"/>
      <point x="19" y="20" type="curve"/>
      <point x="16" y="0" type="line"/>
      <point x="496" y="0" type="line"/>
      <point x="512" y="132" type="line"/>
    </contour>
    <contour>
      <point x="278" y="0" type="move" name="bottom"/>
    </contour>
    <contour>
      <point x="216" y="708" type="move" name="top"/>
    </contour>
    <contour>
      <point x="494" y="708" type="move" name="topright"/>
    </contour>
    <contour>
      <point x="278" y="354" type="move" name="center"/>
    </contour>
  </outline>
</glyph>
<glyph name="P" format="1">
  <advance width="604"/>
  <unicode hex="0050"/>
  <note>
    P
  </note>
  <outline>
    <contour>
      <point x="602" y="640"/>
      <point x="518" y="707"/>
      <point x="360" y="707" type="curve" smooth="yes"/>
      <point x="103" y="707" type="line"/>
      <point x="101" y="688" type="line" smooth="yes"/>
      <point x="100" y="677"/>
      <point x="106" y="671"/>
      <point x="119" y="670" type="curve"/>
      <point x="183" y="668" type="line"/>
      <point x="106" y="40" type="line"/>
      <point x="41" y="38" type="line"/>
      <point x="28" y="37"/>
      <point x="20" y="31"/>
      <point x="19" y="20" type="curve"/>
      <point x="16" y="0" type="line"/>
      <point x="236" y="0" type="line"/>
      <point x="238" y="20" type="line" smooth="yes"/>
      <point x="239" y="31"/>
      <point x="234" y="37"/>
      <point x="221" y="38" type="curve"/>
      <point x="157" y="40" type="line"/>
      <point x="187" y="285" type="line"/>
      <point x="308" y="285" type="line" smooth="yes"/>
      <point x="450" y="285"/>
      <point x="567" y="363"/>
      <point x="585" y="497" type="curve" smooth="yes"/>
    </contour>
    <contour>
      <point x="522" y="393"/>
      <point x="431" y="326"/>
      <point x="313" y="326" type="curve" smooth="yes"/>
      <point x="192" y="326" type="line"/>
      <point x="234" y="667" type="line"/>
      <point x="355" y="667" type="line" smooth="yes"/>
      <point x="478" y="667"/>
      <point x="549" y="613"/>
      <point x="534" y="498" type="curve" smooth="yes"/>
    </contour>
    <contour>
      <point x="302" y="708" type="move" name="top"/>
    </contour>
    <contour>
      <point x="302" y="0" type="move" name="bottom"/>
    </contour>
  </outline>
</glyph>
<glyph name="S" format="1">
  <advance width="518"/>
  <unicode hex="0053"/>
  <note>
    S
  </note>
  <outline>
    <contour>
      <point x="474" y="308"/>
      <point x="409" y="352"/>
      <point x="304" y="386" type="curve" smooth="yes"/>
      <point x="196" y="420"/>
      <point x="135" y="451"/>
      <point x="145" y="536" type="curve" smooth="yes"/>
      <point x="154" y="616"/>
      <point x="227" y="673"/>
      <point x="319" y="673" type="curve" smooth="yes"/>
      <point x="367" y="673"/>
      <point x="410" y="665"/>
      <point x="448" y="648" type="curve"/>
      <point x="441" y="554" type="line"/>
      <point x="440" y="538"/>
      <point x="446" y="529"/>
      <point x="460" y="529" type="curve" smooth="yes"/>
      <point x="484" y="529" type="line"/>
      <point x="502" y="674" type="line"/>
      <point x="442" y="701"/>
      <point x="383" y="715"/>
      <point x="324" y="715" type="curve" smooth="yes"/>
      <point x="208" y="715"/>
      <point x="111" y="643"/>
      <point x="97" y="533" type="curve" smooth="yes"/>
      <point x="84" y="432"/>
      <point x="139" y="388"/>
      <point x="252" y="350" type="curve" smooth="yes"/>
      <point x="362" y="313"/>
      <point x="424" y="290"/>
      <point x="412" y="199" type="curve" smooth="yes"/>
      <point x="399" y="98"/>
      <point x="318" y="35"/>
      <point x="214" y="35" type="curve" smooth="yes"/>
      <point x="158" y="35"/>
      <point x="112" y="44"/>
      <point x="76" y="62" type="curve"/>
      <point x="84" y="165" type="line"/>
      <point x="85" y="181"/>
      <point x="79" y="189"/>
      <point x="65" y="189" type="curve" smooth="yes"/>
      <point x="41" y="189" type="line"/>
      <point x="22" y="31" type="line"/>
      <point x="80" y="5"/>
      <point x="141" y="-8"/>
      <point x="207" y="-8" type="curve" smooth="yes"/>
      <point x="336" y="-8"/>
      <point x="442" y="72"/>
      <point x="460" y="207" type="curve" smooth="yes"/>
    </contour>
    <contour>
      <point x="318" y="708" type="move" name="top"/>
    </contour>
    <contour>
      <point x="219" y="0" type="move" name="bottom"/>
    </contour>
  </outline>
</glyph>
<glyph name="U" format="1">
  <advance width="754"/>
  <unicode hex="0055"/>
  <note>
    U
  </note>
  <outline>
    <contour>
      <point x="467" y="-8"/>
      <point x="587" y="107"/>
      <point x="608" y="270" type="curve" smooth="yes"/>
      <point x="656" y="669" type="line"/>
      <point x="721" y="671" type="line"/>
      <point x="734" y="672"/>
      <point x="742" y="678"/>
      <point x="743" y="689" type="curve"/>
      <point x="746" y="708" type="line"/>
      <point x="514" y="708" type="line"/>
      <point x="511" y="689" type="line"/>
      <point x="510" y="678"/>
      <point x="516" y="672"/>
      <point x="529" y="671" type="curve"/>
      <point x="605" y="669" type="line"/>
      <point x="557" y="270" type="line" smooth="yes"/>
      <point x="541" y="135"/>
      <point x="444" y="36"/>
      <point x="311" y="36" type="curve" smooth="yes"/>
      <point x="178" y="36"/>
      <point x="107" y="136"/>
      <point x="123" y="270" type="curve" smooth="yes"/>
      <point x="172" y="669" type="line"/>
      <point x="249" y="671" type="line"/>
      <point x="262" y="672"/>
      <point x="270" y="678"/>
      <point x="271" y="689" type="curve"/>
      <point x="274" y="708" type="line"/>
      <point x="41" y="708" type="line"/>
      <point x="39" y="689" type="line" smooth="yes"/>
      <point x="38" y="678"/>
      <point x="43" y="672"/>
      <point x="56" y="671" type="curve"/>
      <point x="120" y="669" type="line"/>
      <point x="72" y="270" type="line" smooth="yes"/>
      <point x="51" y="113"/>
      <point x="140" y="-8"/>
      <point x="305" y="-8" type="curve" smooth="yes"/>
    </contour>
    <contour>
      <point x="398" y="10" type="move" name="ogonek"/>
    </contour>
    <contour>
      <point x="414" y="708" type="move" name="top"/>
    </contour>
    <contour>
      <point x="734" y="708" type="move" name="topright"/>
    </contour>
    <contour>
      <point x="377" y="0" type="move" name="bottom"/>
    </contour>
  </outline>
</glyph>
<glyph name="V" format="1">
  <advance width="755"/>
  <unicode hex="0056"/>
  <note>
    V
  </note>
  <outline>
    <contour>
      <point x="556" y="708" type="line"/>
      <point x="554" y="689" type="line" smooth="yes"/>
      <point x="553" y="678"/>
      <point x="558" y="672"/>
      <point x="571" y="671" type="curve"/>
      <point x="629" y="669" type="line"/>
      <point x="331" y="107" type="line" smooth="yes"/>
      <point x="323" y="92"/>
      <point x="316" y="76"/>
      <point x="310" y="58" type="curve"/>
      <point x="308" y="75"/>
      <point x="305" y="92"/>
      <point x="301" y="107" type="curve" smooth="yes"/>
      <point x="139" y="669" type="line"/>
      <point x="197" y="671" type="line"/>
      <point x="210" y="672"/>
      <point x="218" y="678"/>
      <point x="219" y="689" type="curve"/>
      <point x="222" y="708" type="line"/>
      <point x="32" y="708" type="line"/>
      <point x="30" y="689" type="line" smooth="yes"/>
      <point x="29" y="678"/>
      <point x="34" y="672"/>
      <point x="47" y="671" type="curve"/>
      <point x="86" y="669" type="line"/>
      <point x="279" y="0" type="line"/>
      <point x="325" y="0" type="line"/>
      <point x="683" y="669" type="line"/>
      <point x="722" y="671" type="line"/>
      <point x="735" y="672"/>
      <point x="743" y="678"/>
      <point x="744" y="689" type="curve" smooth="yes"/>
      <point x="746" y="708" type="line"/>
    </contour>
    <contour>
      <point x="378" y="708" type="move" name="top"/>
    </contour>
    <contour>
      <point x="378" y="0" type="move" name="bottom"/>
    </contour>
  </outline>
</glyph>
<glyph name="W" format="1">
  <advance width="1095"/>
  <unicode hex="0057"/>
  <note>
    W
  </note>
  <outline>
    <contour>
      <point x="896" y="708" type="line"/>
      <point x="894" y="689" type="line" smooth="yes"/>
      <point x="893" y="678"/>
      <point x="899" y="672"/>
      <point x="912" y="671" type="curve"/>
      <point x="973" y="669" type="line"/>
      <point x="734" y="113" type="line" smooth="yes"/>
      <point x="734" y="113"/>
      <point x="719" y="69"/>
      <point x="719" y="68" type="curve"/>
      <point x="713" y="113" type="line"/>
      <point x="585" y="695" type="line" smooth="yes"/>
      <point x="583" y="704"/>
      <point x="577" y="708"/>
      <point x="568" y="708" type="curve" smooth="yes"/>
      <point x="554" y="708" type="line" smooth="yes"/>
      <point x="545" y="708"/>
      <point x="537" y="702"/>
      <point x="533" y="695" type="curve" smooth="yes"/>
      <point x="262" y="112" type="line" smooth="yes"/>
      <point x="256" y="98"/>
      <point x="250" y="82"/>
      <point x="245" y="67" type="curve"/>
      <point x="245" y="82"/>
      <point x="243" y="99"/>
      <point x="241" y="113" type="curve"/>
      <point x="138" y="669" type="line"/>
      <point x="197" y="671" type="line"/>
      <point x="210" y="672"/>
      <point x="218" y="678"/>
      <point x="219" y="689" type="curve"/>
      <point x="222" y="708" type="line"/>
      <point x="32" y="708" type="line"/>
      <point x="30" y="689" type="line" smooth="yes"/>
      <point x="29" y="678"/>
      <point x="34" y="672"/>
      <point x="47" y="671" type="curve"/>
      <point x="82" y="669" type="line"/>
      <point x="210" y="0" type="line"/>
      <point x="256" y="0" type="line"/>
      <point x="541" y="615" type="line" smooth="yes"/>
      <point x="545" y="623"/>
      <point x="548" y="631"/>
      <point x="551" y="640" type="curve"/>
      <point x="552" y="631"/>
      <point x="553" y="623"/>
      <point x="555" y="615" type="curve" smooth="yes"/>
      <point x="688" y="0" type="line"/>
      <point x="734" y="0" type="line"/>
      <point x="1027" y="669" type="line"/>
      <point x="1062" y="671" type="line"/>
      <point x="1075" y="672"/>
      <point x="1083" y="678"/>
      <point x="1084" y="689" type="curve" smooth="yes"/>
      <point x="1086" y="708" type="line"/>
    </contour>
    <contour>
      <point x="548" y="708" type="move" name="top"/>
    </contour>
    <contour>
      <point x="548" y="0" type="move" name="bottom"/>
    </contour>
  </outline>
</glyph>
<glyph name="X" format="1">
  <advance width="750"/>
  <unicode hex="0058"/>
  <note>
    X
  </note>
  <outline>
    <contour>
      <point x="610" y="40" type="line"/>
      <point x="423" y="366" type="line"/>
      <point x="676" y="669" type="line"/>
      <point x="717" y="671" type="line"/>
      <point x="730" y="672"/>
      <point x="738" y="678"/>
      <point x="739" y="689" type="curve" smooth="yes"/>
      <point x="741" y="708" type="line"/>
      <point x="543" y="708" type="line"/>
      <point x="541" y="689" type="line" smooth="yes"/>
      <point x="540" y="678"/>
      <point x="545" y="672"/>
      <point x="558" y="671" type="curve"/>
      <point x="620" y="669" type="line"/>
      <point x="400" y="403" type="line"/>
      <point x="399" y="401"/>
      <point x="393" y="392"/>
      <point x="391" y="387" type="curve"/>
      <point x="231" y="669" type="line"/>
      <point x="286" y="671" type="line"/>
      <point x="299" y="672"/>
      <point x="307" y="678"/>
      <point x="308" y="689" type="curve"/>
      <point x="311" y="708" type="line"/>
      <point x="117" y="708" type="line"/>
      <point x="114" y="689" type="line"/>
      <point x="113" y="678"/>
      <point x="119" y="672"/>
      <point x="132" y="671" type="curve"/>
      <point x="172" y="669" type="line"/>
      <point x="350" y="363" type="line"/>
      <point x="83" y="40" type="line"/>
      <point x="42" y="38" type="line"/>
      <point x="29" y="37"/>
      <point x="21" y="31"/>
      <point x="20" y="20" type="curve" smooth="yes"/>
      <point x="18" y="0" type="line"/>
      <point x="216" y="0" type="line"/>
      <point x="219" y="20" type="line"/>
      <point x="220" y="31"/>
      <point x="214" y="37"/>
      <point x="201" y="38" type="curve"/>
      <point x="140" y="40" type="line"/>
      <point x="139" y="40" type="line"/>
      <point x="374" y="324" type="line" smooth="yes"/>
      <point x="378" y="329"/>
      <point x="381" y="333"/>
      <point x="383" y="338" type="curve"/>
      <point x="551" y="40" type="line"/>
      <point x="494" y="38" type="line"/>
      <point x="481" y="37"/>
      <point x="473" y="31"/>
      <point x="472" y="20" type="curve" smooth="yes"/>
      <point x="470" y="0" type="line"/>
      <point x="662" y="0" type="line"/>
      <point x="664" y="20" type="line" smooth="yes"/>
      <point x="665" y="31"/>
      <point x="659" y="37"/>
      <point x="646" y="38" type="curve"/>
    </contour>
    <contour>
      <point x="375" y="708" type="move" name="top"/>
    </contour>
    <contour>
      <point x="375" y="0" type="move" name="bottom"/>
    </contour>
  </outline>
</glyph>
<glyph name="Z" format="1">
  <advance width="638"/>
  <unicode hex="005A"/>
  <note>
    Z
  </note>
  <outline>
    <contour>
      <point x="629" y="708" type="line"/>
      <point x="118" y="708" type="line"/>
      <point x="99" y="557" type="line"/>
      <point x="124" y="557" type="line" smooth="yes"/>
      <point x="138" y="557"/>
      <point x="145" y="565"/>
      <point x="148" y="581" type="curve"/>
      <point x="165" y="666" type="line"/>
      <point x="556" y="666" type="line"/>
      <point x="28" y="36" type="line" smooth="yes"/>
      <point x="23" y="30"/>
      <point x="21" y="25"/>
      <point x="20" y="19" type="curve"/>
      <point x="18" y="0" type="line"/>
      <point x="538" y="0" type="line"/>
      <point x="557" y="152" type="line"/>
      <point x="532" y="152" type="line" smooth="yes"/>
      <point x="518" y="152"/>
      <point x="511" y="143"/>
      <point x="508" y="127" type="curve"/>
      <point x="491" y="42" type="line"/>
      <point x="91" y="42" type="line"/>
      <point x="617" y="670" type="line"/>
      <point x="622" y="677"/>
      <point x="626" y="684"/>
      <point x="627" y="691" type="curve" smooth="yes"/>
    </contour>
    <contour>
      <point x="361" y="708" type="move" name="top"/>
    </contour>
    <contour>
      <point x="292" y="0" type="move" name="bottom"/>
    </contour>
  </outline>
</glyph>
<glyph name="backslash" format="1">
  <advance width="327"/>
  <unicode hex="005C"/>
  <note>
    backslash
  </note>
  <outline>
    <contour>
      <point x="36" y="728" type="line"/>
      <point x="255" y="-22" type="line" smooth="yes"/>
      <point x="259" y="-35"/>
      <point x="269" y="-42"/>
      <point x="281" y="-42" type="curve" smooth="yes"/>
      <point x="301" y="-42" type="line"/>
      <point x="82" y="709" type="line"/>
      <point x="79" y="721"/>
      <point x="70" y="728"/>
      <point x="57" y="728" type="curve" smooth="yes"/>
    </contour>
  </outline>
</glyph>
<glyph name="b" format="1">
  <advance width="522"/>
  <unicode hex="0062"/>
  <note>
    b
  </note>
  <outline>
    <contour>
      <point x="456" y="506"/>
      <point x="320" y="506" type="curve" smooth="yes"/>
      <point x="248" y="506"/>
      <point x="186" y="469"/>
      <point x="134" y="411" type="curve"/>
      <point x="173" y="728" type="line"/>
      <point x="53" y="728" type="line"/>
      <point x="50" y="708" type="line"/>
      <point x="49" y="697"/>
      <point x="55" y="691"/>
      <point x="68" y="690" type="curve"/>
      <point x="120" y="688" type="line"/>
      <point x="38" y="22" type="line"/>
      <point x="124" y="3"/>
      <point x="189" y="-6"/>
      <point x="234" y="-6" type="curve" smooth="yes"/>
      <point x="374" y="-6"/>
      <point x="467" y="110"/>
      <point x="483" y="252" type="curve" smooth="yes"/>
      <point x="501" y="402"/>
    </contour>
    <contour>
      <point x="350" y="31"/>
      <point x="230" y="31" type="curve" smooth="yes"/>
      <point x="204" y="31"/>
      <point x="158" y="38"/>
      <point x="90" y="52" type="curve"/>
      <point x="129" y="371" type="line"/>
      <point x="175" y="426"/>
      <point x="231" y="468"/>
      <point x="302" y="468" type="curve" smooth="yes"/>
      <point x="415" y="468"/>
      <point x="450" y="384"/>
      <point x="434" y="252" type="curve" smooth="yes"/>
      <point x="418" y="124"/>
    </contour>
    <contour>
      <point x="261" y="498" type="move" name="top"/>
    </contour>
    <contour>
      <point x="261" y="0" type="move" name="bottom"/>
    </contour>
  </outline>
</glyph>
<glyph name="c" format="1">
  <advance width="448"/>
  <unicode hex="0063"/>
  <note>
    c
  </note>
  <outline>
    <contour>
      <point x="380" y="80" type="line" smooth="yes"/>
      <point x="375" y="87"/>
      <point x="367" y="87"/>
      <point x="355" y="77" type="curve" smooth="yes"/>
      <point x="324" y="50"/>
      <point x="274" y="31"/>
      <point x="224" y="31" type="curve" smooth="yes"/>
      <point x="111" y="31"/>
      <point x="63" y="120"/>
      <point x="78" y="249" type="curve" smooth="yes"/>
      <point x="93" y="370"/>
      <point x="160" y="468"/>
      <point x="284" y="468" type="curve" smooth="yes"/>
      <point x="309" y="468"/>
      <point x="337" y="462"/>
      <point x="367" y="451" type="curve"/>
      <point x="367" y="452"/>
      <point x="363" y="369"/>
      <point x="363" y="373" type="curve"/>
      <point x="362" y="357"/>
      <point x="368" y="349"/>
      <point x="382" y="349" type="curve" smooth="yes"/>
      <point x="406" y="349" type="line"/>
      <point x="422" y="474" type="line"/>
      <point x="398" y="484"/>
      <point x="351" y="505"/>
      <point x="286" y="505" type="curve" smooth="yes"/>
      <point x="137" y="505"/>
      <point x="51" y="400"/>
      <point x="30" y="249" type="curve" smooth="yes"/>
      <point x="12" y="102"/>
      <point x="75" y="-7"/>
      <point x="212" y="-7" type="curve" smooth="yes"/>
      <point x="273" y="-7"/>
      <point x="348" y="16"/>
      <point x="391" y="64" type="curve"/>
    </contour>
    <contour>
      <point x="287" y="498" type="move" name="top"/>
    </contour>
    <contour>
      <point x="224" y="0" type="move" name="bottom"/>
    </contour>
  </outline>
</glyph>
<glyph name="d" format="1">
  <advance width="533"/>
  <unicode hex="0064"/>
  <note>
    d
  </note>
  <outline>
    <contour>
      <point x="485" y="20" type="line"/>
      <point x="486" y="31"/>
      <point x="480" y="37"/>
      <point x="467" y="38" type="curve"/>
      <point x="421" y="39" type="line"/>
      <point x="505" y="728" type="line"/>
      <point x="385" y="728" type="line"/>
      <point x="383" y="708" type="line" smooth="yes"/>
      <point x="382" y="697"/>
      <point x="388" y="691"/>
      <point x="401" y="690" type="curve"/>
      <point x="453" y="688" type="line"/>
      <point x="421" y="433" type="line"/>
      <point x="389" y="484"/>
      <point x="341" y="506"/>
      <point x="279" y="506" type="curve" smooth="yes"/>
      <point x="139" y="506"/>
      <point x="46" y="392"/>
      <point x="30" y="248" type="curve" smooth="yes"/>
      <point x="12" y="97"/>
      <point x="56" y="-6"/>
      <point x="193" y="-6" type="curve" smooth="yes"/>
      <point x="268" y="-6"/>
      <point x="328" y="31"/>
      <point x="381" y="92" type="curve"/>
      <point x="377" y="13" type="line"/>
      <point x="377" y="4"/>
      <point x="382" y="0"/>
      <point x="390" y="0" type="curve" smooth="yes"/>
      <point x="483" y="0" type="line"/>
    </contour>
    <contour>
      <point x="384" y="129" type="line"/>
      <point x="338" y="74"/>
      <point x="282" y="32"/>
      <point x="211" y="32" type="curve" smooth="yes"/>
      <point x="93" y="32"/>
      <point x="64" y="121"/>
      <point x="79" y="248" type="curve" smooth="yes"/>
      <point x="95" y="369"/>
      <point x="159" y="469"/>
      <point x="283" y="469" type="curve" smooth="yes"/>
      <point x="345" y="469"/>
      <point x="385" y="445"/>
      <point x="416" y="391" type="curve"/>
    </contour>
    <contour>
      <point x="267" y="0" type="move" name="bottom"/>
    </contour>
    <contour>
      <point x="267" y="498" type="move" name="top"/>
    </contour>
    <contour>
      <point x="488" y="498" type="move" name="topright"/>
    </contour>
    <contour>
      <point x="410" y="582" type="move" name="center"/>
    </contour>
  </outline>
</glyph>
<glyph name="e" format="1">
  <advance width="438"/>
  <unicode hex="0065"/>
  <note>
    e
  </note>
  <outline>
    <contour>
      <point x="410" y="463"/>
      <point x="352" y="504"/>
      <point x="277" y="504" type="curve" smooth="yes"/>
      <point x="128" y="504"/>
      <point x="26" y="352"/>
      <point x="26" y="189" type="curve" smooth="yes"/>
      <point x="26" y="77"/>
      <point x="81" y="-6"/>
      <point x="199" y="-6" type="curve" smooth="yes"/>
      <point x="279" y="-6"/>
      <point x="343" y="28"/>
      <point x="397" y="92" type="curve"/>
      <point x="386" y="105" type="line"/>
      <point x="379" y="112"/>
      <point x="370" y="112"/>
      <point x="363" y="105" type="curve" smooth="yes"/>
      <point x="304" y="53"/>
      <point x="277" y="31"/>
      <point x="207" y="31" type="curve" smooth="yes"/>
      <point x="114" y="31"/>
      <point x="72" y="95"/>
      <point x="72" y="190" type="curve" smooth="yes"/>
      <point x="72" y="195"/>
      <point x="74" y="229"/>
      <point x="74" y="231" type="curve"/>
      <point x="210" y="247"/>
      <point x="410" y="268"/>
      <point x="410" y="402" type="curve" smooth="yes"/>
    </contour>
    <contour>
      <point x="328" y="469"/>
      <point x="368" y="445"/>
      <point x="368" y="401" type="curve" smooth="yes"/>
      <point x="368" y="299"/>
      <point x="199" y="278"/>
      <point x="80" y="264" type="curve"/>
      <point x="100" y="369"/>
      <point x="169" y="469"/>
      <point x="275" y="469" type="curve" smooth="yes"/>
    </contour>
    <contour>
      <point x="394" y="10" type="move" name="ogonek"/>
    </contour>
    <contour>
      <point x="219" y="0" type="move" name="bottom"/>
    </contour>
    <contour>
      <point x="275" y="498" type="move" name="top"/>
    </contour>
  </outline>
</glyph>
<glyph name="f" format="1">
  <advance width="474"/>
  <unicode hex="0066"/>
  <note>
    f
  </note>
  <outline>
    <contour>
      <point x="429" y="716"/>
      <point x="407" y="716" type="curve" smooth="yes"/>
      <point x="305" y="716"/>
      <point x="244" y="644"/>
      <point x="233" y="545" type="curve" smooth="yes"/>
      <point x="226" y="482" type="line"/>
      <point x="141" y="482" type="line"/>
      <point x="139" y="462" type="line" smooth="yes"/>
      <point x="138" y="454"/>
      <point x="142" y="451"/>
      <point x="152" y="450" type="curve" smooth="yes"/>
      <point x="221" y="445" type="line"/>
      <point x="167" y="2" type="line" smooth="yes"/>
      <point x="156" y="-86"/>
      <point x="105" y="-146"/>
      <point x="22" y="-146" type="curve" smooth="yes"/>
      <point x="10" y="-146"/>
      <point x="4" y="-151"/>
      <point x="4" y="-162" type="curve" smooth="yes"/>
      <point x="4" y="-186" type="line"/>
      <point x="128" y="-186"/>
      <point x="198" y="-121"/>
      <point x="214" y="1" type="curve" smooth="yes"/>
      <point x="269" y="446" type="line"/>
      <point x="429" y="446" type="line"/>
      <point x="434" y="482" type="line"/>
      <point x="272" y="482" type="line"/>
      <point x="280" y="543" type="line" smooth="yes"/>
      <point x="290" y="623"/>
      <point x="325" y="679"/>
      <point x="409" y="679" type="curve" smooth="yes"/>
      <point x="419" y="679"/>
      <point x="427" y="678"/>
      <point x="434" y="677" type="curve" smooth="yes"/>
      <point x="451" y="674"/>
      <point x="459" y="677"/>
      <point x="461" y="686" type="curve" smooth="yes"/>
      <point x="465" y="706" type="line"/>
      <point x="445" y="714"/>
    </contour>
    <contour>
      <point x="237" y="498" type="move" name="top"/>
    </contour>
    <contour>
      <point x="237" y="0" type="move" name="bottom"/>
    </contour>
  </outline>
</glyph>
<glyph name="h" format="1">
  <advance width="549"/>
  <unicode hex="0068"/>
  <note>
    h
  </note>
  <outline>
    <contour>
      <point x="433" y="40" type="line"/>
      <point x="468" y="318" type="line" smooth="yes"/>
      <point x="483" y="426"/>
      <point x="439" y="505"/>
      <point x="325" y="505" type="curve" smooth="yes"/>
      <point x="252" y="505"/>
      <point x="189" y="469"/>
      <point x="136" y="412" type="curve"/>
      <point x="174" y="727" type="line"/>
      <point x="55" y="727" type="line"/>
      <point x="52" y="708" type="line"/>
      <point x="51" y="697"/>
      <point x="57" y="691"/>
      <point x="70" y="690" type="curve"/>
      <point x="122" y="688" type="line"/>
      <point x="38" y="0" type="line"/>
      <point x="85" y="0" type="line"/>
      <point x="131" y="373" type="line"/>
      <point x="180" y="427"/>
      <point x="236" y="467"/>
      <point x="308" y="467" type="curve" smooth="yes"/>
      <point x="399" y="467"/>
      <point x="432" y="410"/>
      <point x="420" y="318" type="curve" smooth="yes"/>
      <point x="381" y="0" type="line"/>
      <point x="501" y="0" type="line"/>
      <point x="503" y="20" type="line" smooth="yes"/>
      <point x="504" y="31"/>
      <point x="499" y="37"/>
      <point x="486" y="38" type="curve"/>
    </contour>
    <contour>
      <point x="275" y="249" type="move" name="center"/>
    </contour>
    <contour>
      <point x="275" y="0" type="move" name="bottom"/>
    </contour>
    <contour>
      <point x="275" y="498" type="move" name="top"/>
    </contour>
  </outline>
</glyph>
<glyph name="j" format="1">
  <advance width="310"/>
  <unicode hex="006A"/>
  <note>
    j
  </note>
  <outline>
    <contour>
      <point x="134" y="498" type="line"/>
      <point x="132" y="479" type="line" smooth="yes"/>
      <point x="131" y="468"/>
      <point x="137" y="462"/>
      <point x="150" y="461" type="curve"/>
      <point x="202" y="459" type="line"/>
      <point x="138" y="-63" type="line" smooth="yes"/>
      <point x="132" y="-113"/>
      <point x="104" y="-148"/>
      <point x="48" y="-148" type="curve" smooth="yes"/>
      <point x="40" y="-148"/>
      <point x="33" y="-147"/>
      <point x="28" y="-146" type="curve" smooth="yes"/>
      <point x="23" y="-145"/>
      <point x="11" y="-140"/>
      <point x="9" y="-150" type="curve"/>
      <point x="4" y="-174" type="line"/>
      <point x="17" y="-181"/>
      <point x="34" y="-184"/>
      <point x="51" y="-184" type="curve" smooth="yes"/>
      <point x="127" y="-184"/>
      <point x="176" y="-138"/>
      <point x="185" y="-63" type="curve" smooth="yes"/>
      <point x="254" y="498" type="line"/>
    </contour>
    <component base="dotaccent" xOffset="89" yOffset="-4"/>
  </outline>
</glyph>
<glyph name="k" format="1">
  <advance width="492"/>
  <unicode hex="006B"/>
  <note>
    k
  </note>
  <outline>
    <contour>
      <point x="324" y="498" type="line"/>
      <point x="321" y="478" type="line"/>
      <point x="320" y="467"/>
      <point x="326" y="461"/>
      <point x="339" y="460" type="curve"/>
      <point x="364" y="459" type="line"/>
      <point x="171" y="295" type="line" smooth="yes"/>
      <point x="165" y="290"/>
      <point x="156" y="284"/>
      <point x="143" y="284" type="curve" smooth="yes"/>
      <point x="120" y="284" type="line"/>
      <point x="174" y="727" type="line"/>
      <point x="127" y="727" type="line"/>
      <point x="55" y="727" type="line"/>
      <point x="52" y="708" type="line"/>
      <point x="51" y="697"/>
      <point x="57" y="691"/>
      <point x="70" y="690" type="curve"/>
      <point x="122" y="688" type="line"/>
      <point x="38" y="0" type="line"/>
      <point x="85" y="0" type="line"/>
      <point x="116" y="251" type="line"/>
      <point x="138" y="251" type="line" smooth="yes"/>
      <point x="157" y="251"/>
      <point x="162" y="249"/>
      <point x="174" y="235" type="curve" smooth="yes"/>
      <point x="355" y="11" type="line"/>
      <point x="358" y="7"/>
      <point x="366" y="0"/>
      <point x="377" y="0" type="curve"/>
      <point x="441" y="0" type="line"/>
      <point x="443" y="20" type="line" smooth="yes"/>
      <point x="444" y="31"/>
      <point x="439" y="37"/>
      <point x="426" y="38" type="curve"/>
      <point x="388" y="39" type="line"/>
      <point x="209" y="263" type="line"/>
      <point x="209" y="263"/>
      <point x="202" y="271"/>
      <point x="197" y="272" type="curve"/>
      <point x="202" y="274"/>
      <point x="218" y="289"/>
      <point x="218" y="289" type="curve"/>
      <point x="417" y="458" type="line"/>
      <point x="453" y="460" type="line"/>
      <point x="466" y="461"/>
      <point x="474" y="467"/>
      <point x="475" y="478" type="curve"/>
      <point x="478" y="498" type="line"/>
    </contour>
    <contour>
      <point x="246" y="498" type="move" name="top"/>
    </contour>
    <contour>
      <point x="246" y="0" type="move" name="bottom"/>
    </contour>
  </outline>
</glyph>
<glyph name="m" format="1">
  <advance width="820"/>
  <unicode hex="006D"/>
  <note>
    m
  </note>
  <outline>
    <contour>
      <point x="701" y="40" type="line"/>
      <point x="735" y="318" type="line" smooth="yes"/>
      <point x="749" y="425"/>
      <point x="709" y="505"/>
      <point x="599" y="505" type="curve" smooth="yes"/>
      <point x="522" y="505"/>
      <point x="461" y="463"/>
      <point x="426" y="385" type="curve"/>
      <point x="420" y="456"/>
      <point x="386" y="505"/>
      <point x="309" y="505" type="curve" smooth="yes"/>
      <point x="243" y="505"/>
      <point x="187" y="464"/>
      <point x="147" y="413" type="curve"/>
      <point x="151" y="486" type="line"/>
      <point x="151" y="494"/>
      <point x="147" y="498"/>
      <point x="138" y="498" type="curve" smooth="yes"/>
      <point x="40" y="498" type="line"/>
      <point x="37" y="479" type="line"/>
      <point x="36" y="468"/>
      <point x="42" y="462"/>
      <point x="55" y="461" type="curve"/>
      <point x="107" y="459" type="line"/>
      <point x="51" y="0" type="line"/>
      <point x="98" y="0" type="line"/>
      <point x="144" y="376" type="line"/>
      <point x="179" y="424"/>
      <point x="234" y="468"/>
      <point x="292" y="468" type="curve" smooth="yes"/>
      <point x="373" y="468"/>
      <point x="398" y="406"/>
      <point x="387" y="318" type="curve" smooth="yes"/>
      <point x="348" y="0" type="line"/>
      <point x="396" y="0" type="line"/>
      <point x="435" y="318" type="line"/>
      <point x="443" y="398"/>
      <point x="500" y="467"/>
      <point x="585" y="467" type="curve" smooth="yes"/>
      <point x="666" y="467"/>
      <point x="699" y="410"/>
      <point x="688" y="318" type="curve" smooth="yes"/>
      <point x="649" y="0" type="line"/>
      <point x="769" y="0" type="line"/>
      <point x="771" y="20" type="line" smooth="yes"/>
      <point x="772" y="31"/>
      <point x="766" y="37"/>
      <point x="753" y="38" type="curve"/>
    </contour>
    <contour>
      <point x="410" y="498" type="move" name="top"/>
    </contour>
    <contour>
      <point x="410" y="0" type="move" name="bottom"/>
    </contour>
  </outline>
</glyph>
<glyph name="n" format="1">
  <advance width="565"/>
  <unicode hex="006E"/>
  <note>
    n
  </note>
  <outline>
    <contour>
      <point x="447" y="40" type="line"/>
      <point x="481" y="319" type="line" smooth="yes"/>
      <point x="494" y="427"/>
      <point x="452" y="506"/>
      <point x="338" y="506" type="curve" smooth="yes"/>
      <point x="263" y="506"/>
      <point x="198" y="468"/>
      <point x="147" y="411" type="curve"/>
      <point x="151" y="486" type="line"/>
      <point x="151" y="494"/>
      <point x="147" y="498"/>
      <point x="138" y="498" type="curve" smooth="yes"/>
      <point x="40" y="498" type="line"/>
      <point x="37" y="479" type="line"/>
      <point x="36" y="468"/>
      <point x="42" y="462"/>
      <point x="55" y="461" type="curve"/>
      <point x="107" y="459" type="line"/>
      <point x="51" y="0" type="line"/>
      <point x="98" y="0" type="line"/>
      <point x="144" y="374" type="line"/>
      <point x="192" y="428"/>
      <point x="251" y="468"/>
      <point x="322" y="468" type="curve" smooth="yes"/>
      <point x="413" y="468"/>
      <point x="444" y="410"/>
      <point x="433" y="319" type="curve" smooth="yes"/>
      <point x="394" y="0" type="line"/>
      <point x="514" y="0" type="line"/>
      <point x="516" y="20" type="line" smooth="yes"/>
      <point x="517" y="31"/>
      <point x="512" y="37"/>
      <point x="499" y="38" type="curve"/>
    </contour>
    <contour>
      <point x="283" y="498" type="move" name="top"/>
    </contour>
    <contour>
      <point x="283" y="0" type="move" name="bottom"/>
    </contour>
  </outline>
</glyph>
<glyph name="o" format="1">
  <advance width="522"/>
  <unicode hex="006F"/>
  <note>
    o
  </note>
  <outline>
    <contour>
      <point x="144" y="506"/>
      <point x="50" y="405"/>
      <point x="30" y="249" type="curve" smooth="yes"/>
      <point x="11" y="99"/>
      <point x="79" y="-6"/>
      <point x="225" y="-6" type="curve" smooth="yes"/>
      <point x="370" y="-6"/>
      <point x="463" y="94"/>
      <point x="483" y="249" type="curve" smooth="yes"/>
      <point x="502" y="400"/>
      <point x="432" y="506"/>
      <point x="288" y="506" type="curve" smooth="yes"/>
    </contour>
    <contour>
      <point x="111" y="31"/>
      <point x="63" y="117"/>
      <point x="79" y="249" type="curve" smooth="yes"/>
      <point x="94" y="372"/>
      <point x="158" y="468"/>
      <point x="283" y="468" type="curve" smooth="yes"/>
      <point x="405" y="468"/>
      <point x="450" y="378"/>
      <point x="434" y="249" type="curve" smooth="yes"/>
      <point x="418" y="125"/>
      <point x="355" y="31"/>
      <point x="230" y="31" type="curve" smooth="yes"/>
    </contour>
    <contour>
      <point x="261" y="0" type="move" name="bottom"/>
    </contour>
    <contour>
      <point x="470" y="10" type="move" name="ogonek"/>
    </contour>
    <contour>
      <point x="287" y="498" type="move" name="top"/>
    </contour>
    <contour>
      <point x="502" y="498" type="move" name="topright"/>
    </contour>
    <contour>
      <point x="261" y="249" type="move" name="center"/>
    </contour>
  </outline>
</glyph>
<glyph name="q" format="1">
  <advance width="513"/>
  <unicode hex="0071"/>
  <note>
    q
  </note>
  <outline>
    <contour>
      <point x="400" y="-137" type="line"/>
      <point x="476" y="477" type="line"/>
      <point x="390" y="496"/>
      <point x="325" y="505"/>
      <point x="280" y="505" type="curve" smooth="yes"/>
      <point x="140" y="505"/>
      <point x="47" y="389"/>
      <point x="31" y="247" type="curve" smooth="yes"/>
      <point x="13" y="96"/>
      <point x="58" y="-6"/>
      <point x="194" y="-6" type="curve" smooth="yes"/>
      <point x="265" y="-6"/>
      <point x="325" y="27"/>
      <point x="380" y="88" type="curve"/>
      <point x="353" y="-137" type="line"/>
      <point x="300" y="-139" type="line"/>
      <point x="287" y="-140"/>
      <point x="279" y="-146"/>
      <point x="278" y="-157" type="curve" smooth="yes"/>
      <point x="276" y="-176" type="line"/>
      <point x="468" y="-176" type="line"/>
      <point x="470" y="-157" type="line" smooth="yes"/>
      <point x="471" y="-146"/>
      <point x="466" y="-140"/>
      <point x="453" y="-139" type="curve"/>
    </contour>
    <contour>
      <point x="385" y="128" type="line"/>
      <point x="338" y="72"/>
      <point x="284" y="32"/>
      <point x="212" y="32" type="curve" smooth="yes"/>
      <point x="95" y="32"/>
      <point x="65" y="120"/>
      <point x="80" y="247" type="curve" smooth="yes"/>
      <point x="96" y="375"/>
      <point x="165" y="468"/>
      <point x="285" y="468" type="curve" smooth="yes"/>
      <point x="311" y="468"/>
      <point x="357" y="461"/>
      <point x="425" y="447" type="curve"/>
    </contour>
    <contour>
      <point x="257" y="498" type="move" name="top"/>
    </contour>
    <contour>
      <point x="257" y="0" type="move" name="bottom"/>
    </contour>
  </outline>
</glyph>
<glyph name="r" format="1">
  <advance width="411"/>
  <unicode hex="0072"/>
  <note>
    r
  </note>
  <outline>
    <contour>
      <point x="348" y="506"/>
      <point x="321" y="506" type="curve" smooth="yes"/>
      <point x="241" y="506"/>
      <point x="186" y="459"/>
      <point x="143" y="377" type="curve"/>
      <point x="151" y="483" type="line"/>
      <point x="151" y="492"/>
      <point x="152" y="498"/>
      <point x="137" y="498" type="curve" smooth="yes"/>
      <point x="40" y="498" type="line"/>
      <point x="37" y="479" type="line"/>
      <point x="36" y="468"/>
      <point x="42" y="462"/>
      <point x="55" y="461" type="curve"/>
      <point x="107" y="459" type="line"/>
      <point x="51" y="0" type="line"/>
      <point x="98" y="0" type="line"/>
      <point x="138" y="323" type="line"/>
      <point x="175" y="405"/>
      <point x="227" y="459"/>
      <point x="306" y="459" type="curve" smooth="yes"/>
      <point x="337" y="459"/>
      <point x="343" y="456"/>
      <point x="366" y="448" type="curve" smooth="yes"/>
      <point x="372" y="446"/>
      <point x="381" y="443"/>
      <point x="386" y="454" type="curve"/>
      <point x="396" y="487" type="line"/>
      <point x="372" y="500"/>
    </contour>
    <contour>
      <point x="236" y="498" type="move" name="top"/>
    </contour>
    <contour>
      <point x="77" y="0" type="move" name="bottom"/>
    </contour>
  </outline>
</glyph>
<glyph name="s" format="1">
  <advance width="416"/>
  <unicode hex="0073"/>
  <note>
    s
  </note>
  <outline>
    <contour>
      <point x="326" y="249"/>
      <point x="242" y="274" type="curve" smooth="yes"/>
      <point x="165" y="298"/>
      <point x="108" y="316"/>
      <point x="116" y="374" type="curve" smooth="yes"/>
      <point x="125" y="433"/>
      <point x="185" y="469"/>
      <point x="248" y="469" type="curve" smooth="yes"/>
      <point x="274" y="469"/>
      <point x="299" y="465"/>
      <point x="325" y="456" type="curve"/>
      <point x="323" y="384" type="line"/>
      <point x="322" y="368"/>
      <point x="327" y="360"/>
      <point x="341" y="360" type="curve" smooth="yes"/>
      <point x="365" y="360" type="line"/>
      <point x="380" y="479" type="line"/>
      <point x="330" y="497"/>
      <point x="287" y="505"/>
      <point x="251" y="505" type="curve" smooth="yes"/>
      <point x="162" y="505"/>
      <point x="79" y="451"/>
      <point x="70" y="371" type="curve" smooth="yes"/>
      <point x="59" y="299"/>
      <point x="112" y="267"/>
      <point x="193" y="243" type="curve" smooth="yes"/>
      <point x="268" y="221"/>
      <point x="327" y="199"/>
      <point x="319" y="138" type="curve" smooth="yes"/>
      <point x="309" y="66"/>
      <point x="249" y="27"/>
      <point x="178" y="27" type="curve" smooth="yes"/>
      <point x="140" y="27"/>
      <point x="108" y="32"/>
      <point x="82" y="43" type="curve"/>
      <point x="85" y="117" type="line"/>
      <point x="86" y="133"/>
      <point x="81" y="141"/>
      <point x="67" y="141" type="curve" smooth="yes"/>
      <point x="42" y="141" type="line"/>
      <point x="28" y="20" type="line"/>
      <point x="74" y="2"/>
      <point x="121" y="-8"/>
      <point x="171" y="-8" type="curve" smooth="yes"/>
      <point x="270" y="-8"/>
      <point x="352" y="51"/>
      <point x="365" y="146" type="curve"/>
      <point x="373" y="213"/>
    </contour>
    <contour>
      <point x="208" y="498" type="move" name="top"/>
    </contour>
    <contour>
      <point x="208" y="0" type="move" name="bottom"/>
    </contour>
  </outline>
</glyph>
<glyph name="t" format="1">
  <advance width="332"/>
  <unicode hex="0074"/>
  <note>
    t
  </note>
  <outline>
    <contour>
      <point x="196" y="-8"/>
      <point x="246" y="9"/>
      <point x="275" y="38" type="curve"/>
      <point x="266" y="58" type="line"/>
      <point x="262" y="66"/>
      <point x="254" y="65"/>
      <point x="247" y="59" type="curve" smooth="yes"/>
      <point x="235" y="49"/>
      <point x="201" y="31"/>
      <point x="175" y="31" type="curve" smooth="yes"/>
      <point x="131" y="31"/>
      <point x="110" y="63"/>
      <point x="116" y="109" type="curve" smooth="yes"/>
      <point x="157" y="446" type="line"/>
      <point x="314" y="446" type="line"/>
      <point x="318" y="482" type="line"/>
      <point x="162" y="482" type="line"/>
      <point x="185" y="672" type="line"/>
      <point x="162" y="672" type="line" smooth="yes"/>
      <point x="155" y="672"/>
      <point x="150" y="666"/>
      <point x="148" y="660" type="curve"/>
      <point x="115" y="482" type="line"/>
      <point x="29" y="476" type="line"/>
      <point x="27" y="458" type="line"/>
      <point x="27" y="449"/>
      <point x="31" y="446"/>
      <point x="38" y="446" type="curve" smooth="yes"/>
      <point x="109" y="446" type="line"/>
      <point x="67" y="106" type="line" smooth="yes"/>
      <point x="58" y="33"/>
      <point x="89" y="-8"/>
      <point x="160" y="-8" type="curve" smooth="yes"/>
    </contour>
    <contour>
      <point x="166" y="0" type="move" name="bottom"/>
    </contour>
    <contour>
      <point x="166" y="498" type="move" name="top"/>
    </contour>
    <contour>
      <point x="167" y="498" type="move" name="topright"/>
    </contour>
    <contour>
      <point x="166" y="249" type="move" name="center"/>
    </contour>
  </outline>
</glyph>
<glyph name="w" format="1">
  <advance width="842"/>
  <unicode hex="0077"/>
  <note>
    w
  </note>
  <outline>
    <contour>
      <point x="653" y="498" type="line"/>
      <point x="651" y="479" type="line" smooth="yes"/>
      <point x="650" y="468"/>
      <point x="655" y="462"/>
      <point x="668" y="461" type="curve"/>
      <point x="720" y="459" type="line"/>
      <point x="558" y="93" type="line"/>
      <point x="552" y="78"/>
      <point x="547" y="64"/>
      <point x="542" y="50" type="curve"/>
      <point x="541" y="64"/>
      <point x="538" y="78"/>
      <point x="535" y="93" type="curve" smooth="yes"/>
      <point x="452" y="489" type="line"/>
      <point x="451" y="496"/>
      <point x="446" y="500"/>
      <point x="439" y="500" type="curve" smooth="yes"/>
      <point x="420" y="500" type="line" smooth="yes"/>
      <point x="413" y="500"/>
      <point x="407" y="496"/>
      <point x="404" y="489" type="curve" smooth="yes"/>
      <point x="222" y="93" type="line" smooth="yes"/>
      <point x="217" y="82"/>
      <point x="209" y="66"/>
      <point x="204" y="50" type="curve"/>
      <point x="204" y="66"/>
      <point x="202" y="79"/>
      <point x="200" y="93" type="curve"/>
      <point x="128" y="459" type="line"/>
      <point x="180" y="461" type="line"/>
      <point x="193" y="462"/>
      <point x="201" y="468"/>
      <point x="202" y="479" type="curve"/>
      <point x="205" y="498" type="line"/>
      <point x="31" y="498" type="line"/>
      <point x="28" y="479" type="line"/>
      <point x="27" y="468"/>
      <point x="33" y="462"/>
      <point x="46" y="461" type="curve"/>
      <point x="79" y="460" type="line"/>
      <point x="176" y="0" type="line"/>
      <point x="209" y="0" type="line" smooth="yes"/>
      <point x="215" y="0"/>
      <point x="220" y="4"/>
      <point x="223" y="11" type="curve" smooth="yes"/>
      <point x="410" y="415" type="line"/>
      <point x="421" y="446" type="line"/>
      <point x="426" y="415" type="line"/>
      <point x="513" y="11" type="line"/>
      <point x="514" y="4"/>
      <point x="518" y="0"/>
      <point x="523" y="0" type="curve" smooth="yes"/>
      <point x="558" y="0" type="line"/>
      <point x="768" y="460" type="line"/>
      <point x="803" y="461" type="line"/>
      <point x="816" y="462"/>
      <point x="824" y="468"/>
      <point x="825" y="479" type="curve" smooth="yes"/>
      <point x="827" y="498" type="line"/>
    </contour>
    <contour>
      <point x="433" y="498" type="move" name="top"/>
    </contour>
    <contour>
      <point x="407" y="0" type="move" name="bottom"/>
    </contour>
  </outline>
</glyph>
<glyph name="x" format="1">
  <advance width="556"/>
  <unicode hex="0078"/>
  <note>
    x
  </note>
  <outline>
    <contour>
      <point x="442" y="39" type="line"/>
      <point x="315" y="257" type="line"/>
      <point x="486" y="460" type="line"/>
      <point x="517" y="461" type="line"/>
      <point x="530" y="462"/>
      <point x="537" y="467"/>
      <point x="539" y="479" type="curve"/>
      <point x="542" y="498" type="line"/>
      <point x="394" y="498" type="line"/>
      <point x="391" y="479" type="line"/>
      <point x="390" y="468"/>
      <point x="396" y="462"/>
      <point x="409" y="461" type="curve"/>
      <point x="435" y="460" type="line"/>
      <point x="299" y="294" type="line" smooth="yes"/>
      <point x="294" y="288"/>
      <point x="290" y="282"/>
      <point x="288" y="276" type="curve"/>
      <point x="184" y="460" type="line"/>
      <point x="208" y="461" type="line"/>
      <point x="221" y="462"/>
      <point x="229" y="468"/>
      <point x="230" y="479" type="curve"/>
      <point x="233" y="498" type="line"/>
      <point x="85" y="498" type="line"/>
      <point x="82" y="479" type="line"/>
      <point x="81" y="468"/>
      <point x="87" y="462"/>
      <point x="100" y="461" type="curve"/>
      <point x="130" y="460" type="line"/>
      <point x="251" y="255" type="line"/>
      <point x="71" y="39" type="line"/>
      <point x="44" y="38" type="line"/>
      <point x="31" y="37"/>
      <point x="23" y="31"/>
      <point x="22" y="20" type="curve" smooth="yes"/>
      <point x="20" y="0" type="line"/>
      <point x="167" y="0" type="line"/>
      <point x="170" y="20" type="line"/>
      <point x="171" y="31"/>
      <point x="165" y="37"/>
      <point x="152" y="38" type="curve"/>
      <point x="122" y="39" type="line"/>
      <point x="270" y="216" type="line" smooth="yes"/>
      <point x="274" y="221"/>
      <point x="277" y="225"/>
      <point x="279" y="232" type="curve"/>
      <point x="389" y="39" type="line"/>
      <point x="361" y="38" type="line"/>
      <point x="348" y="37"/>
      <point x="340" y="31"/>
      <point x="339" y="20" type="curve" smooth="yes"/>
      <point x="337" y="0" type="line"/>
      <point x="485" y="0" type="line"/>
      <point x="487" y="20" type="line" smooth="yes"/>
      <point x="488" y="31"/>
      <point x="483" y="37"/>
      <point x="470" y="38" type="curve"/>
    </contour>
    <contour>
      <point x="278" y="498" type="move" name="top"/>
    </contour>
    <contour>
      <point x="278" y="0" type="move" name="bottom"/>
    </contour>
  </outline>
</glyph>
<glyph name="z" format="1">
  <advance width="477"/>
  <unicode hex="007A"/>
  <note>
    z
  </note>
  <outline>
    <contour>
      <point x="393" y="125" type="line" smooth="yes"/>
      <point x="379" y="125"/>
      <point x="372" y="117"/>
      <point x="369" y="101" type="curve"/>
      <point x="355" y="37" type="line"/>
      <point x="83" y="37" type="line"/>
      <point x="446" y="459" type="line" smooth="yes"/>
      <point x="451" y="465"/>
      <point x="454" y="471"/>
      <point x="455" y="478" type="curve" smooth="yes"/>
      <point x="458" y="498" type="line"/>
      <point x="98" y="498" type="line"/>
      <point x="82" y="369" type="line"/>
      <point x="106" y="369" type="line" smooth="yes"/>
      <point x="120" y="369"/>
      <point x="128" y="377"/>
      <point x="131" y="393" type="curve"/>
      <point x="145" y="461" type="line"/>
      <point x="397" y="461" type="line"/>
      <point x="33" y="37" type="line" smooth="yes"/>
      <point x="27" y="30"/>
      <point x="24" y="25"/>
      <point x="23" y="19" type="curve" smooth="yes"/>
      <point x="20" y="0" type="line"/>
      <point x="402" y="0" type="line"/>
      <point x="417" y="125" type="line"/>
    </contour>
    <contour>
      <point x="239" y="498" type="move" name="top"/>
    </contour>
    <contour>
      <point x="239" y="0" type="move" name="bottom"/>
    </contour>
  </outline>
</glyph>
<glyph name="braceleft" format="1">
  <advance width="318"/>
  <unicode hex="007B"/>
  <note>
    braceleft
  </note>
  <outline>
    <contour>
      <point x="111" y="247"/>
      <point x="88" y="169" type="curve" smooth="yes"/>
      <point x="91" y="178"/>
      <point x="60" y="83"/>
      <point x="55" y="65" type="curve" smooth="yes"/>
      <point x="23" y="-49"/>
      <point x="58" y="-132"/>
      <point x="166" y="-132" type="curve" smooth="yes"/>
      <point x="194" y="-132" type="line"/>
      <point x="196" y="-111" type="line"/>
      <point x="196" y="-104"/>
      <point x="191" y="-100"/>
      <point x="185" y="-100" type="curve" smooth="yes"/>
      <point x="169" y="-100" type="line" smooth="yes"/>
      <point x="89" y="-100"/>
      <point x="70" y="-30"/>
      <point x="96" y="63" type="curve" smooth="yes"/>
      <point x="106" y="98"/>
      <point x="117" y="126"/>
      <point x="129" y="169" type="curve" smooth="yes"/>
      <point x="148" y="238"/>
      <point x="147" y="297"/>
      <point x="77" y="313" type="curve"/>
      <point x="137" y="325"/>
      <point x="173" y="385"/>
      <point x="165" y="457" type="curve" smooth="yes"/>
      <point x="161" y="493"/>
      <point x="161" y="514"/>
      <point x="158" y="563" type="curve" smooth="yes"/>
      <point x="152" y="655"/>
      <point x="190" y="726"/>
      <point x="270" y="726" type="curve" smooth="yes"/>
      <point x="287" y="726" type="line" smooth="yes"/>
      <point x="293" y="726"/>
      <point x="299" y="731"/>
      <point x="300" y="738" type="curve"/>
      <point x="303" y="758" type="line"/>
      <point x="276" y="758" type="line" smooth="yes"/>
      <point x="171" y="758"/>
      <point x="109" y="680"/>
      <point x="116" y="562" type="curve" smooth="yes"/>
      <point x="118" y="521"/>
      <point x="122" y="479"/>
      <point x="123" y="457" type="curve" smooth="yes"/>
      <point x="128" y="380"/>
      <point x="103" y="328"/>
      <point x="34" y="328" type="curve"/>
      <point x="30" y="298" type="line"/>
      <point x="98" y="298"/>
    </contour>
  </outline>
</glyph>
<glyph name="exclamdown" format="1">
  <advance width="224"/>
  <unicode hex="00A1"/>
  <note>
    exclamdown
  </note>
  <outline>
    <contour>
      <point x="37" y="-176" type="line"/>
      <point x="84" y="-176" type="line"/>
      <point x="117" y="99" type="line"/>
      <point x="132" y="277" type="line"/>
      <point x="100" y="277" type="line"/>
      <point x="71" y="99" type="line"/>
    </contour>
    <contour>
      <point x="156" y="413"/>
      <point x="180" y="435"/>
      <point x="182" y="460" type="curve" smooth="yes"/>
      <point x="185" y="484"/>
      <point x="168" y="506"/>
      <point x="142" y="506" type="curve" smooth="yes"/>
      <point x="116" y="506"/>
      <point x="92" y="484"/>
      <point x="90" y="460" type="curve" smooth="yes"/>
      <point x="88" y="435"/>
      <point x="105" y="413"/>
      <point x="131" y="413" type="curve" smooth="yes"/>
    </contour>
  </outline>
</glyph>
<glyph name="cent" format="1">
  <advance width="458"/>
  <unicode hex="00A2"/>
  <note>
    cent
  </note>
  <outline>
    <contour>
      <point x="387" y="80" type="line" smooth="yes"/>
      <point x="382" y="87"/>
      <point x="373" y="86"/>
      <point x="362" y="77" type="curve" smooth="yes"/>
      <point x="317" y="40"/>
      <point x="274" y="32"/>
      <point x="217" y="32" type="curve"/>
      <point x="236" y="139" type="line"/>
      <point x="292" y="467" type="line"/>
      <point x="293" y="468" type="line"/>
      <point x="317" y="468"/>
      <point x="344" y="462"/>
      <point x="374" y="451" type="curve"/>
      <point x="371" y="373" type="line"/>
      <point x="370" y="357"/>
      <point x="376" y="349"/>
      <point x="390" y="349" type="curve" smooth="yes"/>
      <point x="414" y="349" type="line"/>
      <point x="429" y="474" type="line"/>
      <point x="389" y="487"/>
      <point x="326" y="502"/>
      <point x="299" y="505" type="curve"/>
      <point x="320" y="624" type="line"/>
      <point x="302" y="624" type="line" smooth="yes"/>
      <point x="292" y="624"/>
      <point x="287" y="618"/>
      <point x="285" y="608" type="curve"/>
      <point x="267" y="505" type="line"/>
      <point x="267" y="504" type="line"/>
      <point x="141" y="495"/>
      <point x="56" y="390"/>
      <point x="37" y="249" type="curve" smooth="yes"/>
      <point x="23" y="131"/>
      <point x="62" y="19"/>
      <point x="179" y="-3" type="curve"/>
      <point x="168" y="-68" type="line"/>
      <point x="158" y="-126" type="line"/>
      <point x="176" y="-126" type="line" smooth="yes"/>
      <point x="185" y="-126"/>
      <point x="191" y="-120"/>
      <point x="193" y="-111" type="curve"/>
      <point x="211" y="-6" type="line"/>
      <point x="281" y="-6"/>
      <point x="351" y="11"/>
      <point x="398" y="64" type="curve"/>
    </contour>
    <contour>
      <point x="75" y="152"/>
      <point x="86" y="249" type="curve" smooth="yes"/>
      <point x="99" y="360"/>
      <point x="159" y="453"/>
      <point x="261" y="466" type="curve"/>
      <point x="186" y="37" type="line"/>
      <point x="98" y="59"/>
    </contour>
  </outline>
</glyph>
<glyph name="sterling" format="1">
  <advance width="600"/>
  <unicode hex="00A3"/>
  <note>
    sterling
  </note>
  <outline>
    <contour>
      <point x="51" y="316" type="line"/>
      <point x="151" y="316" type="line"/>
      <point x="131" y="153" type="line" smooth="yes"/>
      <point x="124" y="97"/>
      <point x="83" y="49"/>
      <point x="28" y="32" type="curve"/>
      <point x="24" y="0" type="line"/>
      <point x="509" y="0" type="line" smooth="yes"/>
      <point x="522" y="0"/>
      <point x="531" y="9"/>
      <point x="534" y="22" type="curve"/>
      <point x="536" y="42" type="line"/>
      <point x="143" y="42" type="line" smooth="yes"/>
      <point x="124" y="42"/>
      <point x="106" y="40"/>
      <point x="98" y="38" type="curve"/>
      <point x="145" y="66"/>
      <point x="173" y="104"/>
      <point x="181" y="164" type="curve" smooth="yes"/>
      <point x="200" y="316" type="line"/>
      <point x="424" y="316" type="line" smooth="yes"/>
      <point x="434" y="316"/>
      <point x="441" y="322"/>
      <point x="441" y="330" type="curve"/>
      <point x="443" y="350" type="line"/>
      <point x="204" y="350" type="line"/>
      <point x="222" y="496" type="line" smooth="yes"/>
      <point x="234" y="599"/>
      <point x="296" y="674"/>
      <point x="401" y="674" type="curve" smooth="yes"/>
      <point x="466" y="674"/>
      <point x="499" y="651"/>
      <point x="528" y="592" type="curve"/>
      <point x="534" y="583"/>
      <point x="544" y="582"/>
      <point x="553" y="586" type="curve"/>
      <point x="573" y="597" type="line"/>
      <point x="548" y="676"/>
      <point x="490" y="715"/>
      <point x="406" y="715" type="curve" smooth="yes"/>
      <point x="276" y="715"/>
      <point x="190" y="627"/>
      <point x="173" y="496" type="curve" smooth="yes"/>
      <point x="155" y="349" type="line"/>
      <point x="73" y="349" type="line" smooth="yes"/>
      <point x="66" y="349"/>
      <point x="56" y="346"/>
      <point x="53" y="332" type="curve"/>
    </contour>
  </outline>
</glyph>
<glyph name="currency" format="1">
  <advance width="538"/>
  <unicode hex="00A4"/>
  <note>
    currency
  </note>
  <outline>
    <contour>
      <point x="91" y="298"/>
      <point x="100" y="258"/>
      <point x="121" y="226" type="curve"/>
      <point x="35" y="150" type="line"/>
      <point x="56" y="125" type="line"/>
      <point x="143" y="202" type="line"/>
      <point x="172" y="177"/>
      <point x="208" y="164"/>
      <point x="247" y="164" type="curve" smooth="yes"/>
      <point x="286" y="164"/>
      <point x="329" y="179"/>
      <point x="360" y="202" type="curve"/>
      <point x="427" y="125" type="line"/>
      <point x="456" y="150" type="line"/>
      <point x="388" y="227" type="line"/>
      <point x="412" y="253"/>
      <point x="434" y="294"/>
      <point x="440" y="335" type="curve" smooth="yes"/>
      <point x="446" y="374"/>
      <point x="436" y="411"/>
      <point x="414" y="444" type="curve"/>
      <point x="500" y="521" type="line"/>
      <point x="479" y="546" type="line"/>
      <point x="392" y="469" type="line"/>
      <point x="362" y="494"/>
      <point x="328" y="507"/>
      <point x="289" y="507" type="curve" smooth="yes"/>
      <point x="248" y="507"/>
      <point x="208" y="493"/>
      <point x="175" y="468" type="curve"/>
      <point x="108" y="545" type="line"/>
      <point x="80" y="520" type="line"/>
      <point x="148" y="443" type="line"/>
      <point x="118" y="411"/>
      <point x="102" y="379"/>
      <point x="96" y="336" type="curve" smooth="yes"/>
    </contour>
    <contour>
      <point x="139" y="402"/>
      <point x="208" y="472"/>
      <point x="284" y="472" type="curve" smooth="yes"/>
      <point x="357" y="472"/>
      <point x="412" y="415"/>
      <point x="404" y="336" type="curve" smooth="yes"/>
      <point x="396" y="263"/>
      <point x="324" y="200"/>
      <point x="251" y="200" type="curve" smooth="yes"/>
      <point x="180" y="200"/>
      <point x="123" y="259"/>
      <point x="132" y="335" type="curve" smooth="yes"/>
    </contour>
  </outline>
</glyph>
<glyph name="brokenbar" format="1">
  <advance width="210"/>
  <unicode hex="00A6"/>
  <note>
    brokenbar
  </note>
  <outline>
    <contour>
      <point x="140" y="758" type="line"/>
      <point x="92" y="370" type="line"/>
      <point x="130" y="370" type="line"/>
      <point x="178" y="758" type="line"/>
    </contour>
    <contour>
      <point x="73" y="212" type="line"/>
      <point x="26" y="-176" type="line"/>
      <point x="63" y="-176" type="line"/>
      <point x="111" y="212" type="line"/>
    </contour>
  </outline>
</glyph>
<glyph name="section" format="1">
  <advance width="471"/>
  <unicode hex="00A7"/>
  <note>
    section
  </note>
  <outline>
    <contour>
      <point x="439" y="662" type="line"/>
      <point x="403" y="700"/>
      <point x="355" y="716"/>
      <point x="300" y="716" type="curve" smooth="yes"/>
      <point x="214" y="716"/>
      <point x="128" y="662"/>
      <point x="119" y="580" type="curve" smooth="yes"/>
      <point x="114" y="536"/>
      <point x="133" y="500"/>
      <point x="168" y="475" type="curve"/>
      <point x="110" y="456"/>
      <point x="64" y="418"/>
      <point x="57" y="357" type="curve" smooth="yes"/>
      <point x="48" y="280"/>
      <point x="105" y="247"/>
      <point x="191" y="209" type="curve" smooth="yes"/>
      <point x="269" y="174"/>
      <point x="334" y="149"/>
      <point x="326" y="80" type="curve" smooth="yes"/>
      <point x="318" y="10"/>
      <point x="258" y="-31"/>
      <point x="184" y="-31" type="curve" smooth="yes"/>
      <point x="135" y="-31"/>
      <point x="104" y="-17"/>
      <point x="69" y="12" type="curve" smooth="yes"/>
      <point x="60" y="20"/>
      <point x="49" y="23"/>
      <point x="39" y="12" type="curve"/>
      <point x="25" y="-5" type="line"/>
      <point x="67" y="-47"/>
      <point x="116" y="-66"/>
      <point x="176" y="-66" type="curve" smooth="yes"/>
      <point x="277" y="-66"/>
      <point x="355" y="-8"/>
      <point x="369" y="88" type="curve" smooth="yes"/>
      <point x="375" y="132"/>
      <point x="358" y="161"/>
      <point x="322" y="190" type="curve"/>
      <point x="373" y="211"/>
      <point x="413" y="253"/>
      <point x="419" y="311" type="curve"/>
      <point x="430" y="387"/>
      <point x="369" y="426"/>
      <point x="293" y="463" type="curve" smooth="yes"/>
      <point x="215" y="500"/>
      <point x="155" y="523"/>
      <point x="162" y="582" type="curve" smooth="yes"/>
      <point x="172" y="644"/>
      <point x="233" y="679"/>
      <point x="297" y="679" type="curve" smooth="yes"/>
      <point x="342" y="679"/>
      <point x="354" y="673"/>
      <point x="402" y="645" type="curve"/>
      <point x="409" y="639"/>
      <point x="418" y="635"/>
      <point x="427" y="646" type="curve" smooth="yes"/>
    </contour>
    <contour>
      <point x="105" y="413"/>
      <point x="144" y="438"/>
      <point x="194" y="459" type="curve"/>
      <point x="203" y="454"/>
      <point x="241" y="436"/>
      <point x="279" y="418" type="curve" smooth="yes"/>
      <point x="339" y="389"/>
      <point x="384" y="363"/>
      <point x="376" y="301" type="curve" smooth="yes"/>
      <point x="371" y="254"/>
      <point x="342" y="225"/>
      <point x="298" y="206" type="curve"/>
      <point x="282" y="216"/>
      <point x="240" y="236"/>
      <point x="207" y="251" type="curve" smooth="yes"/>
      <point x="141" y="281"/>
      <point x="93" y="311"/>
      <point x="100" y="363" type="curve"/>
    </contour>
  </outline>
</glyph>
<glyph name="logicalnot" format="1">
  <advance width="540"/>
  <unicode hex="00AC"/>
  <note>
    logicalnot
  </note>
  <outline>
    <contour>
      <point x="62" y="354" type="line"/>
      <point x="58" y="317" type="line"/>
      <point x="431" y="317" type="line"/>
      <point x="413" y="170" type="line"/>
      <point x="454" y="170" type="line"/>
      <point x="476" y="354" type="line"/>
    </contour>
  </outline>
</glyph>
<glyph name="registered" format="1">
  <advance width="807"/>
  <unicode hex="00AE"/>
  <note>
    registered
  </note>
  <outline>
    <contour>
      <point x="19" y="156"/>
      <point x="161" y="-7"/>
      <point x="360" y="-7" type="curve" smooth="yes"/>
      <point x="555" y="-7"/>
      <point x="740" y="151"/>
      <point x="765" y="354" type="curve" smooth="yes"/>
      <point x="789" y="553"/>
      <point x="648" y="715"/>
      <point x="449" y="715" type="curve" smooth="yes"/>
      <point x="251" y="715"/>
      <point x="67" y="551"/>
      <point x="44" y="354" type="curve" smooth="yes"/>
    </contour>
    <contour>
      <point x="97" y="539"/>
      <point x="260" y="688"/>
      <point x="445" y="688" type="curve" smooth="yes"/>
      <point x="630" y="688"/>
      <point x="761" y="536"/>
      <point x="737" y="354" type="curve" smooth="yes"/>
      <point x="713" y="168"/>
      <point x="548" y="20"/>
      <point x="363" y="20" type="curve" smooth="yes"/>
      <point x="178" y="20"/>
      <point x="50" y="173"/>
      <point x="73" y="354" type="curve" smooth="yes"/>
    </contour>
    <contour>
      <point x="310" y="328" type="line"/>
      <point x="365" y="328" type="line" smooth="yes"/>
      <point x="379" y="328"/>
      <point x="388" y="326"/>
      <point x="394" y="316" type="curve"/>
      <point x="507" y="141" type="line" smooth="yes"/>
      <point x="510" y="136"/>
      <point x="513" y="133"/>
      <point x="522" y="133" type="curve" smooth="yes"/>
      <point x="562" y="133" type="line"/>
      <point x="442" y="317" type="line"/>
      <point x="438" y="325"/>
      <point x="431" y="334"/>
      <point x="424" y="337" type="curve"/>
      <point x="495" y="346"/>
      <point x="553" y="386"/>
      <point x="562" y="459" type="curve" smooth="yes"/>
      <point x="573" y="545"/>
      <point x="514" y="576"/>
      <point x="421" y="576" type="curve" smooth="yes"/>
      <point x="298" y="576" type="line"/>
      <point x="244" y="133" type="line"/>
      <point x="286" y="133" type="line"/>
    </contour>
    <contour>
      <point x="314" y="360" type="line"/>
      <point x="336" y="542" type="line"/>
      <point x="417" y="542" type="line" smooth="yes"/>
      <point x="486" y="542"/>
      <point x="529" y="524"/>
      <point x="520" y="454" type="curve" smooth="yes"/>
      <point x="511" y="388"/>
      <point x="459" y="360"/>
      <point x="388" y="360" type="curve" smooth="yes"/>
    </contour>
  </outline>
</glyph>
<glyph name="macron" format="1">
  <advance width="318"/>
  <unicode hex="00AF"/>
  <note>
    macron
  </note>
  <outline>
    <contour>
      <point x="71" y="643" type="line"/>
      <point x="68" y="611" type="line"/>
      <point x="339" y="611" type="line"/>
      <point x="343" y="643" type="line"/>
    </contour>
  </outline>
</glyph>
<glyph name="plusminus" format="1">
  <advance width="574"/>
  <unicode hex="00B1"/>
  <note>
    plusminus
  </note>
  <outline>
    <contour>
      <point x="350" y="576" type="line"/>
      <point x="311" y="576" type="line"/>
      <point x="286" y="374" type="line"/>
      <point x="71" y="374" type="line"/>
      <point x="66" y="337" type="line"/>
      <point x="281" y="337" type="line"/>
      <point x="257" y="136" type="line"/>
      <point x="296" y="136" type="line"/>
      <point x="320" y="337" type="line"/>
      <point x="536" y="337" type="line"/>
      <point x="540" y="374" type="line"/>
      <point x="325" y="374" type="line"/>
    </contour>
    <contour>
      <point x="34" y="76" type="line"/>
      <point x="30" y="40" type="line"/>
      <point x="500" y="40" type="line"/>
      <point x="504" y="76" type="line"/>
    </contour>
  </outline>
</glyph>
<glyph name="twosuperior" format="1">
  <advance width="338"/>
  <unicode hex="00B2"/>
  <note>
    twosuperior
  </note>
  <outline>
    <contour>
      <point x="275" y="528" type="line" smooth="yes"/>
      <point x="263" y="528"/>
      <point x="258" y="521"/>
      <point x="254" y="507" type="curve"/>
      <point x="248" y="483" type="line"/>
      <point x="131" y="483" type="line" smooth="yes"/>
      <point x="119" y="483"/>
      <point x="101" y="481"/>
      <point x="91" y="478" type="curve"/>
      <point x="208" y="583" type="line"/>
      <point x="272" y="641"/>
      <point x="293" y="664"/>
      <point x="300" y="714" type="curve" smooth="yes"/>
      <point x="308" y="775"/>
      <point x="268" y="812"/>
      <point x="206" y="812" type="curve" smooth="yes"/>
      <point x="147" y="812"/>
      <point x="97" y="778"/>
      <point x="79" y="713" type="curve"/>
      <point x="98" y="709" type="line"/>
      <point x="105" y="709"/>
      <point x="111" y="709"/>
      <point x="116" y="719" type="curve" smooth="yes"/>
      <point x="137" y="760"/>
      <point x="162" y="781"/>
      <point x="201" y="781" type="curve" smooth="yes"/>
      <point x="241" y="781"/>
      <point x="268" y="760"/>
      <point x="264" y="712" type="curve" smooth="yes"/>
      <point x="260" y="672"/>
      <point x="226" y="636"/>
      <point x="182" y="596" type="curve" smooth="yes"/>
      <point x="50" y="477" type="line"/>
      <point x="47" y="475"/>
      <point x="41" y="469"/>
      <point x="41" y="460" type="curve"/>
      <point x="40" y="450" type="line"/>
      <point x="276" y="450" type="line"/>
      <point x="286" y="528" type="line"/>
    </contour>
  </outline>
</glyph>
<glyph name="periodcentered" format="1">
  <advance width="226"/>
  <unicode hex="00B7"/>
  <note>
    periodcentered
  </note>
  <outline>
    <contour>
      <point x="136" y="245"/>
      <point x="163" y="269"/>
      <point x="165" y="297" type="curve" smooth="yes"/>
      <point x="168" y="324"/>
      <point x="149" y="348"/>
      <point x="121" y="348" type="curve" smooth="yes"/>
      <point x="92" y="348"/>
      <point x="65" y="324"/>
      <point x="63" y="297" type="curve" smooth="yes"/>
      <point x="61" y="269"/>
      <point x="80" y="245"/>
      <point x="108" y="245" type="curve" smooth="yes"/>
    </contour>
  </outline>
</glyph>
<glyph name="onesuperior" format="1">
  <advance width="270"/>
  <unicode hex="00B9"/>
  <note>
    onesuperior
  </note>
  <outline>
    <contour>
      <point x="48" y="474" type="line"/>
      <point x="45" y="450" type="line"/>
      <point x="234" y="450" type="line"/>
      <point x="237" y="474" type="line"/>
      <point x="164" y="474" type="line"/>
      <point x="205" y="809" type="line"/>
      <point x="176" y="809" type="line"/>
      <point x="59" y="717" type="line"/>
      <point x="68" y="702" type="line"/>
      <point x="73" y="696"/>
      <point x="79" y="696"/>
      <point x="85" y="700" type="curve"/>
      <point x="164" y="763" type="line"/>
      <point x="160" y="744" type="line"/>
      <point x="127" y="474" type="line"/>
    </contour>
  </outline>
</glyph>
<glyph name="ordmasculine" format="1">
  <advance width="388"/>
  <unicode hex="00BA"/>
  <note>
    ordmasculine
  </note>
  <outline>
    <contour>
      <point x="127" y="714"/>
      <point x="70" y="657"/>
      <point x="57" y="564" type="curve" smooth="yes"/>
      <point x="46" y="476"/>
      <point x="88" y="414"/>
      <point x="182" y="414" type="curve" smooth="yes"/>
      <point x="269" y="414"/>
      <point x="331" y="468"/>
      <point x="343" y="564" type="curve" smooth="yes"/>
      <point x="354" y="651"/>
      <point x="312" y="714"/>
      <point x="219" y="714" type="curve" smooth="yes"/>
    </contour>
    <contour>
      <point x="114" y="442"/>
      <point x="85" y="489"/>
      <point x="95" y="564" type="curve" smooth="yes"/>
      <point x="104" y="636"/>
      <point x="141" y="686"/>
      <point x="216" y="686" type="curve" smooth="yes"/>
      <point x="287" y="686"/>
      <point x="315" y="637"/>
      <point x="305" y="564" type="curve" smooth="yes"/>
      <point x="296" y="493"/>
      <point x="259" y="442"/>
      <point x="186" y="442" type="curve" smooth="yes"/>
    </contour>
  </outline>
</glyph>
<glyph name="onequarter" format="1">
  <advance width="642"/>
  <unicode hex="00BC"/>
  <note>
    onequarter
  </note>
  <outline>
    <contour>
      <point x="595" y="708" type="line"/>
      <point x="574" y="708" type="line" smooth="yes"/>
      <point x="562" y="708"/>
      <point x="551" y="701"/>
      <point x="544" y="690" type="curve" smooth="yes"/>
      <point x="59" y="0" type="line"/>
      <point x="79" y="0" type="line" smooth="yes"/>
      <point x="93" y="0"/>
      <point x="101" y="5"/>
      <point x="109" y="16" type="curve" smooth="yes"/>
    </contour>
    <component base="onesuperior" xOffset="-12" yOffset="-99"/>
    <component base="foursuperior"/>
  </outline>
</glyph>
<glyph name="threequarters" format="1">
  <advance width="676"/>
  <unicode hex="00BE"/>
  <note>
    threequarters
  </note>
  <outline>
    <contour>
      <point x="632" y="707" type="line"/>
      <point x="611" y="707" type="line" smooth="yes"/>
      <point x="597" y="707"/>
      <point x="589" y="701"/>
      <point x="581" y="690" type="curve" smooth="yes"/>
      <point x="97" y="0" type="line"/>
      <point x="117" y="0" type="line" smooth="yes"/>
      <point x="129" y="0"/>
      <point x="139" y="5"/>
      <point x="146" y="15" type="curve" smooth="yes"/>
    </contour>
    <component base="threesuperior" xOffset="-8" yOffset="-99"/>
    <component base="foursuperior" xOffset="33"/>
  </outline>
</glyph>
<glyph name="questiondown" format="1">
  <advance width="398"/>
  <unicode hex="00BF"/>
  <note>
    questiondown
  </note>
  <outline>
    <contour>
      <point x="349" y="-96" type="line" smooth="yes"/>
      <point x="342" y="-85"/>
      <point x="333" y="-87"/>
      <point x="324" y="-95" type="curve" smooth="yes"/>
      <point x="288" y="-127"/>
      <point x="242" y="-142"/>
      <point x="195" y="-142" type="curve" smooth="yes"/>
      <point x="126" y="-142"/>
      <point x="72" y="-102"/>
      <point x="80" y="-28" type="curve" smooth="yes"/>
      <point x="88" y="32"/>
      <point x="123" y="67"/>
      <point x="176" y="99" type="curve" smooth="yes"/>
      <point x="222" y="127"/>
      <point x="261" y="150"/>
      <point x="267" y="190" type="curve"/>
      <point x="275" y="277" type="line"/>
      <point x="243" y="277" type="line"/>
      <point x="227" y="196" type="line" smooth="yes"/>
      <point x="223" y="170"/>
      <point x="203" y="157"/>
      <point x="175" y="140" type="curve" smooth="yes"/>
      <point x="95" y="91"/>
      <point x="43" y="50"/>
      <point x="34" y="-32" type="curve" smooth="yes"/>
      <point x="23" y="-124"/>
      <point x="94" y="-182"/>
      <point x="187" y="-182" type="curve" smooth="yes"/>
      <point x="249" y="-182"/>
      <point x="311" y="-155"/>
      <point x="359" y="-112" type="curve"/>
    </contour>
    <contour>
      <point x="302" y="412"/>
      <point x="326" y="434"/>
      <point x="328" y="459" type="curve" smooth="yes"/>
      <point x="331" y="483"/>
      <point x="313" y="505"/>
      <point x="288" y="505" type="curve" smooth="yes"/>
      <point x="262" y="505"/>
      <point x="237" y="483"/>
      <point x="236" y="459" type="curve" smooth="yes"/>
      <point x="234" y="434"/>
      <point x="251" y="412"/>
      <point x="276" y="412" type="curve" smooth="yes"/>
    </contour>
  </outline>
</glyph>
<glyph name="AE" format="1">
  <advance width="1012"/>
  <unicode hex="00C6"/>
  <note>
    AE
  </note>
  <outline>
    <contour>
      <point x="542" y="257" type="line"/>
      <point x="270" y="257" type="line"/>
      <point x="515" y="621" type="line" smooth="yes"/>
      <point x="522" y="632"/>
      <point x="536" y="657"/>
      <point x="540" y="668" type="curve"/>
    </contour>
    <contour>
      <point x="915" y="0" type="line"/>
      <point x="933" y="147" type="line"/>
      <point x="908" y="147" type="line" smooth="yes"/>
      <point x="894" y="147"/>
      <point x="887" y="138"/>
      <point x="884" y="122" type="curve"/>
      <point x="870" y="43" type="line"/>
      <point x="591" y="43" type="line"/>
      <point x="590" y="338" type="line"/>
      <point x="865" y="338" type="line"/>
      <point x="870" y="379" type="line"/>
      <point x="590" y="379" type="line"/>
      <point x="589" y="665" type="line"/>
      <point x="947" y="665" type="line"/>
      <point x="941" y="585" type="line"/>
      <point x="940" y="569"/>
      <point x="945" y="561"/>
      <point x="959" y="561" type="curve" smooth="yes"/>
      <point x="984" y="561" type="line"/>
      <point x="1002" y="707" type="line"/>
      <point x="440" y="707" type="line"/>
      <point x="437" y="688" type="line"/>
      <point x="436" y="677"/>
      <point x="442" y="671"/>
      <point x="455" y="670" type="curve"/>
      <point x="495" y="669" type="line"/>
      <point x="75" y="46" type="line"/>
      <point x="42" y="0" type="line"/>
      <point x="100" y="0" type="line"/>
      <point x="129" y="46" type="line"/>
      <point x="245" y="219" type="line"/>
      <point x="543" y="219" type="line"/>
      <point x="544" y="0" type="line"/>
    </contour>
    <component base="serifBottom" xOffset="-55"/>
    <component base="serifBottom" xOffset="431"/>
  </outline>
</glyph>
<glyph name="Eth" format="1">
  <advance width="763"/>
  <unicode hex="00D0"/>
  <note>
    Eth
  </note>
  <outline>
    <contour>
      <point x="35" y="342" type="line"/>
      <point x="397" y="342" type="line"/>
      <point x="401" y="374" type="line"/>
      <point x="39" y="374" type="line"/>
    </contour>
    <component base="D"/>
  </outline>
</glyph>
<glyph name="multiply" format="1">
  <advance width="486"/>
  <unicode hex="00D7"/>
  <note>
    multiply
  </note>
  <outline>
    <contour>
      <point x="476" y="518" type="line"/>
      <point x="453" y="545" type="line"/>
      <point x="248" y="362" type="line"/>
      <point x="86" y="546" type="line"/>
      <point x="57" y="519" type="line"/>
      <point x="218" y="335" type="line"/>
      <point x="8" y="148" type="line"/>
      <point x="31" y="122" type="line"/>
      <point x="241" y="309" type="line"/>
      <point x="405" y="123" type="line"/>
      <point x="434" y="149" type="line"/>
      <point x="270" y="335" type="line"/>
    </contour>
  </outline>
</glyph>
<glyph name="germandbls" format="1">
  <advance width="523"/>
  <unicode hex="00DF"/>
  <note>
    germandbls
  </note>
  <outline>
    <contour>
      <point x="204" y="716"/>
      <point x="106" y="628"/>
      <point x="91" y="500" type="curve" smooth="yes"/>
      <point x="30" y="0" type="line"/>
      <point x="77" y="0" type="line"/>
      <point x="138" y="500" type="line" smooth="yes"/>
      <point x="151" y="606"/>
      <point x="219" y="680"/>
      <point x="333" y="680" type="curve" smooth="yes"/>
      <point x="404" y="680"/>
      <point x="459" y="641"/>
      <point x="453" y="576" type="curve" smooth="yes"/>
      <point x="447" y="524"/>
      <point x="410" y="493"/>
      <point x="357" y="458" type="curve" smooth="yes"/>
      <point x="308" y="424"/>
      <point x="268" y="399"/>
      <point x="262" y="352" type="curve" smooth="yes"/>
      <point x="255" y="302"/>
      <point x="288" y="272"/>
      <point x="349" y="249" type="curve" smooth="yes"/>
      <point x="407" y="227"/>
      <point x="442" y="195"/>
      <point x="434" y="140" type="curve" smooth="yes"/>
      <point x="425" y="71"/>
      <point x="368" y="27"/>
      <point x="297" y="27" type="curve" smooth="yes"/>
      <point x="248" y="27"/>
      <point x="223" y="40"/>
      <point x="187" y="70" type="curve" smooth="yes"/>
      <point x="178" y="78"/>
      <point x="167" y="81"/>
      <point x="157" y="70" type="curve"/>
      <point x="143" y="53" type="line"/>
      <point x="185" y="11"/>
      <point x="230" y="-8"/>
      <point x="289" y="-8" type="curve" smooth="yes"/>
      <point x="389" y="-8"/>
      <point x="467" y="51"/>
      <point x="479" y="147" type="curve" smooth="yes"/>
      <point x="488" y="234"/>
      <point x="448" y="251"/>
      <point x="365" y="292" type="curve" smooth="yes"/>
      <point x="333" y="307"/>
      <point x="309" y="323"/>
      <point x="312" y="360" type="curve"/>
      <point x="318" y="395"/>
      <point x="357" y="422"/>
      <point x="403" y="449" type="curve" smooth="yes"/>
      <point x="449" y="477"/>
      <point x="491" y="521"/>
      <point x="498" y="576" type="curve" smooth="yes"/>
      <point x="508" y="658"/>
      <point x="434" y="716"/>
      <point x="338" y="716" type="curve" smooth="yes"/>
    </contour>
  </outline>
</glyph>
<glyph name="agrave" format="1">
  <advance width="497"/>
  <unicode hex="00E0"/>
  <note>
    agrave
  </note>
  <outline>
    <contour>
      <point x="420" y="38" type="line"/>
      <point x="404" y="38" type="line" smooth="yes"/>
      <point x="397" y="38"/>
      <point x="389" y="39"/>
      <point x="381" y="39" type="curve" smooth="yes"/>
      <point x="381" y="39" type="line"/>
      <point x="435" y="481" type="line"/>
      <point x="418" y="490"/>
      <point x="400" y="495"/>
      <point x="383" y="499" type="curve"/>
      <point x="366" y="502"/>
      <point x="347" y="504"/>
      <point x="327" y="504" type="curve" smooth="yes"/>
      <point x="300" y="504"/>
      <point x="274" y="500"/>
      <point x="248" y="491" type="curve" smooth="yes"/>
      <point x="222" y="482"/>
      <point x="199" y="470"/>
      <point x="176" y="455" type="curve" smooth="yes"/>
      <point x="153" y="440"/>
      <point x="133" y="422"/>
      <point x="114" y="401" type="curve" smooth="yes"/>
      <point x="95" y="380"/>
      <point x="79" y="357"/>
      <point x="66" y="332" type="curve" smooth="yes"/>
      <point x="52" y="307"/>
      <point x="41" y="280"/>
      <point x="34" y="252" type="curve" smooth="yes"/>
      <point x="27" y="224"/>
      <point x="24" y="196"/>
      <point x="24" y="167" type="curve" smooth="yes"/>
      <point x="24" y="140"/>
      <point x="27" y="116"/>
      <point x="32" y="95" type="curve" smooth="yes"/>
      <point x="37" y="74"/>
      <point x="44" y="56"/>
      <point x="55" y="41" type="curve"/>
      <point x="65" y="26"/>
      <point x="79" y="14"/>
      <point x="95" y="6" type="curve" smooth="yes"/>
      <point x="111" y="-2"/>
      <point x="129" y="-6"/>
      <point x="150" y="-6" type="curve" smooth="yes"/>
      <point x="170" y="-6"/>
      <point x="190" y="-2"/>
      <point x="209" y="7" type="curve" smooth="yes"/>
      <point x="228" y="16"/>
      <point x="246" y="27"/>
      <point x="263" y="43" type="curve" smooth="yes"/>
      <point x="280" y="59"/>
      <point x="296" y="77"/>
      <point x="311" y="99" type="curve" smooth="yes"/>
      <point x="326" y="121"/>
      <point x="340" y="145"/>
      <point x="353" y="172" type="curve"/>
      <point x="336" y="16" type="line"/>
      <point x="336" y="12"/>
      <point x="337" y="8"/>
      <point x="340" y="5" type="curve"/>
      <point x="342" y="2"/>
      <point x="347" y="0"/>
      <point x="353" y="0" type="curve" smooth="yes"/>
      <point x="365" y="0" type="line"/>
      <point x="365" y="0" type="line"/>
      <point x="376" y="0" type="line"/>
      <point x="442" y="0" type="line"/>
      <point x="445" y="20" type="line"/>
      <point x="446" y="31"/>
      <point x="440" y="37"/>
      <point x="427" y="38" type="curve"/>
    </contour>
    <contour>
      <point x="306" y="138"/>
      <point x="291" y="113"/>
      <point x="274" y="94" type="curve" smooth="yes"/>
      <point x="257" y="74"/>
      <point x="239" y="60"/>
      <point x="221" y="49" type="curve" smooth="yes"/>
      <point x="203" y="38"/>
      <point x="184" y="33"/>
      <point x="165" y="33" type="curve" smooth="yes"/>
      <point x="133" y="33"/>
      <point x="109" y="45"/>
      <point x="94" y="70" type="curve" smooth="yes"/>
      <point x="79" y="95"/>
      <point x="71" y="130"/>
      <point x="71" y="175" type="curve" smooth="yes"/>
      <point x="71" y="200"/>
      <point x="74" y="225"/>
      <point x="80" y="249" type="curve" smooth="yes"/>
      <point x="86" y="273"/>
      <point x="96" y="296"/>
      <point x="107" y="318" type="curve" smooth="yes"/>
      <point x="118" y="340"/>
      <point x="132" y="361"/>
      <point x="147" y="379" type="curve" smooth="yes"/>
      <point x="162" y="397"/>
      <point x="180" y="413"/>
      <point x="198" y="426" type="curve" smooth="yes"/>
      <point x="217" y="439"/>
      <point x="236" y="449"/>
      <point x="257" y="457" type="curve" smooth="yes"/>
      <point x="278" y="465"/>
      <point x="300" y="469"/>
      <point x="322" y="469" type="curve" smooth="yes"/>
      <point x="345" y="469"/>
      <point x="366" y="466"/>
      <point x="386" y="459" type="curve"/>
      <point x="361" y="256" type="line"/>
      <point x="349" y="223"/>
      <point x="336" y="192"/>
      <point x="321" y="165" type="curve" smooth="yes"/>
    </contour>
    <contour>
      <point x="193" y="716" type="line"/>
      <point x="286" y="589" type="line"/>
      <point x="288" y="586"/>
      <point x="290" y="583"/>
      <point x="293" y="582" type="curve" smooth="yes"/>
      <point x="296" y="581"/>
      <point x="299" y="581"/>
      <point x="303" y="581" type="curve" smooth="yes"/>
      <point x="330" y="581" type="line"/>
      <point x="266" y="700" type="line" smooth="yes"/>
      <point x="263" y="706"/>
      <point x="260" y="710"/>
      <point x="256" y="712" type="curve" smooth="yes"/>
      <point x="252" y="714"/>
      <point x="247" y="716"/>
      <point x="239" y="716" type="curve" smooth="yes"/>
    </contour>
  </outline>
</glyph>
<glyph name="atilde" format="1">
  <advance width="499"/>
  <unicode hex="00E3"/>
  <note>
    atilde
  </note>
  <outline>
    <contour>
      <point x="420" y="38" type="line"/>
      <point x="404" y="38" type="line" smooth="yes"/>
      <point x="397" y="38"/>
      <point x="390" y="39"/>
      <point x="382" y="39" type="curve" smooth="yes"/>
      <point x="382" y="39" type="line"/>
      <point x="435" y="481" type="line"/>
      <point x="418" y="490"/>
      <point x="401" y="495"/>
      <point x="384" y="499" type="curve"/>
      <point x="367" y="502"/>
      <point x="348" y="504"/>
      <point x="328" y="504" type="curve" smooth="yes"/>
      <point x="301" y="504"/>
      <point x="274" y="500"/>
      <point x="248" y="491" type="curve" smooth="yes"/>
      <point x="222" y="482"/>
      <point x="199" y="470"/>
      <point x="176" y="455" type="curve" smooth="yes"/>
      <point x="153" y="440"/>
      <point x="133" y="422"/>
      <point x="114" y="401" type="curve" smooth="yes"/>
      <point x="95" y="380"/>
      <point x="79" y="357"/>
      <point x="66" y="332" type="curve" smooth="yes"/>
      <point x="52" y="307"/>
      <point x="42" y="280"/>
      <point x="35" y="252" type="curve" smooth="yes"/>
      <point x="28" y="224"/>
      <point x="24" y="196"/>
      <point x="24" y="167" type="curve" smooth="yes"/>
      <point x="24" y="140"/>
      <point x="27" y="116"/>
      <point x="32" y="95" type="curve" smooth="yes"/>
      <point x="37" y="74"/>
      <point x="45" y="56"/>
      <point x="56" y="41" type="curve"/>
      <point x="66" y="26"/>
      <point x="79" y="14"/>
      <point x="95" y="6" type="curve" smooth="yes"/>
      <point x="111" y="-2"/>
      <point x="129" y="-6"/>
      <point x="150" y="-6" type="curve" smooth="yes"/>
      <point x="170" y="-6"/>
      <point x="190" y="-2"/>
      <point x="209" y="7" type="curve" smooth="yes"/>
      <point x="228" y="16"/>
      <point x="246" y="27"/>
      <point x="263" y="43" type="curve" smooth="yes"/>
      <point x="280" y="59"/>
      <point x="297" y="77"/>
      <point x="312" y="99" type="curve" smooth="yes"/>
      <point x="327" y="121"/>
      <point x="340" y="145"/>
      <point x="353" y="172" type="curve"/>
      <point x="337" y="16" type="line"/>
      <point x="337" y="12"/>
      <point x="338" y="8"/>
      <point x="341" y="5" type="curve"/>
      <point x="343" y="2"/>
      <point x="348" y="0"/>
      <point x="354" y="0" type="curve" smooth="yes"/>
      <point x="365" y="0" type="line"/>
      <point x="365" y="0" type="line"/>
      <point x="377" y="0" type="line"/>
      <point x="443" y="0" type="line"/>
      <point x="445" y="20" type="line" smooth="yes"/>
      <point x="446" y="31"/>
      <point x="441" y="37"/>
      <point x="428" y="38" type="curve"/>
    </contour>
    <contour>
      <point x="307" y="138"/>
      <point x="291" y="113"/>
      <point x="274" y="94" type="curve" smooth="yes"/>
      <point x="257" y="74"/>
      <point x="240" y="60"/>
      <point x="222" y="49" type="curve" smooth="yes"/>
      <point x="204" y="38"/>
      <point x="184" y="33"/>
      <point x="165" y="33" type="curve" smooth="yes"/>
      <point x="133" y="33"/>
      <point x="109" y="45"/>
      <point x="94" y="70" type="curve" smooth="yes"/>
      <point x="79" y="95"/>
      <point x="72" y="130"/>
      <point x="72" y="175" type="curve" smooth="yes"/>
      <point x="72" y="200"/>
      <point x="75" y="225"/>
      <point x="81" y="249" type="curve" smooth="yes"/>
      <point x="87" y="273"/>
      <point x="96" y="296"/>
      <point x="107" y="318" type="curve" smooth="yes"/>
      <point x="118" y="340"/>
      <point x="132" y="361"/>
      <point x="147" y="379" type="curve" smooth="yes"/>
      <point x="162" y="397"/>
      <point x="180" y="413"/>
      <point x="198" y="426" type="curve" smooth="yes"/>
      <point x="217" y="439"/>
      <point x="236" y="449"/>
      <point x="257" y="457" type="curve" smooth="yes"/>
      <point x="278" y="465"/>
      <point x="300" y="469"/>
      <point x="322" y="469" type="curve" smooth="yes"/>
      <point x="345" y="469"/>
      <point x="366" y="466"/>
      <point x="386" y="459" type="curve"/>
      <point x="361" y="256" type="line"/>
      <point x="349" y="223"/>
      <point x="337" y="192"/>
      <point x="322" y="165" type="curve" smooth="yes"/>
    </contour>
    <contour>
      <point x="337" y="640"/>
      <point x="329" y="642"/>
      <point x="321" y="648" type="curve" smooth="yes"/>
      <point x="297" y="666" type="line" smooth="yes"/>
      <point x="289" y="672"/>
      <point x="280" y="678"/>
      <point x="271" y="684" type="curve" smooth="yes"/>
      <point x="262" y="690"/>
      <point x="252" y="693"/>
      <point x="241" y="693" type="curve" smooth="yes"/>
      <point x="230" y="693"/>
      <point x="219" y="690"/>
      <point x="209" y="686" type="curve" smooth="yes"/>
      <point x="199" y="682"/>
      <point x="191" y="676"/>
      <point x="184" y="668" type="curve" smooth="yes"/>
      <point x="177" y="660"/>
      <point x="171" y="652"/>
      <point x="166" y="641" type="curve"/>
      <point x="161" y="631"/>
      <point x="158" y="619"/>
      <point x="157" y="607" type="curve"/>
      <point x="188" y="607" type="line"/>
      <point x="191" y="622"/>
      <point x="196" y="634"/>
      <point x="204" y="644" type="curve" smooth="yes"/>
      <point x="212" y="654"/>
      <point x="224" y="658"/>
      <point x="238" y="658" type="curve" smooth="yes"/>
      <point x="247" y="658"/>
      <point x="255" y="656"/>
      <point x="263" y="650" type="curve" smooth="yes"/>
      <point x="287" y="632" type="line" smooth="yes"/>
      <point x="295" y="626"/>
      <point x="304" y="620"/>
      <point x="313" y="614" type="curve" smooth="yes"/>
      <point x="322" y="608"/>
      <point x="332" y="606"/>
      <point x="343" y="606" type="curve" smooth="yes"/>
      <point x="354" y="606"/>
      <point x="364" y="608"/>
      <point x="374" y="612" type="curve" smooth="yes"/>
      <point x="384" y="616"/>
      <point x="392" y="622"/>
      <point x="399" y="630" type="curve" smooth="yes"/>
      <point x="406" y="638"/>
      <point x="412" y="647"/>
      <point x="416" y="657" type="curve" smooth="yes"/>
      <point x="420" y="667"/>
      <point x="424" y="679"/>
      <point x="425" y="691" type="curve"/>
      <point x="396" y="691" type="line"/>
      <point x="394" y="675"/>
      <point x="388" y="663"/>
      <point x="380" y="654" type="curve" smooth="yes"/>
      <point x="372" y="645"/>
      <point x="360" y="640"/>
      <point x="346" y="640" type="curve" smooth="yes"/>
    </contour>
  </outline>
</glyph>
<glyph name="adieresis" format="1">
  <advance width="498"/>
  <unicode hex="00E4"/>
  <note>
    adieresis
  </note>
  <outline>
    <contour>
      <point x="420" y="38" type="line"/>
      <point x="404" y="38" type="line" smooth="yes"/>
      <point x="397" y="38"/>
      <point x="390" y="39"/>
      <point x="382" y="39" type="curve" smooth="yes"/>
      <point x="382" y="39" type="line"/>
      <point x="435" y="481" type="line"/>
      <point x="418" y="490"/>
      <point x="401" y="495"/>
      <point x="384" y="499" type="curve"/>
      <point x="367" y="502"/>
      <point x="348" y="504"/>
      <point x="328" y="504" type="curve" smooth="yes"/>
      <point x="301" y="504"/>
      <point x="274" y="500"/>
      <point x="248" y="491" type="curve" smooth="yes"/>
      <point x="222" y="482"/>
      <point x="199" y="470"/>
      <point x="176" y="455" type="curve" smooth="yes"/>
      <point x="153" y="440"/>
      <point x="133" y="422"/>
      <point x="114" y="401" type="curve" smooth="yes"/>
      <point x="95" y="380"/>
      <point x="79" y="357"/>
      <point x="66" y="332" type="curve" smooth="yes"/>
      <point x="52" y="307"/>
      <point x="42" y="280"/>
      <point x="35" y="252" type="curve" smooth="yes"/>
      <point x="28" y="224"/>
      <point x="24" y="196"/>
      <point x="24" y="167" type="curve" smooth="yes"/>
      <point x="24" y="140"/>
      <point x="27" y="116"/>
      <point x="32" y="95" type="curve" smooth="yes"/>
      <point x="37" y="74"/>
      <point x="45" y="56"/>
      <point x="56" y="41" type="curve"/>
      <point x="66" y="26"/>
      <point x="79" y="14"/>
      <point x="95" y="6" type="curve" smooth="yes"/>
      <point x="111" y="-2"/>
      <point x="129" y="-6"/>
      <point x="150" y="-6" type="curve" smooth="yes"/>
      <point x="170" y="-6"/>
      <point x="190" y="-2"/>
      <point x="209" y="7" type="curve" smooth="yes"/>
      <point x="228" y="16"/>
      <point x="246" y="27"/>
      <point x="263" y="43" type="curve" smooth="yes"/>
      <point x="280" y="59"/>
      <point x="297" y="77"/>
      <point x="312" y="99" type="curve" smooth="yes"/>
      <point x="327" y="121"/>
      <point x="340" y="145"/>
      <point x="353" y="172" type="curve"/>
      <point x="337" y="16" type="line"/>
      <point x="337" y="12"/>
      <point x="338" y="8"/>
      <point x="341" y="5" type="curve"/>
      <point x="343" y="2"/>
      <point x="348" y="0"/>
      <point x="354" y="0" type="curve" smooth="yes"/>
      <point x="365" y="0" type="line"/>
      <point x="365" y="0" type="line"/>
      <point x="377" y="0" type="line"/>
      <point x="443" y="0" type="line"/>
      <point x="445" y="20" type="line" smooth="yes"/>
      <point x="446" y="31"/>
      <point x="441" y="37"/>
      <point x="428" y="38" type="curve"/>
    </contour>
    <contour>
      <point x="307" y="138"/>
      <point x="291" y="113"/>
      <point x="274" y="94" type="curve" smooth="yes"/>
      <point x="257" y="74"/>
      <point x="240" y="60"/>
      <point x="222" y="49" type="curve" smooth="yes"/>
      <point x="204" y="38"/>
      <point x="184" y="33"/>
      <point x="165" y="33" type="curve" smooth="yes"/>
      <point x="133" y="33"/>
      <point x="109" y="45"/>
      <point x="94" y="70" type="curve" smooth="yes"/>
      <point x="79" y="95"/>
      <point x="72" y="130"/>
      <point x="72" y="175" type="curve" smooth="yes"/>
      <point x="72" y="200"/>
      <point x="75" y="225"/>
      <point x="81" y="249" type="curve" smooth="yes"/>
      <point x="87" y="273"/>
      <point x="96" y="296"/>
      <point x="107" y="318" type="curve" smooth="yes"/>
      <point x="118" y="340"/>
      <point x="132" y="361"/>
      <point x="147" y="379" type="curve" smooth="yes"/>
      <point x="162" y="397"/>
      <point x="180" y="413"/>
      <point x="198" y="426" type="curve" smooth="yes"/>
      <point x="217" y="439"/>
      <point x="236" y="449"/>
      <point x="257" y="457" type="curve" smooth="yes"/>
      <point x="278" y="465"/>
      <point x="300" y="469"/>
      <point x="322" y="469" type="curve" smooth="yes"/>
      <point x="345" y="469"/>
      <point x="366" y="466"/>
      <point x="386" y="459" type="curve"/>
      <point x="361" y="256" type="line"/>
      <point x="349" y="223"/>
      <point x="337" y="192"/>
      <point x="322" y="165" type="curve" smooth="yes"/>
    </contour>
    <contour>
      <point x="245" y="648"/>
      <point x="245" y="653"/>
      <point x="243" y="658" type="curve" smooth="yes"/>
      <point x="241" y="663"/>
      <point x="238" y="667"/>
      <point x="235" y="671" type="curve" smooth="yes"/>
      <point x="232" y="675"/>
      <point x="228" y="678"/>
      <point x="223" y="680" type="curve" smooth="yes"/>
      <point x="218" y="682"/>
      <point x="213" y="684"/>
      <point x="208" y="684" type="curve" smooth="yes"/>
      <point x="203" y="684"/>
      <point x="197" y="682"/>
      <point x="192" y="680" type="curve" smooth="yes"/>
      <point x="187" y="678"/>
      <point x="182" y="675"/>
      <point x="178" y="671" type="curve" smooth="yes"/>
      <point x="174" y="667"/>
      <point x="171" y="663"/>
      <point x="168" y="658" type="curve" smooth="yes"/>
      <point x="165" y="653"/>
      <point x="163" y="648"/>
      <point x="162" y="642" type="curve" smooth="yes"/>
      <point x="161" y="637"/>
      <point x="162" y="632"/>
      <point x="164" y="627" type="curve" smooth="yes"/>
      <point x="166" y="622"/>
      <point x="168" y="618"/>
      <point x="171" y="614" type="curve" smooth="yes"/>
      <point x="174" y="610"/>
      <point x="178" y="607"/>
      <point x="183" y="605" type="curve" smooth="yes"/>
      <point x="188" y="603"/>
      <point x="193" y="602"/>
      <point x="198" y="602" type="curve" smooth="yes"/>
      <point x="203" y="602"/>
      <point x="209" y="603"/>
      <point x="214" y="605" type="curve" smooth="yes"/>
      <point x="219" y="607"/>
      <point x="224" y="610"/>
      <point x="228" y="614" type="curve" smooth="yes"/>
      <point x="232" y="618"/>
      <point x="236" y="622"/>
      <point x="239" y="627" type="curve" smooth="yes"/>
      <point x="242" y="632"/>
      <point x="243" y="637"/>
      <point x="244" y="642" type="curve" smooth="yes"/>
    </contour>
    <contour>
      <point x="417" y="648"/>
      <point x="416" y="653"/>
      <point x="414" y="658" type="curve" smooth="yes"/>
      <point x="412" y="663"/>
      <point x="410" y="667"/>
      <point x="407" y="671" type="curve" smooth="yes"/>
      <point x="404" y="675"/>
      <point x="400" y="678"/>
      <point x="395" y="680" type="curve" smooth="yes"/>
      <point x="390" y="682"/>
      <point x="384" y="684"/>
      <point x="379" y="684" type="curve" smooth="yes"/>
      <point x="373" y="684"/>
      <point x="368" y="682"/>
      <point x="363" y="680" type="curve" smooth="yes"/>
      <point x="358" y="678"/>
      <point x="353" y="675"/>
      <point x="349" y="671" type="curve" smooth="yes"/>
      <point x="345" y="667"/>
      <point x="342" y="663"/>
      <point x="339" y="658" type="curve" smooth="yes"/>
      <point x="336" y="653"/>
      <point x="334" y="648"/>
      <point x="333" y="642" type="curve" smooth="yes"/>
      <point x="332" y="637"/>
      <point x="333" y="632"/>
      <point x="335" y="627" type="curve" smooth="yes"/>
      <point x="337" y="622"/>
      <point x="339" y="618"/>
      <point x="342" y="614" type="curve" smooth="yes"/>
      <point x="345" y="610"/>
      <point x="349" y="607"/>
      <point x="354" y="605" type="curve" smooth="yes"/>
      <point x="359" y="603"/>
      <point x="363" y="602"/>
      <point x="369" y="602" type="curve" smooth="yes"/>
      <point x="374" y="602"/>
      <point x="381" y="603"/>
      <point x="386" y="605" type="curve" smooth="yes"/>
      <point x="391" y="607"/>
      <point x="396" y="610"/>
      <point x="400" y="614" type="curve" smooth="yes"/>
      <point x="404" y="618"/>
      <point x="407" y="622"/>
      <point x="410" y="627" type="curve" smooth="yes"/>
      <point x="413" y="632"/>
      <point x="415" y="637"/>
      <point x="416" y="642" type="curve" smooth="yes"/>
    </contour>
  </outline>
</glyph>
<glyph name="aring" format="1">
  <advance width="496"/>
  <unicode hex="00E5"/>
  <note>
    aring
  </note>
  <outline>
    <contour>
      <point x="419" y="38" type="line"/>
      <point x="403" y="38" type="line" smooth="yes"/>
      <point x="396" y="38"/>
      <point x="389" y="39"/>
      <point x="381" y="39" type="curve" smooth="yes"/>
      <point x="381" y="39" type="line"/>
      <point x="434" y="481" type="line"/>
      <point x="417" y="490"/>
      <point x="400" y="495"/>
      <point x="383" y="499" type="curve"/>
      <point x="366" y="502"/>
      <point x="347" y="504"/>
      <point x="327" y="504" type="curve" smooth="yes"/>
      <point x="300" y="504"/>
      <point x="273" y="500"/>
      <point x="247" y="491" type="curve" smooth="yes"/>
      <point x="221" y="482"/>
      <point x="198" y="470"/>
      <point x="175" y="455" type="curve" smooth="yes"/>
      <point x="152" y="440"/>
      <point x="132" y="422"/>
      <point x="113" y="401" type="curve" smooth="yes"/>
      <point x="94" y="380"/>
      <point x="78" y="357"/>
      <point x="65" y="332" type="curve" smooth="yes"/>
      <point x="51" y="307"/>
      <point x="41" y="280"/>
      <point x="34" y="252" type="curve" smooth="yes"/>
      <point x="27" y="224"/>
      <point x="23" y="196"/>
      <point x="23" y="167" type="curve" smooth="yes"/>
      <point x="23" y="140"/>
      <point x="26" y="116"/>
      <point x="31" y="95" type="curve" smooth="yes"/>
      <point x="36" y="74"/>
      <point x="44" y="56"/>
      <point x="55" y="41" type="curve"/>
      <point x="65" y="26"/>
      <point x="78" y="14"/>
      <point x="94" y="6" type="curve" smooth="yes"/>
      <point x="110" y="-2"/>
      <point x="128" y="-6"/>
      <point x="149" y="-6" type="curve" smooth="yes"/>
      <point x="169" y="-6"/>
      <point x="189" y="-2"/>
      <point x="208" y="7" type="curve" smooth="yes"/>
      <point x="227" y="16"/>
      <point x="245" y="27"/>
      <point x="262" y="43" type="curve" smooth="yes"/>
      <point x="279" y="59"/>
      <point x="296" y="77"/>
      <point x="311" y="99" type="curve" smooth="yes"/>
      <point x="326" y="121"/>
      <point x="339" y="145"/>
      <point x="352" y="172" type="curve"/>
      <point x="336" y="16" type="line"/>
      <point x="336" y="12"/>
      <point x="337" y="8"/>
      <point x="340" y="5" type="curve"/>
      <point x="342" y="2"/>
      <point x="347" y="0"/>
      <point x="353" y="0" type="curve" smooth="yes"/>
      <point x="364" y="0" type="line"/>
      <point x="364" y="0" type="line"/>
      <point x="376" y="0" type="line"/>
      <point x="442" y="0" type="line"/>
      <point x="444" y="20" type="line" smooth="yes"/>
      <point x="445" y="31"/>
      <point x="440" y="37"/>
      <point x="427" y="38" type="curve"/>
    </contour>
    <contour>
      <point x="306" y="138"/>
      <point x="290" y="113"/>
      <point x="273" y="94" type="curve" smooth="yes"/>
      <point x="256" y="74"/>
      <point x="239" y="60"/>
      <point x="221" y="49" type="curve" smooth="yes"/>
      <point x="203" y="38"/>
      <point x="183" y="33"/>
      <point x="164" y="33" type="curve" smooth="yes"/>
      <point x="132" y="33"/>
      <point x="108" y="45"/>
      <point x="93" y="70" type="curve" smooth="yes"/>
      <point x="78" y="95"/>
      <point x="71" y="130"/>
      <point x="71" y="175" type="curve" smooth="yes"/>
      <point x="71" y="200"/>
      <point x="74" y="225"/>
      <point x="80" y="249" type="curve" smooth="yes"/>
      <point x="86" y="273"/>
      <point x="95" y="296"/>
      <point x="106" y="318" type="curve" smooth="yes"/>
      <point x="117" y="340"/>
      <point x="131" y="361"/>
      <point x="146" y="379" type="curve" smooth="yes"/>
      <point x="161" y="397"/>
      <point x="179" y="413"/>
      <point x="197" y="426" type="curve" smooth="yes"/>
      <point x="216" y="439"/>
      <point x="235" y="449"/>
      <point x="256" y="457" type="curve" smooth="yes"/>
      <point x="277" y="465"/>
      <point x="299" y="469"/>
      <point x="321" y="469" type="curve" smooth="yes"/>
      <point x="344" y="469"/>
      <point x="365" y="466"/>
      <point x="385" y="459" type="curve"/>
      <point x="360" y="256" type="line"/>
      <point x="348" y="223"/>
      <point x="336" y="192"/>
      <point x="321" y="165" type="curve" smooth="yes"/>
    </contour>
    <contour>
      <point x="200" y="639"/>
      <point x="201" y="628"/>
      <point x="204" y="618" type="curve" smooth="yes"/>
      <point x="207" y="608"/>
      <point x="212" y="600"/>
      <point x="219" y="593" type="curve" smooth="yes"/>
      <point x="226" y="586"/>
      <point x="234" y="580"/>
      <point x="244" y="576" type="curve" smooth="yes"/>
      <point x="254" y="572"/>
      <point x="265" y="570"/>
      <point x="277" y="570" type="curve" smooth="yes"/>
      <point x="289" y="570"/>
      <point x="300" y="572"/>
      <point x="311" y="576" type="curve" smooth="yes"/>
      <point x="322" y="580"/>
      <point x="332" y="586"/>
      <point x="341" y="593" type="curve" smooth="yes"/>
      <point x="350" y="600"/>
      <point x="356" y="608"/>
      <point x="362" y="618" type="curve" smooth="yes"/>
      <point x="368" y="628"/>
      <point x="372" y="639"/>
      <point x="373" y="651" type="curve" smooth="yes"/>
      <point x="374" y="663"/>
      <point x="373" y="674"/>
      <point x="370" y="684" type="curve" smooth="yes"/>
      <point x="367" y="694"/>
      <point x="362" y="703"/>
      <point x="355" y="710" type="curve" smooth="yes"/>
      <point x="348" y="717"/>
      <point x="339" y="723"/>
      <point x="329" y="727" type="curve" smooth="yes"/>
      <point x="319" y="731"/>
      <point x="309" y="733"/>
      <point x="297" y="733" type="curve" smooth="yes"/>
      <point x="285" y="733"/>
      <point x="274" y="731"/>
      <point x="263" y="727" type="curve" smooth="yes"/>
      <point x="252" y="723"/>
      <point x="242" y="717"/>
      <point x="233" y="710" type="curve" smooth="yes"/>
      <point x="224" y="703"/>
      <point x="218" y="694"/>
      <point x="212" y="684" type="curve" smooth="yes"/>
      <point x="206" y="674"/>
      <point x="202" y="663"/>
      <point x="201" y="651" type="curve" smooth="yes"/>
    </contour>
    <contour>
      <point x="232" y="668"/>
      <point x="239" y="681"/>
      <point x="251" y="692" type="curve" smooth="yes"/>
      <point x="263" y="703"/>
      <point x="277" y="708"/>
      <point x="294" y="708" type="curve" smooth="yes"/>
      <point x="311" y="708"/>
      <point x="324" y="703"/>
      <point x="333" y="692" type="curve" smooth="yes"/>
      <point x="342" y="681"/>
      <point x="346" y="668"/>
      <point x="344" y="651" type="curve" smooth="yes"/>
      <point x="342" y="634"/>
      <point x="335" y="621"/>
      <point x="323" y="610" type="curve" smooth="yes"/>
      <point x="311" y="599"/>
      <point x="297" y="594"/>
      <point x="280" y="594" type="curve" smooth="yes"/>
      <point x="263" y="594"/>
      <point x="250" y="599"/>
      <point x="241" y="610" type="curve" smooth="yes"/>
      <point x="232" y="621"/>
      <point x="228" y="634"/>
      <point x="230" y="651" type="curve" smooth="yes"/>
    </contour>
  </outline>
</glyph>
<glyph name="ae" format="1">
  <advance width="717"/>
  <unicode hex="00E6"/>
  <note>
    ae
  </note>
  <outline>
    <contour>
      <point x="472" y="512"/>
      <point x="410" y="470"/>
      <point x="372" y="399" type="curve"/>
      <point x="364" y="474"/>
      <point x="327" y="513"/>
      <point x="252" y="513" type="curve" smooth="yes"/>
      <point x="189" y="513"/>
      <point x="134" y="486"/>
      <point x="80" y="434" type="curve"/>
      <point x="88" y="421" type="line"/>
      <point x="93" y="413"/>
      <point x="105" y="409"/>
      <point x="119" y="421" type="curve" smooth="yes"/>
      <point x="154" y="451"/>
      <point x="198" y="474"/>
      <point x="247" y="474" type="curve" smooth="yes"/>
      <point x="338" y="474"/>
      <point x="347" y="400"/>
      <point x="330" y="288" type="curve"/>
      <point x="189" y="287"/>
      <point x="20" y="252"/>
      <point x="20" y="114" type="curve" smooth="yes"/>
      <point x="20" y="37"/>
      <point x="68" y="-1"/>
      <point x="146" y="-1" type="curve" smooth="yes"/>
      <point x="228" y="-1"/>
      <point x="309" y="54"/>
      <point x="338" y="137" type="curve"/>
      <point x="356" y="57"/>
      <point x="405" y="1"/>
      <point x="489" y="1" type="curve" smooth="yes"/>
      <point x="571" y="1"/>
      <point x="625" y="35"/>
      <point x="687" y="100" type="curve"/>
      <point x="676" y="112" type="line"/>
      <point x="670" y="118"/>
      <point x="663" y="120"/>
      <point x="653" y="112" type="curve" smooth="yes"/>
      <point x="589" y="61"/>
      <point x="568" y="39"/>
      <point x="497" y="39" type="curve" smooth="yes"/>
      <point x="396" y="39"/>
      <point x="360" y="132"/>
      <point x="369" y="258" type="curve"/>
      <point x="527" y="258"/>
      <point x="678" y="292"/>
      <point x="678" y="402" type="curve" smooth="yes"/>
      <point x="678" y="471"/>
      <point x="622" y="512"/>
      <point x="551" y="512" type="curve" smooth="yes"/>
    </contour>
    <contour>
      <point x="320" y="199" type="line" smooth="yes"/>
      <point x="310" y="105"/>
      <point x="243" y="33"/>
      <point x="154" y="33" type="curve" smooth="yes"/>
      <point x="97" y="33"/>
      <point x="65" y="64"/>
      <point x="65" y="120" type="curve" smooth="yes"/>
      <point x="65" y="232"/>
      <point x="202" y="252"/>
      <point x="326" y="257" type="curve"/>
    </contour>
    <contour>
      <point x="600" y="477"/>
      <point x="636" y="451"/>
      <point x="636" y="400" type="curve" smooth="yes"/>
      <point x="636" y="315"/>
      <point x="510" y="293"/>
      <point x="372" y="287" type="curve"/>
      <point x="386" y="387"/>
      <point x="446" y="477"/>
      <point x="546" y="477" type="curve" smooth="yes"/>
    </contour>
  </outline>
</glyph>
<glyph name="ccedilla" format="1">
  <advance width="447"/>
  <unicode hex="00E7"/>
  <note>
    ccedilla
  </note>
  <outline>
    <contour>
      <point x="380" y="80" type="line" smooth="yes"/>
      <point x="378" y="83"/>
      <point x="375" y="85"/>
      <point x="371" y="85" type="curve" smooth="yes"/>
      <point x="367" y="85"/>
      <point x="362" y="83"/>
      <point x="355" y="77" type="curve" smooth="yes"/>
      <point x="348" y="71"/>
      <point x="338" y="65"/>
      <point x="327" y="58" type="curve" smooth="yes"/>
      <point x="316" y="51"/>
      <point x="302" y="46"/>
      <point x="285" y="40" type="curve" smooth="yes"/>
      <point x="268" y="34"/>
      <point x="248" y="31"/>
      <point x="224" y="31" type="curve" smooth="yes"/>
      <point x="198" y="31"/>
      <point x="175" y="36"/>
      <point x="155" y="46" type="curve" smooth="yes"/>
      <point x="135" y="56"/>
      <point x="118" y="69"/>
      <point x="105" y="88" type="curve" smooth="yes"/>
      <point x="92" y="106"/>
      <point x="84" y="129"/>
      <point x="79" y="156" type="curve" smooth="yes"/>
      <point x="74" y="183"/>
      <point x="74" y="214"/>
      <point x="78" y="249" type="curve" smooth="yes"/>
      <point x="82" y="283"/>
      <point x="90" y="313"/>
      <point x="101" y="340" type="curve" smooth="yes"/>
      <point x="112" y="367"/>
      <point x="127" y="390"/>
      <point x="145" y="409" type="curve" smooth="yes"/>
      <point x="162" y="428"/>
      <point x="183" y="443"/>
      <point x="206" y="453" type="curve" smooth="yes"/>
      <point x="229" y="463"/>
      <point x="255" y="468"/>
      <point x="284" y="468" type="curve" smooth="yes"/>
      <point x="309" y="468"/>
      <point x="337" y="462"/>
      <point x="367" y="451" type="curve"/>
      <point x="366" y="438"/>
      <point x="365" y="425"/>
      <point x="365" y="413" type="curve" smooth="yes"/>
      <point x="365" y="401"/>
      <point x="364" y="392"/>
      <point x="364" y="385" type="curve" smooth="yes"/>
      <point x="364" y="378"/>
      <point x="363" y="374"/>
      <point x="363" y="373" type="curve"/>
      <point x="362" y="357"/>
      <point x="368" y="349"/>
      <point x="382" y="349" type="curve" smooth="yes"/>
      <point x="406" y="349" type="line"/>
      <point x="422" y="474" type="line"/>
      <point x="397" y="482" type="line" smooth="yes"/>
      <point x="380" y="487"/>
      <point x="360" y="493"/>
      <point x="337" y="498" type="curve" smooth="yes"/>
      <point x="314" y="503"/>
      <point x="298" y="505"/>
      <point x="286" y="505" type="curve" smooth="yes"/>
      <point x="250" y="505"/>
      <point x="217" y="500"/>
      <point x="188" y="487" type="curve" smooth="yes"/>
      <point x="159" y="474"/>
      <point x="133" y="457"/>
      <point x="111" y="434" type="curve" smooth="yes"/>
      <point x="89" y="411"/>
      <point x="71" y="384"/>
      <point x="57" y="353" type="curve" smooth="yes"/>
      <point x="43" y="322"/>
      <point x="35" y="287"/>
      <point x="30" y="249" type="curve" smooth="yes"/>
      <point x="25" y="209"/>
      <point x="25" y="173"/>
      <point x="32" y="141" type="curve" smooth="yes"/>
      <point x="39" y="109"/>
      <point x="50" y="83"/>
      <point x="66" y="61" type="curve" smooth="yes"/>
      <point x="82" y="39"/>
      <point x="103" y="22"/>
      <point x="128" y="11" type="curve" smooth="yes"/>
      <point x="148" y="2"/>
      <point x="169" y="-4"/>
      <point x="193" y="-6" type="curve"/>
      <point x="168" y="-65" type="line"/>
      <point x="181" y="-67"/>
      <point x="192" y="-68"/>
      <point x="203" y="-70" type="curve" smooth="yes"/>
      <point x="214" y="-72"/>
      <point x="222" y="-75"/>
      <point x="230" y="-79" type="curve" smooth="yes"/>
      <point x="238" y="-83"/>
      <point x="243" y="-86"/>
      <point x="247" y="-92" type="curve"/>
      <point x="251" y="-97"/>
      <point x="252" y="-105"/>
      <point x="251" y="-113" type="curve" smooth="yes"/>
      <point x="249" y="-126"/>
      <point x="243" y="-136"/>
      <point x="233" y="-143" type="curve" smooth="yes"/>
      <point x="223" y="-150"/>
      <point x="209" y="-154"/>
      <point x="192" y="-154" type="curve" smooth="yes"/>
      <point x="182" y="-154"/>
      <point x="174" y="-153"/>
      <point x="168" y="-151" type="curve" smooth="yes"/>
      <point x="162" y="-149"/>
      <point x="156" y="-147"/>
      <point x="152" y="-145" type="curve" smooth="yes"/>
      <point x="148" y="-143"/>
      <point x="144" y="-141"/>
      <point x="141" y="-139" type="curve" smooth="yes"/>
      <point x="138" y="-137"/>
      <point x="137" y="-137"/>
      <point x="135" y="-137" type="curve" smooth="yes"/>
      <point x="132" y="-137"/>
      <point x="128" y="-139"/>
      <point x="126" y="-143" type="curve" smooth="yes"/>
      <point x="119" y="-157" type="line"/>
      <point x="127" y="-163"/>
      <point x="137" y="-168"/>
      <point x="150" y="-172" type="curve" smooth="yes"/>
      <point x="163" y="-176"/>
      <point x="175" y="-178"/>
      <point x="189" y="-178" type="curve" smooth="yes"/>
      <point x="202" y="-178"/>
      <point x="215" y="-176"/>
      <point x="227" y="-173" type="curve" smooth="yes"/>
      <point x="239" y="-170"/>
      <point x="249" y="-165"/>
      <point x="258" y="-160" type="curve" smooth="yes"/>
      <point x="267" y="-155"/>
      <point x="274" y="-148"/>
      <point x="279" y="-140" type="curve" smooth="yes"/>
      <point x="284" y="-132"/>
      <point x="288" y="-123"/>
      <point x="289" y="-113" type="curve" smooth="yes"/>
      <point x="291" y="-93"/>
      <point x="286" y="-78"/>
      <point x="272" y="-68" type="curve" smooth="yes"/>
      <point x="258" y="-58"/>
      <point x="236" y="-51"/>
      <point x="207" y="-46" type="curve"/>
      <point x="223" y="-6" type="line"/>
      <point x="238" y="-5"/>
      <point x="253" y="-4"/>
      <point x="267" y="-1" type="curve" smooth="yes"/>
      <point x="285" y="3"/>
      <point x="301" y="7"/>
      <point x="316" y="13" type="curve" smooth="yes"/>
      <point x="331" y="19"/>
      <point x="346" y="27"/>
      <point x="359" y="36" type="curve" smooth="yes"/>
      <point x="372" y="45"/>
      <point x="382" y="54"/>
      <point x="391" y="64" type="curve"/>
    </contour>
  </outline>
</glyph>
<glyph name="ecircumflex" format="1">
  <advance width="434"/>
  <unicode hex="00EA"/>
  <note>
    ecircumflex
  </note>
  <outline>
    <contour>
      <point x="408" y="412"/>
      <point x="406" y="424"/>
      <point x="401" y="436" type="curve" smooth="yes"/>
      <point x="396" y="448"/>
      <point x="389" y="459"/>
      <point x="378" y="469" type="curve"/>
      <point x="368" y="479"/>
      <point x="354" y="487"/>
      <point x="337" y="494" type="curve" smooth="yes"/>
      <point x="320" y="501"/>
      <point x="299" y="504"/>
      <point x="275" y="504" type="curve" smooth="yes"/>
      <point x="249" y="504"/>
      <point x="225" y="500"/>
      <point x="202" y="491" type="curve" smooth="yes"/>
      <point x="179" y="482"/>
      <point x="159" y="471"/>
      <point x="140" y="456" type="curve" smooth="yes"/>
      <point x="121" y="441"/>
      <point x="104" y="423"/>
      <point x="90" y="403" type="curve" smooth="yes"/>
      <point x="76" y="383"/>
      <point x="64" y="360"/>
      <point x="54" y="337" type="curve" smooth="yes"/>
      <point x="44" y="314"/>
      <point x="37" y="289"/>
      <point x="32" y="264" type="curve" smooth="yes"/>
      <point x="27" y="239"/>
      <point x="24" y="214"/>
      <point x="24" y="189" type="curve" smooth="yes"/>
      <point x="24" y="159"/>
      <point x="28" y="132"/>
      <point x="36" y="108" type="curve" smooth="yes"/>
      <point x="44" y="84"/>
      <point x="54" y="63"/>
      <point x="69" y="46" type="curve" smooth="yes"/>
      <point x="84" y="29"/>
      <point x="101" y="16"/>
      <point x="123" y="7" type="curve" smooth="yes"/>
      <point x="145" y="-2"/>
      <point x="169" y="-6"/>
      <point x="197" y="-6" type="curve" smooth="yes"/>
      <point x="216" y="-6"/>
      <point x="235" y="-5"/>
      <point x="252" y="-1" type="curve" smooth="yes"/>
      <point x="269" y="3"/>
      <point x="285" y="9"/>
      <point x="301" y="17" type="curve" smooth="yes"/>
      <point x="317" y="25"/>
      <point x="333" y="36"/>
      <point x="348" y="48" type="curve" smooth="yes"/>
      <point x="363" y="60"/>
      <point x="379" y="75"/>
      <point x="395" y="92" type="curve"/>
      <point x="384" y="105" type="line"/>
      <point x="381" y="108"/>
      <point x="378" y="110"/>
      <point x="374" y="110" type="curve" smooth="yes"/>
      <point x="370" y="110"/>
      <point x="366" y="109"/>
      <point x="361" y="105" type="curve" smooth="yes"/>
      <point x="356" y="101"/>
      <point x="350" y="96"/>
      <point x="343" y="90" type="curve" smooth="yes"/>
      <point x="336" y="84"/>
      <point x="329" y="78"/>
      <point x="321" y="71" type="curve" smooth="yes"/>
      <point x="313" y="64"/>
      <point x="302" y="58"/>
      <point x="291" y="52" type="curve" smooth="yes"/>
      <point x="280" y="46"/>
      <point x="267" y="41"/>
      <point x="253" y="37" type="curve" smooth="yes"/>
      <point x="239" y="33"/>
      <point x="223" y="31"/>
      <point x="205" y="31" type="curve" smooth="yes"/>
      <point x="160" y="31"/>
      <point x="126" y="45"/>
      <point x="104" y="73" type="curve" smooth="yes"/>
      <point x="82" y="101"/>
      <point x="70" y="140"/>
      <point x="70" y="190" type="curve" smooth="yes"/>
      <point x="70" y="197"/>
      <point x="71" y="203"/>
      <point x="71" y="210" type="curve" smooth="yes"/>
      <point x="71" y="217"/>
      <point x="71" y="224"/>
      <point x="72" y="231" type="curve"/>
      <point x="119" y="236"/>
      <point x="159" y="241"/>
      <point x="194" y="248" type="curve" smooth="yes"/>
      <point x="229" y="254"/>
      <point x="259" y="262"/>
      <point x="284" y="270" type="curve" smooth="yes"/>
      <point x="309" y="278"/>
      <point x="329" y="287"/>
      <point x="345" y="297" type="curve" smooth="yes"/>
      <point x="361" y="307"/>
      <point x="374" y="317"/>
      <point x="383" y="328" type="curve" smooth="yes"/>
      <point x="392" y="339"/>
      <point x="399" y="351"/>
      <point x="403" y="363" type="curve" smooth="yes"/>
      <point x="407" y="375"/>
      <point x="408" y="388"/>
      <point x="408" y="402" type="curve" smooth="yes"/>
    </contour>
    <contour>
      <point x="290" y="469"/>
      <point x="305" y="468"/>
      <point x="317" y="463" type="curve"/>
      <point x="329" y="459"/>
      <point x="339" y="453"/>
      <point x="346" y="446" type="curve" smooth="yes"/>
      <point x="353" y="439"/>
      <point x="358" y="432"/>
      <point x="361" y="424" type="curve" smooth="yes"/>
      <point x="364" y="416"/>
      <point x="366" y="408"/>
      <point x="366" y="401" type="curve" smooth="yes"/>
      <point x="366" y="391"/>
      <point x="364" y="382"/>
      <point x="362" y="373" type="curve" smooth="yes"/>
      <point x="360" y="364"/>
      <point x="355" y="355"/>
      <point x="348" y="347" type="curve"/>
      <point x="341" y="338"/>
      <point x="330" y="330"/>
      <point x="317" y="322" type="curve" smooth="yes"/>
      <point x="304" y="314"/>
      <point x="286" y="307"/>
      <point x="265" y="300" type="curve" smooth="yes"/>
      <point x="244" y="293"/>
      <point x="218" y="286"/>
      <point x="187" y="280" type="curve" smooth="yes"/>
      <point x="156" y="274"/>
      <point x="120" y="269"/>
      <point x="78" y="264" type="curve"/>
      <point x="83" y="291"/>
      <point x="91" y="317"/>
      <point x="102" y="342" type="curve" smooth="yes"/>
      <point x="113" y="367"/>
      <point x="127" y="388"/>
      <point x="144" y="407" type="curve" smooth="yes"/>
      <point x="161" y="426"/>
      <point x="180" y="441"/>
      <point x="201" y="452" type="curve" smooth="yes"/>
      <point x="223" y="463"/>
      <point x="246" y="469"/>
      <point x="273" y="469" type="curve" smooth="yes"/>
    </contour>
    <contour>
      <point x="394" y="584" type="line"/>
      <point x="300" y="708" type="line"/>
      <point x="258" y="708" type="line"/>
      <point x="134" y="584" type="line"/>
      <point x="167" y="584" type="line" smooth="yes"/>
      <point x="170" y="584"/>
      <point x="173" y="585"/>
      <point x="175" y="586" type="curve" smooth="yes"/>
      <point x="177" y="587"/>
      <point x="179" y="588"/>
      <point x="181" y="590" type="curve"/>
      <point x="270" y="672" type="line"/>
      <point x="271" y="673"/>
      <point x="272" y="673"/>
      <point x="273" y="674" type="curve" smooth="yes"/>
      <point x="274" y="675"/>
      <point x="274" y="677"/>
      <point x="275" y="678" type="curve"/>
      <point x="276" y="676"/>
      <point x="278" y="673"/>
      <point x="280" y="672" type="curve"/>
      <point x="348" y="590" type="line"/>
      <point x="351" y="586"/>
      <point x="356" y="584"/>
      <point x="361" y="584" type="curve" smooth="yes"/>
    </contour>
  </outline>
</glyph>
<glyph name="igrave" format="1">
  <advance width="216"/>
  <unicode hex="00EC"/>
  <note>
    igrave
  </note>
  <outline>
    <contour>
      <point x="151" y="38" type="line"/>
      <point x="143" y="38" type="line" smooth="yes"/>
      <point x="140" y="38"/>
      <point x="135" y="39"/>
      <point x="128" y="39" type="curve" smooth="yes"/>
      <point x="121" y="39"/>
      <point x="113" y="40"/>
      <point x="104" y="40" type="curve"/>
      <point x="160" y="498" type="line"/>
      <point x="113" y="498" type="line"/>
      <point x="41" y="498" type="line"/>
      <point x="38" y="478" type="line"/>
      <point x="37" y="467"/>
      <point x="43" y="461"/>
      <point x="56" y="460" type="curve"/>
      <point x="61" y="460" type="line" smooth="yes"/>
      <point x="63" y="460"/>
      <point x="66" y="459"/>
      <point x="69" y="459" type="curve" smooth="yes"/>
      <point x="84" y="459" type="line" smooth="yes"/>
      <point x="91" y="459"/>
      <point x="99" y="458"/>
      <point x="108" y="458" type="curve"/>
      <point x="62" y="80" type="line"/>
      <point x="52" y="0" type="line"/>
      <point x="99" y="0" type="line"/>
      <point x="172" y="0" type="line"/>
      <point x="174" y="20" type="line" smooth="yes"/>
      <point x="175" y="31"/>
      <point x="169" y="37"/>
      <point x="156" y="38" type="curve"/>
    </contour>
    <contour>
      <point x="62" y="716" type="line"/>
      <point x="155" y="589" type="line"/>
      <point x="157" y="586"/>
      <point x="160" y="583"/>
      <point x="163" y="582" type="curve" smooth="yes"/>
      <point x="166" y="581"/>
      <point x="169" y="580"/>
      <point x="173" y="580" type="curve" smooth="yes"/>
      <point x="200" y="580" type="line"/>
      <point x="136" y="700" type="line" smooth="yes"/>
      <point x="133" y="706"/>
      <point x="130" y="710"/>
      <point x="126" y="712" type="curve" smooth="yes"/>
      <point x="122" y="714"/>
      <point x="116" y="716"/>
      <point x="108" y="716" type="curve" smooth="yes"/>
    </contour>
  </outline>
</glyph>
<glyph name="iacute" format="1">
  <advance width="279"/>
  <unicode hex="00ED"/>
  <note>
    iacute
  </note>
  <outline>
    <contour>
      <point x="148" y="38" type="line"/>
      <point x="140" y="38" type="line" smooth="yes"/>
      <point x="137" y="38"/>
      <point x="132" y="39"/>
      <point x="125" y="39" type="curve" smooth="yes"/>
      <point x="118" y="39"/>
      <point x="110" y="40"/>
      <point x="101" y="40" type="curve"/>
      <point x="157" y="498" type="line"/>
      <point x="110" y="498" type="line"/>
      <point x="38" y="498" type="line"/>
      <point x="35" y="478" type="line"/>
      <point x="34" y="467"/>
      <point x="40" y="461"/>
      <point x="53" y="460" type="curve"/>
      <point x="58" y="460" type="line" smooth="yes"/>
      <point x="60" y="460"/>
      <point x="63" y="459"/>
      <point x="66" y="459" type="curve" smooth="yes"/>
      <point x="81" y="459" type="line" smooth="yes"/>
      <point x="88" y="459"/>
      <point x="96" y="458"/>
      <point x="105" y="458" type="curve"/>
      <point x="59" y="80" type="line"/>
      <point x="49" y="0" type="line"/>
      <point x="96" y="0" type="line"/>
      <point x="169" y="0" type="line"/>
      <point x="171" y="20" type="line" smooth="yes"/>
      <point x="172" y="31"/>
      <point x="166" y="37"/>
      <point x="153" y="38" type="curve"/>
    </contour>
    <contour>
      <point x="274" y="716" type="line"/>
      <point x="227" y="716" type="line" smooth="yes"/>
      <point x="219" y="716"/>
      <point x="212" y="714"/>
      <point x="208" y="712" type="curve" smooth="yes"/>
      <point x="204" y="710"/>
      <point x="199" y="706"/>
      <point x="195" y="700" type="curve"/>
      <point x="102" y="580" type="line"/>
      <point x="131" y="580" type="line" smooth="yes"/>
      <point x="135" y="580"/>
      <point x="138" y="581"/>
      <point x="141" y="582" type="curve" smooth="yes"/>
      <point x="144" y="583"/>
      <point x="147" y="586"/>
      <point x="150" y="589" type="curve" smooth="yes"/>
    </contour>
  </outline>
</glyph>
<glyph name="icircumflex" format="1">
  <advance width="291"/>
  <unicode hex="00EE"/>
  <note>
    icircumflex
  </note>
  <outline>
    <contour>
      <point x="155" y="38" type="line"/>
      <point x="147" y="38" type="line" smooth="yes"/>
      <point x="144" y="38"/>
      <point x="139" y="39"/>
      <point x="132" y="39" type="curve" smooth="yes"/>
      <point x="125" y="39"/>
      <point x="117" y="40"/>
      <point x="108" y="40" type="curve"/>
      <point x="164" y="498" type="line"/>
      <point x="117" y="498" type="line"/>
      <point x="45" y="498" type="line"/>
      <point x="42" y="478" type="line"/>
      <point x="41" y="467"/>
      <point x="47" y="461"/>
      <point x="60" y="460" type="curve"/>
      <point x="65" y="460" type="line" smooth="yes"/>
      <point x="67" y="460"/>
      <point x="70" y="459"/>
      <point x="73" y="459" type="curve" smooth="yes"/>
      <point x="88" y="459" type="line" smooth="yes"/>
      <point x="95" y="459"/>
      <point x="103" y="458"/>
      <point x="112" y="458" type="curve"/>
      <point x="66" y="80" type="line"/>
      <point x="56" y="0" type="line"/>
      <point x="103" y="0" type="line"/>
      <point x="175" y="0" type="line"/>
      <point x="178" y="20" type="line"/>
      <point x="179" y="31"/>
      <point x="173" y="37"/>
      <point x="160" y="38" type="curve"/>
    </contour>
    <contour>
      <point x="287" y="584" type="line"/>
      <point x="194" y="708" type="line"/>
      <point x="151" y="708" type="line"/>
      <point x="27" y="584" type="line"/>
      <point x="60" y="584" type="line" smooth="yes"/>
      <point x="63" y="584"/>
      <point x="66" y="585"/>
      <point x="68" y="586" type="curve" smooth="yes"/>
      <point x="70" y="587"/>
      <point x="73" y="588"/>
      <point x="75" y="590" type="curve"/>
      <point x="163" y="672" type="line"/>
      <point x="164" y="673"/>
      <point x="165" y="673"/>
      <point x="166" y="674" type="curve" smooth="yes"/>
      <point x="167" y="675"/>
      <point x="168" y="677"/>
      <point x="169" y="678" type="curve"/>
      <point x="170" y="676"/>
      <point x="172" y="673"/>
      <point x="174" y="672" type="curve"/>
      <point x="242" y="590" type="line"/>
      <point x="245" y="586"/>
      <point x="249" y="584"/>
      <point x="254" y="584" type="curve" smooth="yes"/>
    </contour>
  </outline>
</glyph>
<glyph name="idieresis" format="1">
  <advance width="310"/>
  <unicode hex="00EF"/>
  <note>
    idieresis
  </note>
  <outline>
    <contour>
      <point x="163" y="38" type="line"/>
      <point x="156" y="38" type="line" smooth="yes"/>
      <point x="153" y="38"/>
      <point x="148" y="39"/>
      <point x="141" y="39" type="curve" smooth="yes"/>
      <point x="134" y="39"/>
      <point x="125" y="40"/>
      <point x="116" y="40" type="curve"/>
      <point x="173" y="498" type="line"/>
      <point x="125" y="498" type="line"/>
      <point x="53" y="498" type="line"/>
      <point x="50" y="478" type="line"/>
      <point x="49" y="467"/>
      <point x="55" y="461"/>
      <point x="68" y="460" type="curve"/>
      <point x="73" y="460" type="line" smooth="yes"/>
      <point x="75" y="460"/>
      <point x="78" y="459"/>
      <point x="81" y="459" type="curve" smooth="yes"/>
      <point x="96" y="459" type="line" smooth="yes"/>
      <point x="103" y="459"/>
      <point x="111" y="458"/>
      <point x="120" y="458" type="curve"/>
      <point x="74" y="80" type="line"/>
      <point x="64" y="0" type="line"/>
      <point x="111" y="0" type="line"/>
      <point x="184" y="0" type="line"/>
      <point x="186" y="20" type="line" smooth="yes"/>
      <point x="187" y="31"/>
      <point x="181" y="37"/>
      <point x="168" y="38" type="curve"/>
    </contour>
    <contour>
      <point x="133" y="648"/>
      <point x="132" y="653"/>
      <point x="130" y="658" type="curve" smooth="yes"/>
      <point x="128" y="663"/>
      <point x="126" y="667"/>
      <point x="123" y="671" type="curve" smooth="yes"/>
      <point x="120" y="675"/>
      <point x="116" y="678"/>
      <point x="111" y="680" type="curve" smooth="yes"/>
      <point x="106" y="682"/>
      <point x="100" y="684"/>
      <point x="95" y="684" type="curve" smooth="yes"/>
      <point x="90" y="684"/>
      <point x="85" y="682"/>
      <point x="80" y="680" type="curve" smooth="yes"/>
      <point x="75" y="678"/>
      <point x="70" y="675"/>
      <point x="66" y="671" type="curve" smooth="yes"/>
      <point x="62" y="667"/>
      <point x="58" y="663"/>
      <point x="55" y="658" type="curve" smooth="yes"/>
      <point x="52" y="653"/>
      <point x="51" y="648"/>
      <point x="50" y="642" type="curve" smooth="yes"/>
      <point x="49" y="637"/>
      <point x="49" y="632"/>
      <point x="51" y="627" type="curve" smooth="yes"/>
      <point x="53" y="622"/>
      <point x="56" y="618"/>
      <point x="59" y="614" type="curve" smooth="yes"/>
      <point x="62" y="610"/>
      <point x="66" y="607"/>
      <point x="71" y="605" type="curve" smooth="yes"/>
      <point x="76" y="603"/>
      <point x="80" y="602"/>
      <point x="85" y="602" type="curve" smooth="yes"/>
      <point x="90" y="602"/>
      <point x="97" y="603"/>
      <point x="102" y="605" type="curve" smooth="yes"/>
      <point x="107" y="607"/>
      <point x="112" y="610"/>
      <point x="116" y="614" type="curve" smooth="yes"/>
      <point x="120" y="618"/>
      <point x="123" y="622"/>
      <point x="126" y="627" type="curve" smooth="yes"/>
      <point x="129" y="632"/>
      <point x="131" y="637"/>
      <point x="132" y="642" type="curve" smooth="yes"/>
    </contour>
    <contour>
      <point x="304" y="648"/>
      <point x="304" y="653"/>
      <point x="302" y="658" type="curve" smooth="yes"/>
      <point x="300" y="663"/>
      <point x="297" y="667"/>
      <point x="294" y="671" type="curve" smooth="yes"/>
      <point x="291" y="675"/>
      <point x="287" y="678"/>
      <point x="282" y="680" type="curve" smooth="yes"/>
      <point x="277" y="682"/>
      <point x="272" y="683"/>
      <point x="267" y="683" type="curve" smooth="yes"/>
      <point x="261" y="683"/>
      <point x="256" y="682"/>
      <point x="251" y="680" type="curve" smooth="yes"/>
      <point x="246" y="678"/>
      <point x="241" y="675"/>
      <point x="237" y="671" type="curve" smooth="yes"/>
      <point x="233" y="667"/>
      <point x="229" y="663"/>
      <point x="226" y="658" type="curve" smooth="yes"/>
      <point x="223" y="653"/>
      <point x="222" y="648"/>
      <point x="221" y="642" type="curve" smooth="yes"/>
      <point x="220" y="637"/>
      <point x="220" y="632"/>
      <point x="222" y="627" type="curve" smooth="yes"/>
      <point x="224" y="622"/>
      <point x="227" y="618"/>
      <point x="230" y="614" type="curve" smooth="yes"/>
      <point x="233" y="610"/>
      <point x="237" y="607"/>
      <point x="242" y="605" type="curve" smooth="yes"/>
      <point x="247" y="603"/>
      <point x="251" y="602"/>
      <point x="257" y="602" type="curve" smooth="yes"/>
      <point x="262" y="602"/>
      <point x="268" y="603"/>
      <point x="273" y="605" type="curve" smooth="yes"/>
      <point x="278" y="607"/>
      <point x="283" y="610"/>
      <point x="287" y="614" type="curve" smooth="yes"/>
      <point x="291" y="618"/>
      <point x="295" y="622"/>
      <point x="298" y="627" type="curve" smooth="yes"/>
      <point x="301" y="632"/>
      <point x="302" y="637"/>
      <point x="303" y="642" type="curve" smooth="yes"/>
    </contour>
  </outline>
</glyph>
<glyph name="eth" format="1">
  <advance width="520"/>
  <unicode hex="00F0"/>
  <note>
    eth
  </note>
  <outline>
    <contour>
      <point x="251" y="521" type="line"/>
      <point x="342" y="594" type="line"/>
      <point x="420" y="536"/>
      <point x="447" y="448"/>
      <point x="444" y="344" type="curve"/>
      <point x="416" y="415"/>
      <point x="353" y="460"/>
      <point x="270" y="460" type="curve" smooth="yes"/>
      <point x="137" y="460"/>
      <point x="41" y="361"/>
      <point x="24" y="228" type="curve" smooth="yes"/>
      <point x="9" y="93"/>
      <point x="83" y="-6"/>
      <point x="214" y="-6" type="curve" smooth="yes"/>
      <point x="372" y="-6"/>
      <point x="458" y="120"/>
      <point x="481" y="300" type="curve" smooth="yes"/>
      <point x="497" y="423"/>
      <point x="472" y="538"/>
      <point x="376" y="619" type="curve"/>
      <point x="440" y="669" type="line" smooth="yes"/>
      <point x="444" y="672"/>
      <point x="449" y="679"/>
      <point x="446" y="688" type="curve"/>
      <point x="439" y="703" type="line"/>
      <point x="354" y="635" type="line"/>
      <point x="307" y="666"/>
      <point x="250" y="686"/>
      <point x="190" y="696" type="curve"/>
      <point x="180" y="674" type="line"/>
      <point x="177" y="665"/>
      <point x="182" y="659"/>
      <point x="192" y="656" type="curve"/>
      <point x="235" y="647"/>
      <point x="283" y="630"/>
      <point x="319" y="609" type="curve"/>
      <point x="250" y="554" type="line"/>
      <point x="243" y="547"/>
      <point x="242" y="544"/>
      <point x="245" y="535" type="curve"/>
    </contour>
    <contour>
      <point x="117" y="32"/>
      <point x="58" y="114"/>
      <point x="72" y="228" type="curve" smooth="yes"/>
      <point x="84" y="337"/>
      <point x="158" y="423"/>
      <point x="273" y="423" type="curve" smooth="yes"/>
      <point x="358" y="423"/>
      <point x="419" y="367"/>
      <point x="434" y="282" type="curve"/>
      <point x="412" y="140"/>
      <point x="347" y="32"/>
      <point x="220" y="32" type="curve" smooth="yes"/>
    </contour>
  </outline>
</glyph>
<glyph name="ntilde" format="1">
  <advance width="562"/>
  <unicode hex="00F1"/>
  <note>
    ntilde
  </note>
  <outline>
    <contour>
      <point x="492" y="38" type="line"/>
      <point x="485" y="38" type="line" smooth="yes"/>
      <point x="482" y="38"/>
      <point x="476" y="39"/>
      <point x="469" y="39" type="curve" smooth="yes"/>
      <point x="462" y="39"/>
      <point x="454" y="40"/>
      <point x="445" y="40" type="curve"/>
      <point x="479" y="318" type="line" smooth="yes"/>
      <point x="483" y="347"/>
      <point x="482" y="373"/>
      <point x="478" y="396" type="curve" smooth="yes"/>
      <point x="474" y="419"/>
      <point x="467" y="439"/>
      <point x="455" y="455" type="curve" smooth="yes"/>
      <point x="443" y="471"/>
      <point x="428" y="483"/>
      <point x="408" y="492" type="curve" smooth="yes"/>
      <point x="388" y="501"/>
      <point x="364" y="505"/>
      <point x="337" y="505" type="curve" smooth="yes"/>
      <point x="300" y="505"/>
      <point x="265" y="497"/>
      <point x="233" y="479" type="curve" smooth="yes"/>
      <point x="201" y="461"/>
      <point x="171" y="439"/>
      <point x="145" y="410" type="curve"/>
      <point x="150" y="485" type="line"/>
      <point x="150" y="493"/>
      <point x="145" y="497"/>
      <point x="136" y="497" type="curve" smooth="yes"/>
      <point x="110" y="497" type="line"/>
      <point x="38" y="497" type="line"/>
      <point x="36" y="478" type="line" smooth="yes"/>
      <point x="35" y="467"/>
      <point x="40" y="461"/>
      <point x="53" y="460" type="curve"/>
      <point x="59" y="460" type="line" smooth="yes"/>
      <point x="61" y="460"/>
      <point x="63" y="459"/>
      <point x="66" y="459" type="curve" smooth="yes"/>
      <point x="81" y="459" type="line" smooth="yes"/>
      <point x="88" y="459"/>
      <point x="97" y="458"/>
      <point x="106" y="458" type="curve"/>
      <point x="54" y="40" type="line"/>
      <point x="54" y="40" type="line"/>
      <point x="49" y="0" type="line"/>
      <point x="49" y="0" type="line"/>
      <point x="97" y="0" type="line"/>
      <point x="108" y="94" type="line"/>
      <point x="143" y="373" type="line"/>
      <point x="169" y="402"/>
      <point x="196" y="425"/>
      <point x="226" y="442" type="curve" smooth="yes"/>
      <point x="256" y="459"/>
      <point x="287" y="467"/>
      <point x="320" y="467" type="curve" smooth="yes"/>
      <point x="364" y="467"/>
      <point x="395" y="454"/>
      <point x="413" y="428" type="curve" smooth="yes"/>
      <point x="431" y="401"/>
      <point x="438" y="365"/>
      <point x="432" y="318" type="curve" smooth="yes"/>
      <point x="393" y="0" type="line"/>
      <point x="440" y="0" type="line"/>
      <point x="513" y="0" type="line"/>
      <point x="515" y="20" type="line" smooth="yes"/>
      <point x="516" y="31"/>
      <point x="510" y="37"/>
      <point x="497" y="38" type="curve"/>
    </contour>
    <contour>
      <point x="370" y="640"/>
      <point x="362" y="642"/>
      <point x="354" y="648" type="curve" smooth="yes"/>
      <point x="330" y="666" type="line" smooth="yes"/>
      <point x="322" y="672"/>
      <point x="314" y="678"/>
      <point x="305" y="684" type="curve" smooth="yes"/>
      <point x="296" y="690"/>
      <point x="285" y="692"/>
      <point x="274" y="692" type="curve" smooth="yes"/>
      <point x="263" y="692"/>
      <point x="253" y="690"/>
      <point x="243" y="686" type="curve" smooth="yes"/>
      <point x="233" y="682"/>
      <point x="224" y="676"/>
      <point x="217" y="668" type="curve" smooth="yes"/>
      <point x="210" y="660"/>
      <point x="204" y="652"/>
      <point x="199" y="641" type="curve"/>
      <point x="194" y="631"/>
      <point x="191" y="619"/>
      <point x="190" y="607" type="curve"/>
      <point x="221" y="607" type="line"/>
      <point x="224" y="622"/>
      <point x="229" y="634"/>
      <point x="237" y="644" type="curve" smooth="yes"/>
      <point x="245" y="654"/>
      <point x="257" y="658"/>
      <point x="271" y="658" type="curve" smooth="yes"/>
      <point x="280" y="658"/>
      <point x="288" y="656"/>
      <point x="296" y="650" type="curve" smooth="yes"/>
      <point x="320" y="632" type="line" smooth="yes"/>
      <point x="328" y="626"/>
      <point x="337" y="620"/>
      <point x="346" y="614" type="curve" smooth="yes"/>
      <point x="355" y="608"/>
      <point x="365" y="605"/>
      <point x="376" y="605" type="curve" smooth="yes"/>
      <point x="387" y="605"/>
      <point x="397" y="608"/>
      <point x="407" y="612" type="curve" smooth="yes"/>
      <point x="417" y="616"/>
      <point x="425" y="622"/>
      <point x="432" y="630" type="curve" smooth="yes"/>
      <point x="439" y="638"/>
      <point x="446" y="647"/>
      <point x="450" y="657" type="curve" smooth="yes"/>
      <point x="454" y="667"/>
      <point x="458" y="679"/>
      <point x="459" y="691" type="curve"/>
      <point x="429" y="691" type="line"/>
      <point x="427" y="675"/>
      <point x="421" y="663"/>
      <point x="413" y="654" type="curve" smooth="yes"/>
      <point x="405" y="645"/>
      <point x="393" y="640"/>
      <point x="379" y="640" type="curve" smooth="yes"/>
    </contour>
  </outline>
</glyph>
<glyph name="oacute" format="1">
  <advance width="519"/>
  <unicode hex="00F3"/>
  <note>
    oacute
  </note>
  <outline>
    <contour>
      <point x="250" y="506"/>
      <point x="218" y="499"/>
      <point x="188" y="487" type="curve" smooth="yes"/>
      <point x="158" y="475"/>
      <point x="132" y="458"/>
      <point x="110" y="436" type="curve" smooth="yes"/>
      <point x="88" y="414"/>
      <point x="70" y="387"/>
      <point x="56" y="355" type="curve" smooth="yes"/>
      <point x="42" y="323"/>
      <point x="33" y="288"/>
      <point x="28" y="249" type="curve" smooth="yes"/>
      <point x="23" y="210"/>
      <point x="24" y="175"/>
      <point x="30" y="144" type="curve" smooth="yes"/>
      <point x="36" y="113"/>
      <point x="48" y="85"/>
      <point x="65" y="63" type="curve" smooth="yes"/>
      <point x="82" y="41"/>
      <point x="103" y="24"/>
      <point x="130" y="12" type="curve" smooth="yes"/>
      <point x="157" y="0"/>
      <point x="187" y="-6"/>
      <point x="223" y="-6" type="curve" smooth="yes"/>
      <point x="259" y="-6"/>
      <point x="291" y="0"/>
      <point x="321" y="12" type="curve" smooth="yes"/>
      <point x="351" y="24"/>
      <point x="377" y="41"/>
      <point x="399" y="63" type="curve" smooth="yes"/>
      <point x="421" y="85"/>
      <point x="439" y="113"/>
      <point x="453" y="144" type="curve" smooth="yes"/>
      <point x="467" y="175"/>
      <point x="476" y="210"/>
      <point x="481" y="249" type="curve" smooth="yes"/>
      <point x="486" y="288"/>
      <point x="485" y="323"/>
      <point x="479" y="355" type="curve" smooth="yes"/>
      <point x="473" y="387"/>
      <point x="461" y="414"/>
      <point x="444" y="436" type="curve" smooth="yes"/>
      <point x="427" y="458"/>
      <point x="407" y="475"/>
      <point x="380" y="487" type="curve" smooth="yes"/>
      <point x="353" y="499"/>
      <point x="322" y="506"/>
      <point x="286" y="506" type="curve" smooth="yes"/>
    </contour>
    <contour>
      <point x="198" y="31"/>
      <point x="173" y="36"/>
      <point x="152" y="46" type="curve" smooth="yes"/>
      <point x="131" y="56"/>
      <point x="114" y="71"/>
      <point x="102" y="90" type="curve" smooth="yes"/>
      <point x="90" y="109"/>
      <point x="81" y="132"/>
      <point x="77" y="159" type="curve" smooth="yes"/>
      <point x="73" y="186"/>
      <point x="73" y="216"/>
      <point x="77" y="249" type="curve" smooth="yes"/>
      <point x="81" y="282"/>
      <point x="88" y="312"/>
      <point x="99" y="339" type="curve" smooth="yes"/>
      <point x="110" y="366"/>
      <point x="124" y="389"/>
      <point x="141" y="408" type="curve" smooth="yes"/>
      <point x="158" y="427"/>
      <point x="179" y="443"/>
      <point x="202" y="453" type="curve" smooth="yes"/>
      <point x="225" y="463"/>
      <point x="251" y="468"/>
      <point x="281" y="468" type="curve" smooth="yes"/>
      <point x="311" y="468"/>
      <point x="336" y="463"/>
      <point x="357" y="453" type="curve" smooth="yes"/>
      <point x="378" y="443"/>
      <point x="395" y="427"/>
      <point x="407" y="408" type="curve" smooth="yes"/>
      <point x="419" y="389"/>
      <point x="428" y="366"/>
      <point x="432" y="339" type="curve" smooth="yes"/>
      <point x="436" y="312"/>
      <point x="436" y="282"/>
      <point x="432" y="249" type="curve" smooth="yes"/>
      <point x="428" y="216"/>
      <point x="421" y="186"/>
      <point x="410" y="159" type="curve" smooth="yes"/>
      <point x="399" y="132"/>
      <point x="385" y="109"/>
      <point x="368" y="90" type="curve" smooth="yes"/>
      <point x="351" y="71"/>
      <point x="330" y="56"/>
      <point x="307" y="46" type="curve" smooth="yes"/>
      <point x="284" y="36"/>
      <point x="258" y="31"/>
      <point x="228" y="31" type="curve" smooth="yes"/>
    </contour>
    <contour>
      <point x="425" y="716" type="line"/>
      <point x="378" y="716" type="line" smooth="yes"/>
      <point x="370" y="716"/>
      <point x="363" y="714"/>
      <point x="359" y="712" type="curve" smooth="yes"/>
      <point x="355" y="710"/>
      <point x="350" y="706"/>
      <point x="346" y="700" type="curve"/>
      <point x="253" y="581" type="line"/>
      <point x="282" y="581" type="line" smooth="yes"/>
      <point x="286" y="581"/>
      <point x="289" y="581"/>
      <point x="292" y="582" type="curve" smooth="yes"/>
      <point x="295" y="583"/>
      <point x="298" y="586"/>
      <point x="301" y="589" type="curve" smooth="yes"/>
    </contour>
  </outline>
</glyph>
<glyph name="otilde" format="1">
  <advance width="520"/>
  <unicode hex="00F5"/>
  <note>
    otilde
  </note>
  <outline>
    <contour>
      <point x="251" y="506"/>
      <point x="219" y="499"/>
      <point x="189" y="487" type="curve" smooth="yes"/>
      <point x="159" y="475"/>
      <point x="133" y="458"/>
      <point x="111" y="436" type="curve" smooth="yes"/>
      <point x="89" y="414"/>
      <point x="70" y="387"/>
      <point x="56" y="355" type="curve" smooth="yes"/>
      <point x="42" y="323"/>
      <point x="33" y="288"/>
      <point x="28" y="249" type="curve" smooth="yes"/>
      <point x="23" y="210"/>
      <point x="24" y="175"/>
      <point x="30" y="144" type="curve" smooth="yes"/>
      <point x="36" y="113"/>
      <point x="48" y="85"/>
      <point x="65" y="63" type="curve" smooth="yes"/>
      <point x="82" y="41"/>
      <point x="103" y="24"/>
      <point x="130" y="12" type="curve" smooth="yes"/>
      <point x="157" y="0"/>
      <point x="188" y="-6"/>
      <point x="224" y="-6" type="curve" smooth="yes"/>
      <point x="260" y="-6"/>
      <point x="292" y="0"/>
      <point x="322" y="12" type="curve" smooth="yes"/>
      <point x="352" y="24"/>
      <point x="377" y="41"/>
      <point x="399" y="63" type="curve" smooth="yes"/>
      <point x="421" y="85"/>
      <point x="439" y="113"/>
      <point x="453" y="144" type="curve" smooth="yes"/>
      <point x="467" y="175"/>
      <point x="477" y="210"/>
      <point x="482" y="249" type="curve" smooth="yes"/>
      <point x="487" y="288"/>
      <point x="485" y="323"/>
      <point x="479" y="355" type="curve" smooth="yes"/>
      <point x="473" y="387"/>
      <point x="462" y="414"/>
      <point x="445" y="436" type="curve" smooth="yes"/>
      <point x="428" y="458"/>
      <point x="407" y="475"/>
      <point x="380" y="487" type="curve" smooth="yes"/>
      <point x="353" y="499"/>
      <point x="323" y="506"/>
      <point x="287" y="506" type="curve" smooth="yes"/>
    </contour>
    <contour>
      <point x="198" y="31"/>
      <point x="173" y="36"/>
      <point x="152" y="46" type="curve" smooth="yes"/>
      <point x="131" y="56"/>
      <point x="114" y="71"/>
      <point x="102" y="90" type="curve" smooth="yes"/>
      <point x="90" y="109"/>
      <point x="81" y="132"/>
      <point x="77" y="159" type="curve" smooth="yes"/>
      <point x="73" y="186"/>
      <point x="73" y="216"/>
      <point x="77" y="249" type="curve" smooth="yes"/>
      <point x="81" y="282"/>
      <point x="88" y="312"/>
      <point x="99" y="339" type="curve" smooth="yes"/>
      <point x="110" y="366"/>
      <point x="124" y="389"/>
      <point x="141" y="408" type="curve" smooth="yes"/>
      <point x="158" y="427"/>
      <point x="179" y="443"/>
      <point x="202" y="453" type="curve" smooth="yes"/>
      <point x="225" y="463"/>
      <point x="252" y="468"/>
      <point x="282" y="468" type="curve" smooth="yes"/>
      <point x="312" y="468"/>
      <point x="337" y="463"/>
      <point x="358" y="453" type="curve" smooth="yes"/>
      <point x="379" y="443"/>
      <point x="396" y="427"/>
      <point x="408" y="408" type="curve" smooth="yes"/>
      <point x="420" y="389"/>
      <point x="429" y="366"/>
      <point x="433" y="339" type="curve" smooth="yes"/>
      <point x="437" y="312"/>
      <point x="437" y="282"/>
      <point x="433" y="249" type="curve" smooth="yes"/>
      <point x="429" y="216"/>
      <point x="422" y="186"/>
      <point x="411" y="159" type="curve" smooth="yes"/>
      <point x="400" y="132"/>
      <point x="386" y="109"/>
      <point x="369" y="90" type="curve" smooth="yes"/>
      <point x="352" y="71"/>
      <point x="331" y="56"/>
      <point x="308" y="46" type="curve" smooth="yes"/>
      <point x="285" y="36"/>
      <point x="258" y="31"/>
      <point x="228" y="31" type="curve" smooth="yes"/>
    </contour>
    <contour>
      <point x="352" y="640"/>
      <point x="344" y="642"/>
      <point x="336" y="648" type="curve" smooth="yes"/>
      <point x="328" y="654"/>
      <point x="321" y="660"/>
      <point x="313" y="666" type="curve" smooth="yes"/>
      <point x="305" y="672"/>
      <point x="296" y="678"/>
      <point x="287" y="684" type="curve" smooth="yes"/>
      <point x="278" y="690"/>
      <point x="267" y="693"/>
      <point x="256" y="693" type="curve" smooth="yes"/>
      <point x="245" y="693"/>
      <point x="235" y="690"/>
      <point x="225" y="686" type="curve" smooth="yes"/>
      <point x="215" y="682"/>
      <point x="207" y="676"/>
      <point x="200" y="668" type="curve" smooth="yes"/>
      <point x="193" y="660"/>
      <point x="187" y="652"/>
      <point x="182" y="641" type="curve"/>
      <point x="177" y="631"/>
      <point x="174" y="619"/>
      <point x="173" y="607" type="curve"/>
      <point x="203" y="607" type="line"/>
      <point x="206" y="622"/>
      <point x="212" y="634"/>
      <point x="220" y="644" type="curve" smooth="yes"/>
      <point x="228" y="654"/>
      <point x="239" y="658"/>
      <point x="253" y="658" type="curve" smooth="yes"/>
      <point x="262" y="658"/>
      <point x="270" y="656"/>
      <point x="278" y="650" type="curve" smooth="yes"/>
      <point x="302" y="632" type="line" smooth="yes"/>
      <point x="310" y="626"/>
      <point x="319" y="620"/>
      <point x="328" y="614" type="curve" smooth="yes"/>
      <point x="337" y="608"/>
      <point x="347" y="606"/>
      <point x="358" y="606" type="curve" smooth="yes"/>
      <point x="369" y="606"/>
      <point x="380" y="608"/>
      <point x="390" y="612" type="curve" smooth="yes"/>
      <point x="400" y="616"/>
      <point x="408" y="622"/>
      <point x="415" y="630" type="curve" smooth="yes"/>
      <point x="422" y="638"/>
      <point x="428" y="647"/>
      <point x="432" y="657" type="curve" smooth="yes"/>
      <point x="436" y="667"/>
      <point x="440" y="679"/>
      <point x="441" y="691" type="curve"/>
      <point x="411" y="691" type="line"/>
      <point x="409" y="675"/>
      <point x="403" y="663"/>
      <point x="395" y="654" type="curve" smooth="yes"/>
      <point x="387" y="645"/>
      <point x="375" y="640"/>
      <point x="361" y="640" type="curve" smooth="yes"/>
    </contour>
  </outline>
</glyph>
